<?xml version="1.0" encoding="UTF-8" standalone="no"?>
<!DOCTYPE svg PUBLIC "-//W3C//DTD SVG 1.1//EN"
 "http://www.w3.org/Graphics/SVG/1.1/DTD/svg11.dtd">
<!-- Generated by graphviz version 2.26.3 (20100126.1600)
 -->
<!-- Title: fork_dot Pages: 1 -->
<svg width="1244pt" height="524pt"
 viewBox="0.00 0.00 1244.00 524.00" xmlns="http://www.w3.org/2000/svg" xmlns:xlink="http://www.w3.org/1999/xlink">
<g id="graph1" class="graph" transform="scale(1 1) rotate(0) translate(4 520)">
<title>fork_dot</title>
<polygon fill="white" stroke="white" points="-4,5 -4,-520 1241,-520 1241,5 -4,5"/>
<!-- sys_fork -->
<g id="node1" class="node"><title>sys_fork</title>
<ellipse fill="none" stroke="skyblue" cx="792" cy="-473" rx="48.0833" ry="24.0416"/>
<text text-anchor="middle" x="792" y="-477" font-family="Verdana" font-size="10.00">sys_fork</text>
<text text-anchor="middle" x="792" y="-464" font-family="Verdana" font-size="10.00">(SIGCHLD)</text>
</g>
<!-- do_fork -->
<g id="node5" class="node"><title>do_fork</title>
<ellipse fill="none" stroke="skyblue" cx="915" cy="-368" rx="32.1242" ry="18"/>
<text text-anchor="middle" x="915" y="-365.5" font-family="Verdana" font-size="10.00">do_fork</text>
</g>
<!-- sys_fork&#45;&gt;do_fork -->
<g id="edge2" class="edge"><title>sys_fork&#45;&gt;do_fork</title>
<path fill="none" stroke="crimson" d="M816.301,-452.255C837.408,-434.237 867.88,-408.225 889.369,-389.88"/>
<polygon fill="crimson" stroke="crimson" points="891.794,-392.412 897.127,-383.257 887.249,-387.088 891.794,-392.412"/>
</g>
<!-- sys_vfork -->
<g id="node2" class="node"><title>sys_vfork</title>
<ellipse fill="none" stroke="skyblue" cx="915" cy="-473" rx="56.7776" ry="24.0416"/>
<text text-anchor="middle" x="915" y="-477" font-family="Verdana" font-size="10.00">sys_fork</text>
<text text-anchor="middle" x="915" y="-464" font-family="Verdana" font-size="10.00">(clone_flags)</text>
</g>
<!-- sys_vfork&#45;&gt;do_fork -->
<g id="edge4" class="edge"><title>sys_vfork&#45;&gt;do_fork</title>
<path fill="none" stroke="crimson" d="M915,-448.911C915,-433.216 915,-412.674 915,-396.216"/>
<polygon fill="crimson" stroke="crimson" points="918.5,-396.082 915,-386.082 911.5,-396.082 918.5,-396.082"/>
</g>
<!-- sys_clone -->
<g id="node3" class="node"><title>sys_clone</title>
<ellipse fill="none" stroke="skyblue" cx="1058" cy="-473" rx="68.0887" ry="42.4264"/>
<text text-anchor="middle" x="1058" y="-490" font-family="Verdana" font-size="10.00">sys_fork</text>
<text text-anchor="middle" x="1058" y="-477" font-family="Verdana" font-size="10.00">(CLONE_VFORK|</text>
<text text-anchor="middle" x="1058" y="-464" font-family="Verdana" font-size="10.00">CLONE_VM|</text>
<text text-anchor="middle" x="1058" y="-451" font-family="Verdana" font-size="10.00">SIGCHLD)</text>
</g>
<!-- sys_clone&#45;&gt;do_fork -->
<g id="edge6" class="edge"><title>sys_clone&#45;&gt;do_fork</title>
<path fill="none" stroke="crimson" d="M1013.54,-440.353C990.438,-423.391 962.922,-403.187 942.845,-388.446"/>
<polygon fill="crimson" stroke="crimson" points="944.863,-385.585 934.731,-382.488 940.72,-391.228 944.863,-385.585"/>
</g>
<!-- copy_process -->
<g id="node9" class="node"><title>copy_process</title>
<ellipse fill="none" stroke="skyblue" cx="776" cy="-282" rx="51.8266" ry="18"/>
<text text-anchor="middle" x="776" y="-279.5" font-family="Verdana" font-size="10.00">copy_process</text>
</g>
<!-- do_fork&#45;&gt;copy_process -->
<g id="edge8" class="edge"><title>do_fork&#45;&gt;copy_process</title>
<path fill="none" stroke="crimson" d="M893.281,-354.562C871.151,-340.871 836.495,-319.428 810.584,-303.397"/>
<polygon fill="crimson" stroke="crimson" points="812.165,-300.259 801.819,-297.974 808.482,-306.212 812.165,-300.259"/>
</g>
<!-- wake_up_new_task -->
<g id="node11" class="node"><title>wake_up_new_task</title>
<ellipse fill="none" stroke="skyblue" cx="915" cy="-282" rx="69.0609" ry="18"/>
<text text-anchor="middle" x="915" y="-279.5" font-family="Verdana" font-size="10.00">wake_up_new_task</text>
</g>
<!-- do_fork&#45;&gt;wake_up_new_task -->
<g id="edge10" class="edge"><title>do_fork&#45;&gt;wake_up_new_task</title>
<path fill="none" stroke="crimson" d="M915,-349.762C915,-338.36 915,-323.434 915,-310.494"/>
<polygon fill="crimson" stroke="crimson" points="918.5,-310.212 915,-300.212 911.5,-310.212 918.5,-310.212"/>
</g>
<!-- if (CLONE_VFORK)\n(wait_for_completion(&amp;vfork)) -->
<g id="node13" class="node"><title>if (CLONE_VFORK)\n(wait_for_completion(&amp;vfork))</title>
<ellipse fill="none" stroke="skyblue" cx="1119" cy="-282" rx="116.88" ry="24.0416"/>
<text text-anchor="middle" x="1119" y="-286" font-family="Verdana" font-size="10.00">if (CLONE_VFORK)</text>
<text text-anchor="middle" x="1119" y="-273" font-family="Verdana" font-size="10.00">(wait_for_completion(&amp;vfork))</text>
</g>
<!-- do_fork&#45;&gt;if (CLONE_VFORK)\n(wait_for_completion(&amp;vfork)) -->
<g id="edge12" class="edge"><title>do_fork&#45;&gt;if (CLONE_VFORK)\n(wait_for_completion(&amp;vfork))</title>
<path fill="none" stroke="crimson" d="M940.837,-357.108C970.217,-344.722 1019.18,-324.079 1058.35,-307.566"/>
<polygon fill="crimson" stroke="crimson" points="1059.72,-310.79 1067.57,-303.681 1057,-304.34 1059.72,-310.79"/>
</g>
<!-- dup_task_struct -->
<g id="node15" class="node"><title>dup_task_struct</title>
<ellipse fill="none" stroke="skyblue" cx="511" cy="-196" rx="68.7979" ry="24.0416"/>
<text text-anchor="middle" x="511" y="-200" font-family="Verdana" font-size="10.00">dup_task_struct</text>
<text text-anchor="middle" x="511" y="-187" font-family="Verdana" font-size="10.00">(current)</text>
</g>
<!-- copy_process&#45;&gt;dup_task_struct -->
<g id="edge14" class="edge"><title>copy_process&#45;&gt;dup_task_struct</title>
<path fill="none" stroke="crimson" d="M738.032,-269.678C694.47,-255.541 622.464,-232.173 571.229,-215.546"/>
<polygon fill="crimson" stroke="crimson" points="572.187,-212.177 561.595,-212.42 570.027,-218.836 572.187,-212.177"/>
</g>
<!-- sched_fork -->
<g id="node17" class="node"><title>sched_fork</title>
<ellipse fill="none" stroke="skyblue" cx="641" cy="-196" rx="43.2043" ry="18"/>
<text text-anchor="middle" x="641" y="-193.5" font-family="Verdana" font-size="10.00">sched_fork</text>
</g>
<!-- copy_process&#45;&gt;sched_fork -->
<g id="edge16" class="edge"><title>copy_process&#45;&gt;sched_fork</title>
<path fill="none" stroke="crimson" d="M750.924,-266.026C729.152,-252.156 697.478,-231.979 673.717,-216.842"/>
<polygon fill="crimson" stroke="crimson" points="675.349,-213.732 665.034,-211.311 671.588,-219.636 675.349,-213.732"/>
</g>
<!-- copy_files,copy_fs... -->
<g id="node19" class="node"><title>copy_files,copy_fs...</title>
<ellipse fill="none" stroke="skyblue" cx="776" cy="-196" rx="73.8704" ry="18"/>
<text text-anchor="middle" x="776" y="-193.5" font-family="Verdana" font-size="10.00">copy_files,copy_fs...</text>
</g>
<!-- copy_process&#45;&gt;copy_files,copy_fs... -->
<g id="edge18" class="edge"><title>copy_process&#45;&gt;copy_files,copy_fs...</title>
<path fill="none" stroke="crimson" d="M776,-263.762C776,-252.36 776,-237.434 776,-224.494"/>
<polygon fill="crimson" stroke="crimson" points="779.5,-224.212 776,-214.212 772.5,-224.212 779.5,-224.212"/>
</g>
<!-- copy_thread -->
<g id="node21" class="node"><title>copy_thread</title>
<ellipse fill="none" stroke="skyblue" cx="916" cy="-196" rx="48.13" ry="18"/>
<text text-anchor="middle" x="916" y="-193.5" font-family="Verdana" font-size="10.00">copy_thread</text>
</g>
<!-- copy_process&#45;&gt;copy_thread -->
<g id="edge20" class="edge"><title>copy_process&#45;&gt;copy_thread</title>
<path fill="none" stroke="crimson" d="M801.678,-266.226C824.316,-252.32 857.461,-231.96 882.24,-216.738"/>
<polygon fill="crimson" stroke="crimson" points="884.267,-219.601 890.956,-211.384 880.603,-213.636 884.267,-219.601"/>
</g>
<!-- alloc_pid -->
<g id="node23" class="node"><title>alloc_pid</title>
<ellipse fill="none" stroke="skyblue" cx="1018" cy="-196" rx="35.8221" ry="18"/>
<text text-anchor="middle" x="1018" y="-193.5" font-family="Verdana" font-size="10.00">alloc_pid</text>
</g>
<!-- copy_process&#45;&gt;alloc_pid -->
<g id="edge22" class="edge"><title>copy_process&#45;&gt;alloc_pid</title>
<path fill="none" stroke="crimson" d="M809.333,-268.173C818.254,-264.669 827.937,-261.04 837,-258 896.501,-238.041 914.746,-243.349 973,-220 977.181,-218.324 981.478,-216.366 985.679,-214.305"/>
<polygon fill="crimson" stroke="crimson" points="987.348,-217.382 994.641,-209.697 984.147,-211.157 987.348,-217.382"/>
</g>
<!-- tsk = alloc_task_struct() -->
<g id="node25" class="node"><title>tsk = alloc_task_struct()</title>
<ellipse fill="none" stroke="skyblue" cx="86" cy="-98" rx="86.1822" ry="18"/>
<text text-anchor="middle" x="86" y="-95.5" font-family="Verdana" font-size="10.00">tsk = alloc_task_struct()</text>
</g>
<!-- dup_task_struct&#45;&gt;tsk = alloc_task_struct() -->
<g id="edge24" class="edge"><title>dup_task_struct&#45;&gt;tsk = alloc_task_struct()</title>
<path fill="none" stroke="crimson" d="M452.173,-183.308C386.085,-168.933 275.666,-144.568 181,-122 171.031,-119.623 160.492,-117.036 150.205,-114.469"/>
<polygon fill="crimson" stroke="crimson" points="150.996,-111.059 140.445,-112.022 149.293,-117.849 150.996,-111.059"/>
</g>
<!-- ti = alloc_thread_info(tsk) -->
<g id="node27" class="node"><title>ti = alloc_thread_info(tsk)</title>
<ellipse fill="none" stroke="skyblue" cx="280" cy="-98" rx="89.8757" ry="18"/>
<text text-anchor="middle" x="280" y="-95.5" font-family="Verdana" font-size="10.00">ti = alloc_thread_info(tsk)</text>
</g>
<!-- dup_task_struct&#45;&gt;ti = alloc_thread_info(tsk) -->
<g id="edge26" class="edge"><title>dup_task_struct&#45;&gt;ti = alloc_thread_info(tsk)</title>
<path fill="none" stroke="crimson" d="M467.007,-177.336C427.173,-160.437 368.632,-135.602 327.691,-118.233"/>
<polygon fill="crimson" stroke="crimson" points="329.034,-115 318.461,-114.317 326.3,-121.444 329.034,-115"/>
</g>
<!-- arch_dup_task_struct(tsk, orig)\n(*dst = *src) -->
<g id="node29" class="node"><title>arch_dup_task_struct(tsk, orig)\n(*dst = *src)</title>
<ellipse fill="none" stroke="skyblue" cx="511" cy="-98" rx="123.243" ry="24.0416"/>
<text text-anchor="middle" x="511" y="-102" font-family="Verdana" font-size="10.00">arch_dup_task_struct(tsk, orig)</text>
<text text-anchor="middle" x="511" y="-89" font-family="Verdana" font-size="10.00">(*dst = *src)</text>
</g>
<!-- dup_task_struct&#45;&gt;arch_dup_task_struct(tsk, orig)\n(*dst = *src) -->
<g id="edge28" class="edge"><title>dup_task_struct&#45;&gt;arch_dup_task_struct(tsk, orig)\n(*dst = *src)</title>
<path fill="none" stroke="crimson" d="M511,-171.775C511,-159.878 511,-145.338 511,-132.32"/>
<polygon fill="crimson" stroke="crimson" points="514.5,-132.286 511,-122.286 507.5,-132.286 514.5,-132.286"/>
</g>
<!-- tsk&#45;&gt;stack = ti -->
<g id="node31" class="node"><title>tsk&#45;&gt;stack = ti</title>
<ellipse fill="none" stroke="skyblue" cx="708" cy="-98" rx="56.1328" ry="18"/>
<text text-anchor="middle" x="708" y="-95.5" font-family="Verdana" font-size="10.00">tsk&#45;&gt;stack = ti</text>
</g>
<!-- dup_task_struct&#45;&gt;tsk&#45;&gt;stack = ti -->
<g id="edge30" class="edge"><title>dup_task_struct&#45;&gt;tsk&#45;&gt;stack = ti</title>
<path fill="none" stroke="crimson" stroke-dasharray="5,2" d="M550.866,-176.168C585.088,-159.144 634.155,-134.735 668.322,-117.738"/>
<polygon fill="crimson" stroke="crimson" points="670.145,-120.741 677.539,-113.153 667.027,-114.473 670.145,-120.741"/>
</g>
<!-- setup_thread_stack -->
<g id="node33" class="node"><title>setup_thread_stack</title>
<ellipse fill="none" stroke="skyblue" cx="864" cy="-98" rx="82.0244" ry="24.0416"/>
<text text-anchor="middle" x="864" y="-102" font-family="Verdana" font-size="10.00">setup_thread_stack</text>
<text text-anchor="middle" x="864" y="-89" font-family="Verdana" font-size="10.00">(tsk, orig)</text>
</g>
<!-- dup_task_struct&#45;&gt;setup_thread_stack -->
<g id="edge32" class="edge"><title>dup_task_struct&#45;&gt;setup_thread_stack</title>
<path fill="none" stroke="crimson" d="M562.529,-179.861C571.344,-177.182 580.423,-174.473 589,-172 627.035,-161.035 725.079,-134.835 793.181,-116.749"/>
<polygon fill="crimson" stroke="crimson" points="794.234,-120.091 803.001,-114.143 792.438,-113.326 794.234,-120.091"/>
<text text-anchor="middle" x="738.5" y="-144.5" font-family="Verdana" font-size="10.00">current&#45;&gt;orig</text>
</g>
<!-- *task_thread_info(p) = *task_thread_info(org) -->
<g id="node35" class="node"><title>*task_thread_info(p) = *task_thread_info(org)</title>
<ellipse fill="none" stroke="skyblue" cx="726" cy="-18" rx="154.012" ry="18"/>
<text text-anchor="middle" x="726" y="-15.5" font-family="Verdana" font-size="10.00">*task_thread_info(p) = *task_thread_info(org)</text>
</g>
<!-- setup_thread_stack&#45;&gt;*task_thread_info(p) = *task_thread_info(org) -->
<g id="edge34" class="edge"><title>setup_thread_stack&#45;&gt;*task_thread_info(p) = *task_thread_info(org)</title>
<path fill="none" stroke="crimson" d="M827.019,-76.5615C807.996,-65.5338 784.801,-52.0876 765.437,-40.8621"/>
<polygon fill="crimson" stroke="crimson" points="766.964,-37.7016 756.557,-35.7143 763.453,-43.7576 766.964,-37.7016"/>
</g>
<!-- task_thread_info(p)&#45;&gt;task = p -->
<g id="node37" class="node"><title>task_thread_info(p)&#45;&gt;task = p</title>
<ellipse fill="none" stroke="skyblue" cx="1001" cy="-18" rx="102.919" ry="18"/>
<text text-anchor="middle" x="1001" y="-15.5" font-family="Verdana" font-size="10.00">task_thread_info(p)&#45;&gt;task = p</text>
</g>
<!-- setup_thread_stack&#45;&gt;task_thread_info(p)&#45;&gt;task = p -->
<g id="edge36" class="edge"><title>setup_thread_stack&#45;&gt;task_thread_info(p)&#45;&gt;task = p</title>
<path fill="none" stroke="crimson" stroke-dasharray="5,2" d="M901.074,-76.3508C920.092,-65.2454 943.236,-51.7306 962.46,-40.5051"/>
<polygon fill="crimson" stroke="crimson" points="964.396,-43.4278 971.266,-35.3627 960.866,-37.3829 964.396,-43.4278"/>
</g>
<!-- kthread_create -->
<g id="node39" class="node"><title>kthread_create</title>
<ellipse fill="none" stroke="black" stroke-dasharray="5,2" cx="386" cy="-368" rx="65.0538" ry="24.0416"/>
<text text-anchor="middle" x="386" y="-372" font-family="Verdana" font-size="10.00">kthread_create</text>
<text text-anchor="middle" x="386" y="-359" font-family="Verdana" font-size="10.00">kthread_run</text>
</g>
<!-- kthreadd -->
<g id="node40" class="node"><title>kthreadd</title>
<ellipse fill="none" stroke="black" stroke-dasharray="5,2" cx="524" cy="-368" rx="36.9352" ry="18"/>
<text text-anchor="middle" x="524" y="-365.5" font-family="Verdana" font-size="10.00">kthreadd</text>
</g>
<!-- kthread_create&#45;&gt;kthreadd -->
<g id="edge39" class="edge"><title>kthread_create&#45;&gt;kthreadd</title>
<path fill="none" stroke="limegreen" stroke-dasharray="5,2" d="M451.227,-368C459.647,-368 468.068,-368 476.489,-368"/>
<polygon fill="limegreen" stroke="limegreen" points="476.761,-371.5 486.76,-368 476.76,-364.5 476.761,-371.5"/>
</g>
<!-- create_kthread -->
<g id="node41" class="node"><title>create_kthread</title>
<ellipse fill="none" stroke="black" stroke-dasharray="5,2" cx="653" cy="-368" rx="56.1328" ry="18"/>
<text text-anchor="middle" x="653" y="-365.5" font-family="Verdana" font-size="10.00">create_kthread</text>
</g>
<!-- kthreadd&#45;&gt;create_kthread -->
<g id="edge41" class="edge"><title>kthreadd&#45;&gt;create_kthread</title>
<path fill="none" stroke="crimson" d="M561.037,-368C569.644,-368 578.25,-368 586.857,-368"/>
<polygon fill="crimson" stroke="crimson" points="586.96,-371.5 596.96,-368 586.96,-364.5 586.96,-371.5"/>
</g>
<!-- kernel_thread -->
<g id="node42" class="node"><title>kernel_thread</title>
<ellipse fill="none" stroke="black" stroke-dasharray="5,2" cx="796" cy="-368" rx="51.2073" ry="18"/>
<text text-anchor="middle" x="796" y="-365.5" font-family="Verdana" font-size="10.00">kernel_thread</text>
</g>
<!-- create_kthread&#45;&gt;kernel_thread -->
<g id="edge42" class="edge"><title>create_kthread&#45;&gt;kernel_thread</title>
<path fill="none" stroke="crimson" d="M709.139,-368C717.674,-368 726.21,-368 734.745,-368"/>
<polygon fill="crimson" stroke="crimson" points="734.765,-371.5 744.765,-368 734.765,-364.5 734.765,-371.5"/>
</g>
<!-- kernel_thread&#45;&gt;do_fork -->
<g id="edge43" class="edge"><title>kernel_thread&#45;&gt;do_fork</title>
<path fill="none" stroke="crimson" d="M847.133,-368C855.707,-368 864.282,-368 872.856,-368"/>
<polygon fill="crimson" stroke="crimson" points="872.922,-371.5 882.922,-368 872.922,-364.5 872.922,-371.5"/>
</g>
</g>
</svg>
