<?xml version="1.0" encoding="UTF-8" standalone="no"?>
<!DOCTYPE svg PUBLIC "-//W3C//DTD SVG 1.1//EN"
 "http://www.w3.org/Graphics/SVG/1.1/DTD/svg11.dtd">
<!-- Generated by graphviz version 2.26.3 (20100126.1600)
 -->
<!-- Title: hibernation_dot Pages: 1 -->
<svg width="3352pt" height="578pt"
 viewBox="0.00 0.00 3352.00 578.00" xmlns="http://www.w3.org/2000/svg" xmlns:xlink="http://www.w3.org/1999/xlink">
<g id="graph1" class="graph" transform="scale(1 1) rotate(0) translate(4 574)">
<title>hibernation_dot</title>
<polygon fill="white" stroke="white" points="-4,5 -4,-574 3349,-574 3349,5 -4,5"/>
<!-- start_kernel -->
<g id="node1" class="node"><title>start_kernel</title>
<ellipse fill="none" stroke="skyblue" cx="116" cy="-552" rx="46.7846" ry="18"/>
<text text-anchor="middle" x="116" y="-549.5" font-family="Verdana" font-size="10.00">start_kernel</text>
</g>
<!-- rest_init -->
<g id="node3" class="node"><title>rest_init</title>
<ellipse fill="none" stroke="skyblue" cx="116" cy="-480" rx="35.0885" ry="18"/>
<text text-anchor="middle" x="116" y="-477.5" font-family="Verdana" font-size="10.00">rest_init</text>
</g>
<!-- start_kernel&#45;&gt;rest_init -->
<g id="edge2" class="edge"><title>start_kernel&#45;&gt;rest_init</title>
<path fill="none" stroke="crimson" d="M116,-533.831C116,-526.131 116,-516.974 116,-508.417"/>
<polygon fill="crimson" stroke="crimson" points="119.5,-508.413 116,-498.413 112.5,-508.413 119.5,-508.413"/>
</g>
<!-- kernel_thread_kernel_init -->
<g id="node5" class="node"><title>kernel_thread_kernel_init</title>
<ellipse fill="none" stroke="skyblue" cx="116" cy="-408" rx="88.0289" ry="18"/>
<text text-anchor="middle" x="116" y="-405.5" font-family="Verdana" font-size="10.00">kernel_thread(kernel_init)</text>
</g>
<!-- rest_init&#45;&gt;kernel_thread_kernel_init -->
<g id="edge4" class="edge"><title>rest_init&#45;&gt;kernel_thread_kernel_init</title>
<path fill="none" stroke="crimson" d="M116,-461.831C116,-454.131 116,-444.974 116,-436.417"/>
<polygon fill="crimson" stroke="crimson" points="119.5,-436.413 116,-426.413 112.5,-436.413 119.5,-436.413"/>
</g>
<!-- kernel_init -->
<g id="node7" class="node"><title>kernel_init</title>
<ellipse fill="none" stroke="skyblue" cx="116" cy="-336" rx="41.2443" ry="18"/>
<text text-anchor="middle" x="116" y="-333.5" font-family="Verdana" font-size="10.00">kernel_init</text>
</g>
<!-- kernel_thread_kernel_init&#45;&gt;kernel_init -->
<g id="edge6" class="edge"><title>kernel_thread_kernel_init&#45;&gt;kernel_init</title>
<path fill="none" stroke="limegreen" stroke-dasharray="5,2" d="M116,-389.831C116,-382.131 116,-372.974 116,-364.417"/>
<polygon fill="limegreen" stroke="limegreen" points="119.5,-364.413 116,-354.413 112.5,-364.413 119.5,-364.413"/>
</g>
<!-- do_basic_setup -->
<g id="node9" class="node"><title>do_basic_setup</title>
<ellipse fill="none" stroke="skyblue" cx="116" cy="-264" rx="57.8652" ry="18"/>
<text text-anchor="middle" x="116" y="-261.5" font-family="Verdana" font-size="10.00">do_basic_setup</text>
</g>
<!-- kernel_init&#45;&gt;do_basic_setup -->
<g id="edge8" class="edge"><title>kernel_init&#45;&gt;do_basic_setup</title>
<path fill="none" stroke="crimson" d="M116,-317.831C116,-310.131 116,-300.974 116,-292.417"/>
<polygon fill="crimson" stroke="crimson" points="119.5,-292.413 116,-282.413 112.5,-292.413 119.5,-292.413"/>
</g>
<!-- do_initcalls -->
<g id="node11" class="node"><title>do_initcalls</title>
<ellipse fill="none" stroke="skyblue" cx="116" cy="-192" rx="43.2043" ry="18"/>
<text text-anchor="middle" x="116" y="-189.5" font-family="Verdana" font-size="10.00">do_initcalls</text>
</g>
<!-- do_basic_setup&#45;&gt;do_initcalls -->
<g id="edge10" class="edge"><title>do_basic_setup&#45;&gt;do_initcalls</title>
<path fill="none" stroke="crimson" d="M116,-245.831C116,-238.131 116,-228.974 116,-220.417"/>
<polygon fill="crimson" stroke="crimson" points="119.5,-220.413 116,-210.413 112.5,-220.413 119.5,-220.413"/>
</g>
<!-- do_one_initcall -->
<g id="node13" class="node"><title>do_one_initcall</title>
<ellipse fill="none" stroke="skyblue" cx="116" cy="-105" rx="115.966" ry="33.234"/>
<text text-anchor="middle" x="116" y="-115.5" font-family="Verdana" font-size="10.00">do_one_initcall(*fn)</text>
<text text-anchor="middle" x="116" y="-102.5" font-family="Verdana" font-size="10.00">for (fn = __early_initcall_end;</text>
<text text-anchor="middle" x="116" y="-89.5" font-family="Verdana" font-size="10.00"> fn &lt; __initcall_end; fn++)</text>
</g>
<!-- do_initcalls&#45;&gt;do_one_initcall -->
<g id="edge12" class="edge"><title>do_initcalls&#45;&gt;do_one_initcall</title>
<path fill="none" stroke="crimson" d="M116,-173.974C116,-166.452 116,-157.361 116,-148.283"/>
<polygon fill="crimson" stroke="crimson" points="119.5,-148.124 116,-138.124 112.5,-148.124 119.5,-148.124"/>
</g>
<!-- late_resume -->
<g id="node15" class="node"><title>late_resume</title>
<ellipse fill="none" stroke="skyblue" cx="116" cy="-18" rx="104.149" ry="18"/>
<text text-anchor="middle" x="116" y="-15.5" font-family="Verdana" font-size="10.00">late_resume(software_resume)</text>
</g>
<!-- do_one_initcall&#45;&gt;late_resume -->
<g id="edge14" class="edge"><title>do_one_initcall&#45;&gt;late_resume</title>
<path fill="none" stroke="crimson" d="M116,-71.6123C116,-63.2161 116,-54.2877 116,-46.1747"/>
<polygon fill="crimson" stroke="crimson" points="119.5,-46.0925 116,-36.0925 112.5,-46.0925 119.5,-46.0925"/>
</g>
<!-- software_resume -->
<g id="node17" class="node"><title>software_resume</title>
<ellipse fill="none" stroke="skyblue" cx="467" cy="-552" rx="62.1743" ry="18"/>
<text text-anchor="middle" x="467" y="-549.5" font-family="Verdana" font-size="10.00">software_resume</text>
</g>
<!-- late_resume&#45;&gt;software_resume -->
<g id="edge16" class="edge"><title>late_resume&#45;&gt;software_resume</title>
<path fill="none" stroke="limegreen" stroke-dasharray="5,2" d="M184.215,-31.7115C206.101,-39.6847 228.015,-52.2457 241,-72 327.69,-203.884 251.412,-272.921 213,-426 205.044,-457.704 177.286,-472.714 198,-498 222.563,-527.984 324.611,-541.669 395.699,-547.66"/>
<polygon fill="limegreen" stroke="limegreen" points="395.7,-551.171 405.95,-548.489 396.264,-544.194 395.7,-551.171"/>
</g>
<!-- swsusp_check -->
<g id="node19" class="node"><title>swsusp_check</title>
<ellipse fill="none" stroke="skyblue" cx="261" cy="-480" rx="54.1717" ry="18"/>
<text text-anchor="middle" x="261" y="-477.5" font-family="Verdana" font-size="10.00">swsusp_check</text>
</g>
<!-- software_resume&#45;&gt;swsusp_check -->
<g id="edge18" class="edge"><title>software_resume&#45;&gt;swsusp_check</title>
<path fill="none" stroke="crimson" d="M427.281,-538.118C393.297,-526.24 344.306,-509.117 308.302,-496.533"/>
<polygon fill="crimson" stroke="crimson" points="309.109,-493.107 298.514,-493.112 306.799,-499.715 309.109,-493.107"/>
</g>
<!-- prepare_processes -->
<g id="node21" class="node"><title>prepare_processes</title>
<ellipse fill="none" stroke="skyblue" cx="400" cy="-480" rx="67.213" ry="18"/>
<text text-anchor="middle" x="400" y="-477.5" font-family="Verdana" font-size="10.00">prepare_processes</text>
</g>
<!-- software_resume&#45;&gt;prepare_processes -->
<g id="edge20" class="edge"><title>software_resume&#45;&gt;prepare_processes</title>
<path fill="none" stroke="crimson" d="M450.781,-534.571C442.53,-525.704 432.353,-514.768 423.282,-505.019"/>
<polygon fill="crimson" stroke="crimson" points="425.676,-502.455 416.302,-497.518 420.552,-507.223 425.676,-502.455"/>
</g>
<!-- swsusp_read -->
<g id="node23" class="node"><title>swsusp_read</title>
<ellipse fill="none" stroke="skyblue" cx="534" cy="-480" rx="49.247" ry="18"/>
<text text-anchor="middle" x="534" y="-477.5" font-family="Verdana" font-size="10.00">swsusp_read</text>
</g>
<!-- software_resume&#45;&gt;swsusp_read -->
<g id="edge22" class="edge"><title>software_resume&#45;&gt;swsusp_read</title>
<path fill="none" stroke="crimson" d="M483.219,-534.571C491.531,-525.638 501.798,-514.606 510.92,-504.803"/>
<polygon fill="crimson" stroke="crimson" points="513.68,-506.974 517.931,-497.269 508.556,-502.205 513.68,-506.974"/>
</g>
<!-- hibernation_restore -->
<g id="node25" class="node"><title>hibernation_restore</title>
<ellipse fill="none" stroke="skyblue" cx="670" cy="-480" rx="69.0609" ry="18"/>
<text text-anchor="middle" x="670" y="-477.5" font-family="Verdana" font-size="10.00">hibernation_restore</text>
</g>
<!-- software_resume&#45;&gt;hibernation_restore -->
<g id="edge24" class="edge"><title>software_resume&#45;&gt;hibernation_restore</title>
<path fill="none" stroke="crimson" d="M506.622,-537.947C538.896,-526.5 584.666,-510.266 619.554,-497.892"/>
<polygon fill="crimson" stroke="crimson" points="620.831,-501.153 629.086,-494.511 618.491,-494.556 620.831,-501.153"/>
</g>
<!-- load_image -->
<g id="node27" class="node"><title>load_image</title>
<ellipse fill="none" stroke="skyblue" cx="534" cy="-408" rx="43.2043" ry="18"/>
<text text-anchor="middle" x="534" y="-405.5" font-family="Verdana" font-size="10.00">load_image</text>
</g>
<!-- swsusp_read&#45;&gt;load_image -->
<g id="edge26" class="edge"><title>swsusp_read&#45;&gt;load_image</title>
<path fill="none" stroke="crimson" d="M534,-461.831C534,-454.131 534,-444.974 534,-436.417"/>
<polygon fill="crimson" stroke="crimson" points="537.5,-436.413 534,-426.413 530.5,-436.413 537.5,-436.413"/>
</g>
<!-- dpm_suspend_start -->
<g id="node29" class="node"><title>dpm_suspend_start</title>
<ellipse fill="none" stroke="skyblue" cx="667" cy="-408" rx="69.0609" ry="18"/>
<text text-anchor="middle" x="667" y="-405.5" font-family="Verdana" font-size="10.00">dpm_suspend_start</text>
</g>
<!-- hibernation_restore&#45;&gt;dpm_suspend_start -->
<g id="edge28" class="edge"><title>hibernation_restore&#45;&gt;dpm_suspend_start</title>
<path fill="none" stroke="crimson" d="M669.243,-461.831C668.922,-454.131 668.541,-444.974 668.184,-436.417"/>
<polygon fill="crimson" stroke="crimson" points="671.681,-436.259 667.767,-426.413 664.687,-436.55 671.681,-436.259"/>
</g>
<!-- resume_target_kernel -->
<g id="node31" class="node"><title>resume_target_kernel</title>
<ellipse fill="none" stroke="skyblue" cx="830" cy="-408" rx="75.8339" ry="18"/>
<text text-anchor="middle" x="830" y="-405.5" font-family="Verdana" font-size="10.00">resume_target_kernel</text>
</g>
<!-- hibernation_restore&#45;&gt;resume_target_kernel -->
<g id="edge30" class="edge"><title>hibernation_restore&#45;&gt;resume_target_kernel</title>
<path fill="none" stroke="crimson" d="M704.718,-464.377C728.27,-453.778 759.631,-439.666 785.083,-428.213"/>
<polygon fill="crimson" stroke="crimson" points="786.837,-431.261 794.52,-423.966 783.965,-424.878 786.837,-431.261"/>
</g>
<!-- dpm_prepare -->
<g id="node33" class="node"><title>dpm_prepare</title>
<ellipse fill="none" stroke="skyblue" cx="558" cy="-336" rx="49.247" ry="18"/>
<text text-anchor="middle" x="558" y="-333.5" font-family="Verdana" font-size="10.00">dpm_prepare</text>
</g>
<!-- dpm_suspend_start&#45;&gt;dpm_prepare -->
<g id="edge32" class="edge"><title>dpm_suspend_start&#45;&gt;dpm_prepare</title>
<path fill="none" stroke="crimson" d="M641.444,-391.119C626.26,-381.089 606.853,-368.27 590.576,-357.518"/>
<polygon fill="crimson" stroke="crimson" points="592.176,-354.38 581.903,-351.789 588.318,-360.221 592.176,-354.38"/>
</g>
<!-- dpm_suspend -->
<g id="node35" class="node"><title>dpm_suspend</title>
<ellipse fill="none" stroke="skyblue" cx="676" cy="-336" rx="51.0937" ry="18"/>
<text text-anchor="middle" x="676" y="-333.5" font-family="Verdana" font-size="10.00">dpm_suspend</text>
</g>
<!-- dpm_suspend_start&#45;&gt;dpm_suspend -->
<g id="edge34" class="edge"><title>dpm_suspend_start&#45;&gt;dpm_suspend</title>
<path fill="none" stroke="crimson" d="M669.271,-389.831C670.234,-382.131 671.378,-372.974 672.448,-364.417"/>
<polygon fill="crimson" stroke="crimson" points="675.931,-364.77 673.698,-354.413 668.985,-363.902 675.931,-364.77"/>
</g>
<!-- swsusp_arch_resume -->
<g id="node37" class="node"><title>swsusp_arch_resume</title>
<ellipse fill="none" stroke="skyblue" cx="830" cy="-336" rx="75.1016" ry="18"/>
<text text-anchor="middle" x="830" y="-333.5" font-family="Verdana" font-size="10.00">swsusp_arch_resume</text>
</g>
<!-- resume_target_kernel&#45;&gt;swsusp_arch_resume -->
<g id="edge36" class="edge"><title>resume_target_kernel&#45;&gt;swsusp_arch_resume</title>
<path fill="none" stroke="crimson" d="M830,-389.831C830,-382.131 830,-372.974 830,-364.417"/>
<polygon fill="crimson" stroke="crimson" points="833.5,-364.413 830,-354.413 826.5,-364.413 833.5,-364.413"/>
</g>
<!-- image_hibernation -->
<g id="node39" class="node"><title>image_hibernation</title>
<ellipse fill="none" stroke="skyblue" cx="2172" cy="-552" rx="64.7541" ry="18"/>
<text text-anchor="middle" x="2172" y="-549.5" font-family="Verdana" font-size="10.00">image_hibernation</text>
</g>
<!-- swsusp_arch_resume&#45;&gt;image_hibernation -->
<g id="edge38" class="edge"><title>swsusp_arch_resume&#45;&gt;image_hibernation</title>
<path fill="none" stroke="limegreen" stroke-dasharray="5,2" d="M859.263,-352.681C876.101,-362.741 897.351,-376.241 915,-390 933.348,-404.304 932.082,-415.817 953,-426 1156.46,-525.042 1863.42,-546.486 2096.68,-550.906"/>
<polygon fill="limegreen" stroke="limegreen" points="2096.7,-554.407 2106.76,-551.092 2096.83,-547.408 2096.7,-554.407"/>
</g>
<!-- create_image -->
<g id="node41" class="node"><title>create_image</title>
<ellipse fill="none" stroke="skyblue" cx="1497" cy="-480" rx="51.0937" ry="18"/>
<text text-anchor="middle" x="1497" y="-477.5" font-family="Verdana" font-size="10.00">create_image</text>
</g>
<!-- image_hibernation&#45;&gt;create_image -->
<g id="edge40" class="edge"><title>image_hibernation&#45;&gt;create_image</title>
<path fill="none" stroke="limegreen" stroke-dasharray="5,2" d="M2111.21,-545.515C1982.32,-531.767 1683.04,-499.844 1555.87,-486.279"/>
<polygon fill="limegreen" stroke="limegreen" points="1556.24,-482.799 1545.92,-485.218 1555.49,-489.759 1556.24,-482.799"/>
</g>
<!-- hibernation_snapshot -->
<g id="node43" class="node"><title>hibernation_snapshot</title>
<ellipse fill="none" stroke="skyblue" cx="2172" cy="-480" rx="75.1016" ry="18"/>
<text text-anchor="middle" x="2172" y="-477.5" font-family="Verdana" font-size="10.00">hibernation_snapshot</text>
</g>
<!-- image_hibernation&#45;&gt;hibernation_snapshot -->
<g id="edge42" class="edge"><title>image_hibernation&#45;&gt;hibernation_snapshot</title>
<path fill="none" stroke="limegreen" stroke-dasharray="5,2" d="M2172,-533.831C2172,-526.131 2172,-516.974 2172,-508.417"/>
<polygon fill="limegreen" stroke="limegreen" points="2175.5,-508.413 2172,-498.413 2168.5,-508.413 2175.5,-508.413"/>
</g>
<!-- hibernation -->
<g id="node45" class="node"><title>hibernation</title>
<ellipse fill="none" stroke="skyblue" cx="2833" cy="-480" rx="43.2043" ry="18"/>
<text text-anchor="middle" x="2833" y="-477.5" font-family="Verdana" font-size="10.00">hibernation</text>
</g>
<!-- image_hibernation&#45;&gt;hibernation -->
<g id="edge44" class="edge"><title>image_hibernation&#45;&gt;hibernation</title>
<path fill="none" stroke="limegreen" stroke-dasharray="5,2" d="M2232.71,-545.388C2361.56,-531.352 2660.46,-498.794 2781.11,-485.652"/>
<polygon fill="limegreen" stroke="limegreen" points="2781.63,-489.116 2791.2,-484.553 2780.88,-482.157 2781.63,-489.116"/>
</g>
<!-- restore_processor_state -->
<g id="node47" class="node"><title>restore_processor_state</title>
<ellipse fill="none" stroke="skyblue" cx="1047" cy="-408" rx="84.951" ry="18"/>
<text text-anchor="middle" x="1047" y="-405.5" font-family="Verdana" font-size="10.00">restore_processor_state</text>
</g>
<!-- create_image&#45;&gt;restore_processor_state -->
<g id="edge46" class="edge"><title>create_image&#45;&gt;restore_processor_state</title>
<path fill="none" stroke="crimson" d="M1449.4,-473.376C1381.03,-463.728 1251.13,-444.89 1141,-426 1133.96,-424.793 1126.64,-423.484 1119.33,-422.141"/>
<polygon fill="crimson" stroke="crimson" points="1119.85,-418.68 1109.38,-420.296 1118.58,-425.562 1119.85,-418.68"/>
</g>
<!-- syscore_resume -->
<g id="node49" class="node"><title>syscore_resume</title>
<ellipse fill="none" stroke="skyblue" cx="1209" cy="-408" rx="59.0964" ry="18"/>
<text text-anchor="middle" x="1209" y="-405.5" font-family="Verdana" font-size="10.00">syscore_resume</text>
</g>
<!-- create_image&#45;&gt;syscore_resume -->
<g id="edge48" class="edge"><title>create_image&#45;&gt;syscore_resume</title>
<path fill="none" stroke="crimson" d="M1454.77,-469.874C1410.44,-459.188 1338.74,-441.746 1277,-426 1272.62,-424.883 1268.09,-423.713 1263.54,-422.529"/>
<polygon fill="crimson" stroke="crimson" points="1264.16,-419.073 1253.6,-419.928 1262.38,-425.845 1264.16,-419.073"/>
</g>
<!-- local_irq_enable -->
<g id="node51" class="node"><title>local_irq_enable</title>
<ellipse fill="none" stroke="skyblue" cx="1344" cy="-408" rx="57.9809" ry="18"/>
<text text-anchor="middle" x="1344" y="-405.5" font-family="Verdana" font-size="10.00">local_irq_enable</text>
</g>
<!-- create_image&#45;&gt;local_irq_enable -->
<g id="edge50" class="edge"><title>create_image&#45;&gt;local_irq_enable</title>
<path fill="none" stroke="crimson" d="M1466.04,-465.43C1442.71,-454.451 1410.49,-439.291 1385.02,-427.303"/>
<polygon fill="crimson" stroke="crimson" points="1386.51,-424.135 1375.97,-423.044 1383.53,-430.469 1386.51,-424.135"/>
</g>
<!-- enable_nonboot_cpus -->
<g id="node53" class="node"><title>enable_nonboot_cpus</title>
<ellipse fill="none" stroke="skyblue" cx="1497" cy="-408" rx="76.9484" ry="18"/>
<text text-anchor="middle" x="1497" y="-405.5" font-family="Verdana" font-size="10.00">enable_nonboot_cpus</text>
</g>
<!-- create_image&#45;&gt;enable_nonboot_cpus -->
<g id="edge52" class="edge"><title>create_image&#45;&gt;enable_nonboot_cpus</title>
<path fill="none" stroke="crimson" d="M1497,-461.831C1497,-454.131 1497,-444.974 1497,-436.417"/>
<polygon fill="crimson" stroke="crimson" points="1500.5,-436.413 1497,-426.413 1493.5,-436.413 1500.5,-436.413"/>
</g>
<!-- platform_finish -->
<g id="node55" class="node"><title>platform_finish</title>
<ellipse fill="none" stroke="skyblue" cx="1647" cy="-408" rx="54.7872" ry="18"/>
<text text-anchor="middle" x="1647" y="-405.5" font-family="Verdana" font-size="10.00">platform_finish</text>
</g>
<!-- create_image&#45;&gt;platform_finish -->
<g id="edge54" class="edge"><title>create_image&#45;&gt;platform_finish</title>
<path fill="none" stroke="crimson" d="M1527.35,-465.43C1550.2,-454.462 1581.74,-439.323 1606.7,-427.342"/>
<polygon fill="crimson" stroke="crimson" points="1608.42,-430.403 1615.92,-422.92 1605.39,-424.092 1608.42,-430.403"/>
</g>
<!-- dpm_resume_noirq -->
<g id="node57" class="node"><title>dpm_resume_noirq</title>
<ellipse fill="none" stroke="skyblue" cx="1786" cy="-408" rx="65.9835" ry="18"/>
<text text-anchor="middle" x="1786" y="-405.5" font-family="Verdana" font-size="10.00">dpm_resume_noirq</text>
</g>
<!-- create_image&#45;&gt;dpm_resume_noirq -->
<g id="edge56" class="edge"><title>create_image&#45;&gt;dpm_resume_noirq</title>
<path fill="none" stroke="crimson" d="M1538.71,-469.607C1588.26,-457.264 1671.24,-436.592 1727.26,-422.634"/>
<polygon fill="crimson" stroke="crimson" points="1728.19,-426.01 1737.05,-420.196 1726.5,-419.217 1728.19,-426.01"/>
</g>
<!-- dpm_resume -->
<g id="node59" class="node"><title>dpm_resume</title>
<ellipse fill="none" stroke="skyblue" cx="1918" cy="-408" rx="48.0158" ry="18"/>
<text text-anchor="middle" x="1918" y="-405.5" font-family="Verdana" font-size="10.00">dpm_resume</text>
</g>
<!-- hibernation_snapshot&#45;&gt;dpm_resume -->
<g id="edge58" class="edge"><title>hibernation_snapshot&#45;&gt;dpm_resume</title>
<path fill="none" stroke="crimson" d="M2121.24,-466.659C2081.36,-456.041 2024.49,-440.592 1975,-426 1971.46,-424.955 1967.8,-423.853 1964.12,-422.73"/>
<polygon fill="crimson" stroke="crimson" points="1965.01,-419.342 1954.43,-419.731 1962.95,-426.03 1965.01,-419.342"/>
</g>
<!-- resume_console -->
<g id="node61" class="node"><title>resume_console</title>
<ellipse fill="none" stroke="skyblue" cx="2042" cy="-408" rx="57.9809" ry="18"/>
<text text-anchor="middle" x="2042" y="-405.5" font-family="Verdana" font-size="10.00">resume_console</text>
</g>
<!-- hibernation_snapshot&#45;&gt;resume_console -->
<g id="edge60" class="edge"><title>hibernation_snapshot&#45;&gt;resume_console</title>
<path fill="none" stroke="crimson" d="M2142.18,-463.482C2123.58,-453.185 2099.5,-439.845 2079.6,-428.826"/>
<polygon fill="crimson" stroke="crimson" points="2081.24,-425.73 2070.79,-423.946 2077.84,-431.853 2081.24,-425.73"/>
</g>
<!-- dpm_complete -->
<g id="node63" class="node"><title>dpm_complete</title>
<ellipse fill="none" stroke="skyblue" cx="2172" cy="-408" rx="54.1717" ry="18"/>
<text text-anchor="middle" x="2172" y="-405.5" font-family="Verdana" font-size="10.00">dpm_complete</text>
</g>
<!-- hibernation_snapshot&#45;&gt;dpm_complete -->
<g id="edge62" class="edge"><title>hibernation_snapshot&#45;&gt;dpm_complete</title>
<path fill="none" stroke="crimson" d="M2172,-461.831C2172,-454.131 2172,-444.974 2172,-436.417"/>
<polygon fill="crimson" stroke="crimson" points="2175.5,-436.413 2172,-426.413 2168.5,-436.413 2175.5,-436.413"/>
</g>
<!-- platform_end -->
<g id="node65" class="node"><title>platform_end</title>
<ellipse fill="none" stroke="skyblue" cx="2294" cy="-408" rx="49.8625" ry="18"/>
<text text-anchor="middle" x="2294" y="-405.5" font-family="Verdana" font-size="10.00">platform_end</text>
</g>
<!-- hibernation_snapshot&#45;&gt;platform_end -->
<g id="edge64" class="edge"><title>hibernation_snapshot&#45;&gt;platform_end</title>
<path fill="none" stroke="crimson" d="M2200.3,-463.301C2217.84,-452.948 2240.5,-439.571 2259.15,-428.567"/>
<polygon fill="crimson" stroke="crimson" points="2261.11,-431.476 2267.94,-423.38 2257.55,-425.448 2261.11,-431.476"/>
</g>
<!-- platform_recover -->
<g id="node67" class="node"><title>platform_recover</title>
<ellipse fill="none" stroke="skyblue" cx="2424" cy="-408" rx="62.1743" ry="18"/>
<text text-anchor="middle" x="2424" y="-405.5" font-family="Verdana" font-size="10.00">platform_recover</text>
</g>
<!-- hibernation_snapshot&#45;&gt;platform_recover -->
<g id="edge66" class="edge"><title>hibernation_snapshot&#45;&gt;platform_recover</title>
<path fill="none" stroke="crimson" d="M2220.29,-466.203C2263.07,-453.979 2325.47,-436.152 2369.91,-423.453"/>
<polygon fill="crimson" stroke="crimson" points="2371.02,-426.777 2379.67,-420.665 2369.1,-420.047 2371.02,-426.777"/>
</g>
<!-- thaw_processes -->
<g id="node69" class="node"><title>thaw_processes</title>
<ellipse fill="none" stroke="skyblue" cx="2563" cy="-408" rx="59.2102" ry="18"/>
<text text-anchor="middle" x="2563" y="-405.5" font-family="Verdana" font-size="10.00">thaw_processes</text>
</g>
<!-- hibernation&#45;&gt;thaw_processes -->
<g id="edge68" class="edge"><title>hibernation&#45;&gt;thaw_processes</title>
<path fill="none" stroke="crimson" d="M2796.59,-470.29C2750.61,-458.029 2671.09,-436.823 2617.77,-422.605"/>
<polygon fill="crimson" stroke="crimson" points="2618.37,-419.142 2607.8,-419.947 2616.56,-425.906 2618.37,-419.142"/>
</g>
<!-- free_basic_memory_bitmaps -->
<g id="node71" class="node"><title>free_basic_memory_bitmaps</title>
<ellipse fill="none" stroke="skyblue" cx="2736" cy="-408" rx="96.0316" ry="18"/>
<text text-anchor="middle" x="2736" y="-405.5" font-family="Verdana" font-size="10.00">free_basic_memory_bitmaps</text>
</g>
<!-- hibernation&#45;&gt;free_basic_memory_bitmaps -->
<g id="edge70" class="edge"><title>hibernation&#45;&gt;free_basic_memory_bitmaps</title>
<path fill="none" stroke="crimson" d="M2811.47,-464.021C2798.69,-454.532 2782.24,-442.321 2767.96,-431.723"/>
<polygon fill="crimson" stroke="crimson" points="2769.97,-428.852 2759.85,-425.703 2765.79,-434.473 2769.97,-428.852"/>
</g>
<!-- usermodehelper_enable -->
<g id="node73" class="node"><title>usermodehelper_enable</title>
<ellipse fill="none" stroke="skyblue" cx="2931" cy="-408" rx="80.759" ry="18"/>
<text text-anchor="middle" x="2931" y="-405.5" font-family="Verdana" font-size="10.00">usermodehelper_enable</text>
</g>
<!-- hibernation&#45;&gt;usermodehelper_enable -->
<g id="edge72" class="edge"><title>hibernation&#45;&gt;usermodehelper_enable</title>
<path fill="none" stroke="crimson" d="M2854.75,-464.021C2867.76,-454.462 2884.53,-442.143 2899.03,-431.491"/>
<polygon fill="crimson" stroke="crimson" points="2901.27,-434.188 2907.25,-425.446 2897.12,-428.547 2901.27,-434.188"/>
</g>
<!-- pm_notifier_call_chain -->
<g id="node75" class="node"><title>pm_notifier_call_chain</title>
<ellipse fill="none" stroke="skyblue" cx="3107" cy="-408" rx="77.0636" ry="18"/>
<text text-anchor="middle" x="3107" y="-405.5" font-family="Verdana" font-size="10.00">pm_notifier_call_chain</text>
</g>
<!-- hibernation&#45;&gt;pm_notifier_call_chain -->
<g id="edge74" class="edge"><title>hibernation&#45;&gt;pm_notifier_call_chain</title>
<path fill="none" stroke="crimson" d="M2869.67,-470.364C2914.7,-458.532 2991.73,-438.289 3045.79,-424.083"/>
<polygon fill="crimson" stroke="crimson" points="3046.83,-427.431 3055.61,-421.504 3045.05,-420.661 3046.83,-427.431"/>
</g>
<!-- pm_restore_console -->
<g id="node77" class="node"><title>pm_restore_console</title>
<ellipse fill="none" stroke="skyblue" cx="3273" cy="-408" rx="70.9087" ry="18"/>
<text text-anchor="middle" x="3273" y="-405.5" font-family="Verdana" font-size="10.00">pm_restore_console</text>
</g>
<!-- hibernation&#45;&gt;pm_restore_console -->
<g id="edge76" class="edge"><title>hibernation&#45;&gt;pm_restore_console</title>
<path fill="none" stroke="crimson" d="M2874.19,-474.809C2941.25,-466.137 3078.08,-447.519 3193,-426 3198.74,-424.926 3204.69,-423.734 3210.64,-422.49"/>
<polygon fill="crimson" stroke="crimson" points="3211.56,-425.871 3220.61,-420.358 3210.1,-419.025 3211.56,-425.871"/>
</g>
</g>
</svg>
