<?xml version="1.0" encoding="UTF-8" standalone="no"?>
<!DOCTYPE svg PUBLIC "-//W3C//DTD SVG 1.1//EN"
 "http://www.w3.org/Graphics/SVG/1.1/DTD/svg11.dtd">
<!-- Generated by graphviz version 2.26.3 (20100126.1600)
 -->
<!-- Title: mm_dot Pages: 1 -->
<svg width="736pt" height="260pt"
 viewBox="0.00 0.00 736.00 260.00" xmlns="http://www.w3.org/2000/svg" xmlns:xlink="http://www.w3.org/1999/xlink">
<g id="graph1" class="graph" transform="scale(1 1) rotate(0) translate(4 256)">
<title>mm_dot</title>
<polygon fill="white" stroke="white" points="-4,5 -4,-256 733,-256 733,5 -4,5"/>
<!-- start_kernel -->
<g id="node1" class="node"><title>start_kernel</title>
<ellipse fill="none" stroke="skyblue" cx="484" cy="-234" rx="46.7846" ry="18"/>
<text text-anchor="middle" x="484" y="-231.5" font-family="Verdana" font-size="10.00">start_kernel</text>
</g>
<!-- setup_arch -->
<g id="node3" class="node"><title>setup_arch</title>
<ellipse fill="none" stroke="skyblue" cx="421" cy="-162" rx="43.8243" ry="18"/>
<text text-anchor="middle" x="421" y="-159.5" font-family="Verdana" font-size="10.00">setup_arch</text>
</g>
<!-- start_kernel&#45;&gt;setup_arch -->
<g id="edge2" class="edge"><title>start_kernel&#45;&gt;setup_arch</title>
<path fill="none" stroke="crimson" d="M468.749,-216.571C460.934,-207.638 451.28,-196.606 442.703,-186.803"/>
<polygon fill="crimson" stroke="crimson" points="445.329,-184.49 436.11,-179.269 440.061,-189.099 445.329,-184.49"/>
</g>
<!-- build_all_zonelists -->
<g id="node5" class="node"><title>build_all_zonelists</title>
<ellipse fill="none" stroke="skyblue" cx="547" cy="-162" rx="64.021" ry="18"/>
<text text-anchor="middle" x="547" y="-159.5" font-family="Verdana" font-size="10.00">build_all_zonelists</text>
</g>
<!-- start_kernel&#45;&gt;build_all_zonelists -->
<g id="edge4" class="edge"><title>start_kernel&#45;&gt;build_all_zonelists</title>
<path fill="none" stroke="crimson" d="M499.251,-216.571C506.932,-207.792 516.389,-196.984 524.854,-187.309"/>
<polygon fill="crimson" stroke="crimson" points="527.72,-189.349 531.672,-179.518 522.452,-184.739 527.72,-189.349"/>
</g>
<!-- paging_init -->
<g id="node7" class="node"><title>paging_init</title>
<ellipse fill="none" stroke="skyblue" cx="421" cy="-90" rx="43.0911" ry="18"/>
<text text-anchor="middle" x="421" y="-87.5" font-family="Verdana" font-size="10.00">paging_init</text>
</g>
<!-- setup_arch&#45;&gt;paging_init -->
<g id="edge6" class="edge"><title>setup_arch&#45;&gt;paging_init</title>
<path fill="none" stroke="crimson" d="M421,-143.831C421,-136.131 421,-126.974 421,-118.417"/>
<polygon fill="crimson" stroke="crimson" points="424.5,-118.413 421,-108.413 417.5,-118.413 424.5,-118.413"/>
</g>
<!-- build_mem_type_table -->
<g id="node9" class="node"><title>build_mem_type_table</title>
<ellipse fill="none" stroke="skyblue" cx="78" cy="-18" rx="78.1796" ry="18"/>
<text text-anchor="middle" x="78" y="-15.5" font-family="Verdana" font-size="10.00">build_mem_type_table</text>
</g>
<!-- paging_init&#45;&gt;build_mem_type_table -->
<g id="edge8" class="edge"><title>paging_init&#45;&gt;build_mem_type_table</title>
<path fill="none" stroke="crimson" d="M382.32,-81.8806C325.043,-69.8574 216.838,-47.1437 146.094,-32.2937"/>
<polygon fill="crimson" stroke="crimson" points="146.444,-28.791 135.938,-30.162 145.006,-35.6417 146.444,-28.791"/>
</g>
<!-- sanity_check_meminfo -->
<g id="node11" class="node"><title>sanity_check_meminfo</title>
<ellipse fill="none" stroke="skyblue" cx="253" cy="-18" rx="78.7951" ry="18"/>
<text text-anchor="middle" x="253" y="-15.5" font-family="Verdana" font-size="10.00">sanity_check_meminfo</text>
</g>
<!-- paging_init&#45;&gt;sanity_check_meminfo -->
<g id="edge10" class="edge"><title>paging_init&#45;&gt;sanity_check_meminfo</title>
<path fill="none" stroke="crimson" d="M390.576,-76.9613C365.26,-66.1116 328.801,-50.4863 299.776,-38.0467"/>
<polygon fill="crimson" stroke="crimson" points="300.814,-34.6839 290.244,-33.9617 298.057,-41.1179 300.814,-34.6839"/>
</g>
<!-- prepare_page_table -->
<g id="node13" class="node"><title>prepare_page_table</title>
<ellipse fill="none" stroke="skyblue" cx="421" cy="-18" rx="70.7925" ry="18"/>
<text text-anchor="middle" x="421" y="-15.5" font-family="Verdana" font-size="10.00">prepare_page_table</text>
</g>
<!-- paging_init&#45;&gt;prepare_page_table -->
<g id="edge12" class="edge"><title>paging_init&#45;&gt;prepare_page_table</title>
<path fill="none" stroke="crimson" d="M421,-71.8314C421,-64.131 421,-54.9743 421,-46.4166"/>
<polygon fill="crimson" stroke="crimson" points="424.5,-46.4132 421,-36.4133 417.5,-46.4133 424.5,-46.4132"/>
</g>
<!-- bootm_init -->
<g id="node15" class="node"><title>bootm_init</title>
<ellipse fill="none" stroke="skyblue" cx="552" cy="-18" rx="41.8599" ry="18"/>
<text text-anchor="middle" x="552" y="-15.5" font-family="Verdana" font-size="10.00">bootm_init</text>
</g>
<!-- paging_init&#45;&gt;bootm_init -->
<g id="edge14" class="edge"><title>paging_init&#45;&gt;bootm_init</title>
<path fill="none" stroke="crimson" d="M447.195,-75.6028C467.187,-64.6149 494.931,-49.3662 516.852,-37.3181"/>
<polygon fill="crimson" stroke="crimson" points="518.773,-40.2562 525.85,-32.3723 515.401,-34.1217 518.773,-40.2562"/>
</g>
<!-- devicemaps_init -->
<g id="node17" class="node"><title>devicemaps_init</title>
<ellipse fill="none" stroke="skyblue" cx="670" cy="-18" rx="57.9809" ry="18"/>
<text text-anchor="middle" x="670" y="-15.5" font-family="Verdana" font-size="10.00">devicemaps_init</text>
</g>
<!-- paging_init&#45;&gt;devicemaps_init -->
<g id="edge16" class="edge"><title>paging_init&#45;&gt;devicemaps_init</title>
<path fill="none" stroke="crimson" d="M456.411,-79.7606C498.491,-67.5928 569.086,-47.1799 617.519,-33.1752"/>
<polygon fill="crimson" stroke="crimson" points="618.563,-36.5169 627.197,-30.3768 616.618,-29.7923 618.563,-36.5169"/>
</g>
</g>
</svg>
