<?xml version="1.0" encoding="UTF-8" standalone="no"?>
<!DOCTYPE svg PUBLIC "-//W3C//DTD SVG 1.1//EN"
 "http://www.w3.org/Graphics/SVG/1.1/DTD/svg11.dtd">
<!-- Generated by graphviz version 2.26.3 (20100126.1600)
 -->
<!-- Title: v4l2_dot Pages: 1 -->
<svg width="1030pt" height="260pt"
 viewBox="0.00 0.00 1030.00 260.00" xmlns="http://www.w3.org/2000/svg" xmlns:xlink="http://www.w3.org/1999/xlink">
<g id="graph1" class="graph" transform="scale(1 1) rotate(0) translate(4 256)">
<title>v4l2_dot</title>
<polygon fill="white" stroke="white" points="-4,5 -4,-256 1027,-256 1027,5 -4,5"/>
<!-- struct -->
<g id="node1" class="node"><title>struct</title>
<ellipse fill="none" stroke="skyblue" cx="29" cy="-234" rx="28.9326" ry="18"/>
<text text-anchor="middle" x="29" y="-231.5" font-family="Verdana" font-size="10.00">struct</text>
</g>
<!-- bootmem_dat -->
<g id="node2" class="node"><title>bootmem_dat</title>
<ellipse fill="none" stroke="skyblue" cx="127" cy="-234" rx="51.2073" ry="18"/>
<text text-anchor="middle" x="127" y="-231.5" font-family="Verdana" font-size="10.00">bootmem_dat</text>
</g>
<!-- start_kernel -->
<g id="node3" class="node"><title>start_kernel</title>
<ellipse fill="none" stroke="skyblue" cx="243" cy="-234" rx="46.7846" ry="18"/>
<text text-anchor="middle" x="243" y="-231.5" font-family="Verdana" font-size="10.00">start_kernel</text>
</g>
<!-- setup_arch -->
<g id="node5" class="node"><title>setup_arch</title>
<ellipse fill="none" stroke="skyblue" cx="243" cy="-162" rx="43.8243" ry="18"/>
<text text-anchor="middle" x="243" y="-159.5" font-family="Verdana" font-size="10.00">setup_arch</text>
</g>
<!-- start_kernel&#45;&gt;setup_arch -->
<g id="edge2" class="edge"><title>start_kernel&#45;&gt;setup_arch</title>
<path fill="none" stroke="crimson" d="M243,-215.831C243,-208.131 243,-198.974 243,-190.417"/>
<polygon fill="crimson" stroke="crimson" points="246.5,-190.413 243,-180.413 239.5,-190.413 246.5,-190.413"/>
</g>
<!-- paging_init -->
<g id="node6" class="node"><title>paging_init</title>
<ellipse fill="none" stroke="skyblue" cx="243" cy="-90" rx="43.0911" ry="18"/>
<text text-anchor="middle" x="243" y="-87.5" font-family="Verdana" font-size="10.00">paging_init</text>
</g>
<!-- setup_arch&#45;&gt;paging_init -->
<g id="edge3" class="edge"><title>setup_arch&#45;&gt;paging_init</title>
<path fill="none" stroke="crimson" d="M243,-143.831C243,-136.131 243,-126.974 243,-118.417"/>
<polygon fill="crimson" stroke="crimson" points="246.5,-118.413 243,-108.413 239.5,-118.413 246.5,-118.413"/>
</g>
<!-- build_mem_type_table -->
<g id="node7" class="node"><title>build_mem_type_table</title>
<ellipse fill="none" stroke="skyblue" cx="243" cy="-18" rx="78.1796" ry="18"/>
<text text-anchor="middle" x="243" y="-15.5" font-family="Verdana" font-size="10.00">build_mem_type_table</text>
</g>
<!-- paging_init&#45;&gt;build_mem_type_table -->
<g id="edge4" class="edge"><title>paging_init&#45;&gt;build_mem_type_table</title>
<path fill="none" stroke="crimson" d="M243,-71.8314C243,-64.131 243,-54.9743 243,-46.4166"/>
<polygon fill="crimson" stroke="crimson" points="246.5,-46.4132 243,-36.4133 239.5,-46.4133 246.5,-46.4132"/>
</g>
<!-- sanity_check_meminfo -->
<g id="node8" class="node"><title>sanity_check_meminfo</title>
<ellipse fill="none" stroke="skyblue" cx="387" cy="-234" rx="78.7951" ry="18"/>
<text text-anchor="middle" x="387" y="-231.5" font-family="Verdana" font-size="10.00">sanity_check_meminfo</text>
</g>
<!-- prepare_page_table -->
<g id="node9" class="node"><title>prepare_page_table</title>
<ellipse fill="none" stroke="skyblue" cx="555" cy="-234" rx="70.7925" ry="18"/>
<text text-anchor="middle" x="555" y="-231.5" font-family="Verdana" font-size="10.00">prepare_page_table</text>
</g>
<!-- bootm_init -->
<g id="node10" class="node"><title>bootm_init</title>
<ellipse fill="none" stroke="skyblue" cx="686" cy="-234" rx="41.8599" ry="18"/>
<text text-anchor="middle" x="686" y="-231.5" font-family="Verdana" font-size="10.00">bootm_init</text>
</g>
<!-- devicemaps_init -->
<g id="node11" class="node"><title>devicemaps_init</title>
<ellipse fill="none" stroke="skyblue" cx="804" cy="-234" rx="57.9809" ry="18"/>
<text text-anchor="middle" x="804" y="-231.5" font-family="Verdana" font-size="10.00">devicemaps_init</text>
</g>
<!-- meminfo -->
<g id="node12" class="node"><title>meminfo</title>
<ellipse fill="none" stroke="skyblue" cx="915" cy="-234" rx="35.0885" ry="18"/>
<text text-anchor="middle" x="915" y="-231.5" font-family="Verdana" font-size="10.00">meminfo</text>
</g>
<!-- nr -->
<g id="node13" class="node"><title>nr</title>
<ellipse fill="none" stroke="skyblue" cx="995" cy="-234" rx="27" ry="18"/>
<text text-anchor="middle" x="995" y="-231.5" font-family="Verdana" font-size="10.00">nr</text>
</g>
</g>
</svg>
