<?xml version="1.0" encoding="UTF-8" standalone="no"?>
<!DOCTYPE svg PUBLIC "-//W3C//DTD SVG 1.1//EN"
 "http://www.w3.org/Graphics/SVG/1.1/DTD/svg11.dtd">
<!-- Generated by graphviz version 2.26.3 (20100126.1600)
 -->
<!-- Title: fb_dot Pages: 1 -->
<svg width="4067pt" height="636pt"
 viewBox="0.00 0.00 4067.00 636.00" xmlns="http://www.w3.org/2000/svg" xmlns:xlink="http://www.w3.org/1999/xlink">
<g id="graph1" class="graph" transform="scale(1 1) rotate(0) translate(4 632)">
<title>fb_dot</title>
<polygon fill="white" stroke="white" points="-4,5 -4,-632 4064,-632 4064,5 -4,5"/>
<!-- fb_info -->
<g id="node1" class="node"><title>fb_info</title>
<polygon fill="none" stroke="skyblue" points="782.5,-360.5 782.5,-627.5 951.5,-627.5 951.5,-360.5 782.5,-360.5"/>
<text text-anchor="middle" x="867" y="-614.5" font-family="Verdana" font-size="10.00">struct fb_info</text>
<polyline fill="none" stroke="skyblue" points="782.5,-606.5 951.5,-606.5 "/>
<text text-anchor="middle" x="867" y="-593.5" font-family="Verdana" font-size="10.00">..</text>
<polyline fill="none" stroke="skyblue" points="782.5,-585.5 951.5,-585.5 "/>
<text text-anchor="start" x="790.5" y="-572.5" font-family="Verdana" font-size="10.00">struct fb_ops *fbops</text>
<polyline fill="none" stroke="skyblue" points="782.5,-564.5 951.5,-564.5 "/>
<text text-anchor="start" x="790.5" y="-551.5" font-family="Verdana" font-size="10.00">char __iomem *screen_base</text>
<polyline fill="none" stroke="skyblue" points="782.5,-543.5 951.5,-543.5 "/>
<text text-anchor="middle" x="867" y="-530.5" font-family="Verdana" font-size="10.00">..</text>
<polyline fill="none" stroke="skyblue" points="782.5,-522.5 951.5,-522.5 "/>
<text text-anchor="start" x="790.5" y="-509.5" font-family="Verdana" font-size="10.00">struct fb_var_screeninfo var</text>
<text text-anchor="start" x="790.5" y="-496.5" font-family="Verdana" font-size="10.00">__u32 xres, yres</text>
<text text-anchor="start" x="790.5" y="-483.5" font-family="Verdana" font-size="10.00">__u32 xres_virtual yres_virtual</text>
<text text-anchor="start" x="790.5" y="-470.5" font-family="Verdana" font-size="10.00">__u32 bits_per_pixel</text>
<polyline fill="none" stroke="skyblue" points="782.5,-462.5 951.5,-462.5 "/>
<text text-anchor="middle" x="867" y="-449.5" font-family="Verdana" font-size="10.00">..</text>
<polyline fill="none" stroke="skyblue" points="782.5,-441.5 951.5,-441.5 "/>
<text text-anchor="start" x="790.5" y="-428.5" font-family="Verdana" font-size="10.00">struct fb_fix_screeninfo fix</text>
<text text-anchor="start" x="790.5" y="-415.5" font-family="Verdana" font-size="10.00">unsigned long smem_start</text>
<text text-anchor="start" x="790.5" y="-402.5" font-family="Verdana" font-size="10.00">__u32 smem_len</text>
<text text-anchor="start" x="790.5" y="-389.5" font-family="Verdana" font-size="10.00">__u32 line_length</text>
<polyline fill="none" stroke="skyblue" points="782.5,-381.5 951.5,-381.5 "/>
<text text-anchor="middle" x="867" y="-368.5" font-family="Verdana" font-size="10.00">..</text>
</g>
<!-- mxcfb_probe -->
<g id="node2" class="node"><title>mxcfb_probe</title>
<ellipse fill="none" stroke="skyblue" cx="1018" cy="-494" rx="49.247" ry="18"/>
<text text-anchor="middle" x="1018" y="-491.5" font-family="Verdana" font-size="10.00">mxcfb_probe</text>
</g>
<!-- fbi = mxcfb_init_fbinfo(&amp;pdev&#45;&gt;dev, &amp;mxcfb_ops) -->
<g id="node4" class="node"><title>fbi = mxcfb_init_fbinfo(&amp;pdev&#45;&gt;dev, &amp;mxcfb_ops)</title>
<ellipse fill="none" stroke="skyblue" cx="162" cy="-306" rx="161.899" ry="18"/>
<text text-anchor="middle" x="162" y="-303.5" font-family="Verdana" font-size="10.00">fbi = mxcfb_init_fbinfo(&amp;pdev&#45;&gt;dev, &amp;mxcfb_ops)</text>
</g>
<!-- mxcfb_probe&#45;&gt;fbi = mxcfb_init_fbinfo(&amp;pdev&#45;&gt;dev, &amp;mxcfb_ops) -->
<g id="edge2" class="edge"><title>mxcfb_probe&#45;&gt;fbi = mxcfb_init_fbinfo(&amp;pdev&#45;&gt;dev, &amp;mxcfb_ops)</title>
<path fill="none" stroke="crimson" d="M1016.1,-475.96C1011.9,-446.136 998.859,-387.149 960,-360 902.797,-320.034 402.552,-329.654 333,-324 317.99,-322.78 302.255,-321.341 286.663,-319.818"/>
<polygon fill="crimson" stroke="crimson" points="286.744,-316.309 276.447,-318.807 286.054,-323.275 286.744,-316.309"/>
</g>
<!-- mxcfbi = (struct mxcfb_info *)fbi&#45;&gt;par -->
<g id="node6" class="node"><title>mxcfbi = (struct mxcfb_info *)fbi&#45;&gt;par</title>
<ellipse fill="none" stroke="skyblue" cx="470" cy="-306" rx="128.157" ry="18"/>
<text text-anchor="middle" x="470" y="-303.5" font-family="Verdana" font-size="10.00">mxcfbi = (struct mxcfb_info *)fbi&#45;&gt;par</text>
</g>
<!-- mxcfb_probe&#45;&gt;mxcfbi = (struct mxcfb_info *)fbi&#45;&gt;par -->
<g id="edge4" class="edge"><title>mxcfb_probe&#45;&gt;mxcfbi = (struct mxcfb_info *)fbi&#45;&gt;par</title>
<path fill="none" stroke="crimson" d="M1015.9,-475.67C1011.42,-445.97 998.044,-387.853 960,-360 896.378,-313.42 685.32,-333.137 607,-324 595.85,-322.699 584.2,-321.273 572.603,-319.81"/>
<polygon fill="crimson" stroke="crimson" points="572.802,-316.307 562.44,-318.517 571.919,-323.251 572.802,-316.307"/>
</g>
<!-- mxcfbi&#45;&gt;fbi = fbi -->
<g id="node8" class="node"><title>mxcfbi&#45;&gt;fbi = fbi</title>
<ellipse fill="none" stroke="skyblue" cx="676" cy="-306" rx="59.829" ry="18"/>
<text text-anchor="middle" x="676" y="-303.5" font-family="Verdana" font-size="10.00">mxcfbi&#45;&gt;fbi = fbi</text>
</g>
<!-- mxcfb_probe&#45;&gt;mxcfbi&#45;&gt;fbi = fbi -->
<g id="edge6" class="edge"><title>mxcfb_probe&#45;&gt;mxcfbi&#45;&gt;fbi = fbi</title>
<path fill="none" stroke="crimson" d="M1015.69,-475.941C1010.92,-446.631 997.129,-389.061 960,-360 883.705,-300.284 839.746,-344.248 745,-324 740.256,-322.986 735.347,-321.861 730.436,-320.682"/>
<polygon fill="crimson" stroke="crimson" points="730.949,-317.204 720.402,-318.206 729.272,-324 730.949,-317.204"/>
</g>
<!-- mxcfb_option_setup -->
<g id="node10" class="node"><title>mxcfb_option_setup</title>
<ellipse fill="none" stroke="skyblue" cx="825" cy="-306" rx="70.9087" ry="18"/>
<text text-anchor="middle" x="825" y="-303.5" font-family="Verdana" font-size="10.00">mxcfb_option_setup</text>
</g>
<!-- mxcfb_probe&#45;&gt;mxcfb_option_setup -->
<g id="edge8" class="edge"><title>mxcfb_probe&#45;&gt;mxcfb_option_setup</title>
<path fill="none" stroke="crimson" d="M1014.75,-475.88C1008.77,-447.515 993.44,-392.517 960,-360 940.748,-341.279 914.185,-328.793 889.711,-320.592"/>
<polygon fill="crimson" stroke="crimson" points="890.687,-317.23 880.097,-317.548 888.574,-323.903 890.687,-317.23"/>
</g>
<!-- mxcfb_dispdrv_init -->
<g id="node12" class="node"><title>mxcfb_dispdrv_init</title>
<ellipse fill="none" stroke="skyblue" cx="1018" cy="-306" rx="104.034" ry="18"/>
<text text-anchor="middle" x="1018" y="-303.5" font-family="Verdana" font-size="10.00">mxcfb_dispdrv_init(ipu=0,di=0)</text>
</g>
<!-- mxcfb_probe&#45;&gt;mxcfb_dispdrv_init -->
<g id="edge10" class="edge"><title>mxcfb_probe&#45;&gt;mxcfb_dispdrv_init</title>
<path fill="none" stroke="crimson" d="M1018,-475.974C1018,-443.211 1018,-373.672 1018,-334.451"/>
<polygon fill="crimson" stroke="crimson" points="1021.5,-334.248 1018,-324.248 1014.5,-334.248 1021.5,-334.248"/>
</g>
<!-- mxcfbi_ipu -->
<g id="node14" class="node"><title>mxcfbi_ipu</title>
<ellipse fill="none" stroke="skyblue" cx="1281" cy="-306" rx="141.085" ry="18"/>
<text text-anchor="middle" x="1281" y="-303.5" font-family="Verdana" font-size="10.00">mxcfbi&#45;&gt;ipu = ipu_get_soc(mxcfbi&#45;&gt;ipu_id)</text>
</g>
<!-- mxcfb_probe&#45;&gt;mxcfbi_ipu -->
<g id="edge12" class="edge"><title>mxcfb_probe&#45;&gt;mxcfbi_ipu</title>
<path fill="none" stroke="crimson" d="M1040.42,-477.971C1086.76,-444.846 1193.29,-368.699 1247.7,-329.806"/>
<polygon fill="crimson" stroke="crimson" points="1249.86,-332.559 1255.96,-323.896 1245.79,-326.864 1249.86,-332.559"/>
</g>
<!-- mxcfbi_ipu_ch -->
<g id="node16" class="node"><title>mxcfbi_ipu_ch</title>
<ellipse fill="none" stroke="skyblue" cx="1551" cy="-306" rx="110.922" ry="18"/>
<text text-anchor="middle" x="1551" y="-303.5" font-family="Verdana" font-size="10.00">mxcfbi&#45;&gt;ipu_ch = MEM_BG_SYNC</text>
</g>
<!-- mxcfb_probe&#45;&gt;mxcfbi_ipu_ch -->
<g id="edge14" class="edge"><title>mxcfb_probe&#45;&gt;mxcfbi_ipu_ch</title>
<path fill="none" stroke="crimson" d="M1053.38,-481.519C1144,-449.557 1385,-364.553 1494.93,-325.778"/>
<polygon fill="crimson" stroke="crimson" points="1496.25,-329.023 1504.51,-322.396 1493.92,-322.422 1496.25,-329.023"/>
</g>
<!-- mxcfb_register -->
<g id="node18" class="node"><title>mxcfb_register</title>
<ellipse fill="none" stroke="skyblue" cx="1735" cy="-306" rx="54.7872" ry="18"/>
<text text-anchor="middle" x="1735" y="-303.5" font-family="Verdana" font-size="10.00">mxcfb_register</text>
</g>
<!-- mxcfb_probe&#45;&gt;mxcfb_register -->
<g id="edge16" class="edge"><title>mxcfb_probe&#45;&gt;mxcfb_register</title>
<path fill="none" stroke="crimson" d="M1058.57,-483.73C1161.27,-457.673 1439.76,-386.612 1671,-324 1675.07,-322.897 1679.29,-321.742 1683.52,-320.572"/>
<polygon fill="crimson" stroke="crimson" points="1684.68,-323.884 1693.38,-317.834 1682.8,-317.139 1684.68,-323.884"/>
</g>
<!-- mxcfb_setup_overlay -->
<g id="node20" class="node"><title>mxcfb_setup_overlay</title>
<ellipse fill="none" stroke="skyblue" cx="3133" cy="-306" rx="75.1016" ry="18"/>
<text text-anchor="middle" x="3133" y="-303.5" font-family="Verdana" font-size="10.00">mxcfb_setup_overlay</text>
</g>
<!-- mxcfb_probe&#45;&gt;mxcfb_setup_overlay -->
<g id="edge18" class="edge"><title>mxcfb_probe&#45;&gt;mxcfb_setup_overlay</title>
<path fill="none" stroke="crimson" d="M1065.64,-489.765C1338.74,-465.489 2705.37,-344.011 3052.64,-313.143"/>
<polygon fill="crimson" stroke="crimson" points="3052.97,-316.628 3062.62,-312.256 3052.35,-309.655 3052.97,-316.628"/>
</g>
<!-- ldb_disp_init -->
<g id="node22" class="node"><title>ldb_disp_init</title>
<ellipse fill="none" stroke="skyblue" cx="1018" cy="-234" rx="46.9013" ry="18"/>
<text text-anchor="middle" x="1018" y="-231.5" font-family="Verdana" font-size="10.00">ldb_disp_init</text>
</g>
<!-- mxcfb_dispdrv_init&#45;&gt;ldb_disp_init -->
<g id="edge20" class="edge"><title>mxcfb_dispdrv_init&#45;&gt;ldb_disp_init</title>
<path fill="none" stroke="crimson" d="M1018,-287.831C1018,-280.131 1018,-270.974 1018,-262.417"/>
<polygon fill="crimson" stroke="crimson" points="1021.5,-262.413 1018,-252.413 1014.5,-262.413 1021.5,-262.413"/>
</g>
<!-- strcpy(fbi&#45;&gt;fix.id, bg0_id) -->
<g id="node24" class="node"><title>strcpy(fbi&#45;&gt;fix.id, bg0_id)</title>
<ellipse fill="none" stroke="skyblue" cx="1249" cy="-234" rx="88.1437" ry="18"/>
<text text-anchor="middle" x="1249" y="-231.5" font-family="Verdana" font-size="10.00">strcpy(fbi&#45;&gt;fix.id, bg0_id)</text>
</g>
<!-- mxcfb_register&#45;&gt;strcpy(fbi&#45;&gt;fix.id, bg0_id) -->
<g id="edge22" class="edge"><title>mxcfb_register&#45;&gt;strcpy(fbi&#45;&gt;fix.id, bg0_id)</title>
<path fill="none" stroke="crimson" d="M1694.96,-293.654C1687.07,-291.531 1678.82,-289.522 1671,-288 1528.35,-260.233 1489.76,-273.272 1346,-252 1338.38,-250.872 1330.43,-249.584 1322.52,-248.228"/>
<polygon fill="crimson" stroke="crimson" points="1323,-244.758 1312.54,-246.48 1321.79,-251.653 1323,-244.758"/>
</g>
<!-- mxcfb_check_var(&amp;fbi&#45;&gt;var, fbi) -->
<g id="node26" class="node"><title>mxcfb_check_var(&amp;fbi&#45;&gt;var, fbi)</title>
<ellipse fill="none" stroke="skyblue" cx="1464" cy="-234" rx="108.959" ry="18"/>
<text text-anchor="middle" x="1464" y="-231.5" font-family="Verdana" font-size="10.00">mxcfb_check_var(&amp;fbi&#45;&gt;var, fbi)</text>
</g>
<!-- mxcfb_register&#45;&gt;mxcfb_check_var(&amp;fbi&#45;&gt;var, fbi) -->
<g id="edge24" class="edge"><title>mxcfb_register&#45;&gt;mxcfb_check_var(&amp;fbi&#45;&gt;var, fbi)</title>
<path fill="none" stroke="crimson" d="M1693.38,-294.169C1685.93,-292.089 1678.24,-289.963 1671,-288 1625.13,-275.569 1573.41,-262.074 1533.13,-251.685"/>
<polygon fill="crimson" stroke="crimson" points="1533.97,-248.287 1523.42,-249.181 1532.23,-255.065 1533.97,-248.287"/>
</g>
<!-- mxcfb_set_fix(fbi) -->
<g id="node28" class="node"><title>mxcfb_set_fix(fbi)</title>
<ellipse fill="none" stroke="skyblue" cx="1656" cy="-234" rx="64.7541" ry="18"/>
<text text-anchor="middle" x="1656" y="-231.5" font-family="Verdana" font-size="10.00">mxcfb_set_fix(fbi)</text>
</g>
<!-- mxcfb_register&#45;&gt;mxcfb_set_fix(fbi) -->
<g id="edge26" class="edge"><title>mxcfb_register&#45;&gt;mxcfb_set_fix(fbi)</title>
<path fill="none" stroke="crimson" d="M1716.28,-288.937C1706.29,-279.835 1693.83,-268.476 1682.83,-258.452"/>
<polygon fill="crimson" stroke="crimson" points="1684.88,-255.59 1675.14,-251.441 1680.17,-260.764 1684.88,-255.59"/>
</g>
<!-- fb_set_var -->
<g id="node30" class="node"><title>fb_set_var</title>
<ellipse fill="none" stroke="skyblue" cx="1845" cy="-234" rx="105.997" ry="18"/>
<text text-anchor="middle" x="1845" y="-231.5" font-family="Verdana" font-size="10.00">ret = fb_set_var(fbi, &amp;fbi&#45;&gt;var)</text>
</g>
<!-- mxcfb_register&#45;&gt;fb_set_var -->
<g id="edge28" class="edge"><title>mxcfb_register&#45;&gt;fb_set_var</title>
<path fill="none" stroke="crimson" d="M1759.69,-289.842C1774.33,-280.257 1793.14,-267.942 1809.38,-257.317"/>
<polygon fill="crimson" stroke="crimson" points="1811.64,-260.022 1818.09,-251.617 1807.8,-254.165 1811.64,-260.022"/>
</g>
<!-- register_framebuffer(fbi) -->
<g id="node32" class="node"><title>register_framebuffer(fbi)</title>
<ellipse fill="none" stroke="skyblue" cx="2054" cy="-234" rx="84.951" ry="18"/>
<text text-anchor="middle" x="2054" y="-231.5" font-family="Verdana" font-size="10.00">register_framebuffer(fbi)</text>
</g>
<!-- mxcfb_register&#45;&gt;register_framebuffer(fbi) -->
<g id="edge30" class="edge"><title>mxcfb_register&#45;&gt;register_framebuffer(fbi)</title>
<path fill="none" stroke="crimson" d="M1780.37,-295.761C1833.97,-283.661 1923.7,-263.409 1985.72,-249.411"/>
<polygon fill="crimson" stroke="crimson" points="1986.82,-252.75 1995.81,-247.134 1985.28,-245.922 1986.82,-252.75"/>
</g>
<!-- ovfbi = mxcfb_init_fbinfo(&amp;pdev&#45;&gt;dev, &amp;mxcfb_ops) -->
<g id="node45" class="node"><title>ovfbi = mxcfb_init_fbinfo(&amp;pdev&#45;&gt;dev, &amp;mxcfb_ops)</title>
<ellipse fill="none" stroke="skyblue" cx="2326" cy="-234" rx="168.787" ry="18"/>
<text text-anchor="middle" x="2326" y="-231.5" font-family="Verdana" font-size="10.00">ovfbi = mxcfb_init_fbinfo(&amp;pdev&#45;&gt;dev, &amp;mxcfb_ops)</text>
</g>
<!-- mxcfb_setup_overlay&#45;&gt;ovfbi = mxcfb_init_fbinfo(&amp;pdev&#45;&gt;dev, &amp;mxcfb_ops) -->
<g id="edge43" class="edge"><title>mxcfb_setup_overlay&#45;&gt;ovfbi = mxcfb_init_fbinfo(&amp;pdev&#45;&gt;dev, &amp;mxcfb_ops)</title>
<path fill="none" stroke="crimson" d="M3061.75,-300.237C2945.11,-290.722 2706.16,-270.898 2504,-252 2489.03,-250.601 2473.36,-249.087 2457.79,-247.553"/>
<polygon fill="crimson" stroke="crimson" points="2457.88,-244.044 2447.58,-246.542 2457.19,-251.01 2457.88,-244.044"/>
</g>
<!-- mxcfbi_fg = (struct mxcfb_info *)ovfbi&#45;&gt;par -->
<g id="node47" class="node"><title>mxcfbi_fg = (struct mxcfb_info *)ovfbi&#45;&gt;par</title>
<ellipse fill="none" stroke="skyblue" cx="2658" cy="-234" rx="144.779" ry="18"/>
<text text-anchor="middle" x="2658" y="-231.5" font-family="Verdana" font-size="10.00">mxcfbi_fg = (struct mxcfb_info *)ovfbi&#45;&gt;par</text>
</g>
<!-- mxcfb_setup_overlay&#45;&gt;mxcfbi_fg = (struct mxcfb_info *)ovfbi&#45;&gt;par -->
<g id="edge45" class="edge"><title>mxcfb_setup_overlay&#45;&gt;mxcfbi_fg = (struct mxcfb_info *)ovfbi&#45;&gt;par</title>
<path fill="none" stroke="crimson" d="M3069.43,-296.364C2990.28,-284.367 2854.08,-263.722 2760.2,-249.492"/>
<polygon fill="crimson" stroke="crimson" points="2760.53,-246.001 2750.11,-247.963 2759.48,-252.922 2760.53,-246.001"/>
</g>
<!-- mxcfbi_fg&#45;&gt;ipu = ipu_get_soc(mxcfbi_bg&#45;&gt;ipu_id) -->
<g id="node49" class="node"><title>mxcfbi_fg&#45;&gt;ipu = ipu_get_soc(mxcfbi_bg&#45;&gt;ipu_id)</title>
<ellipse fill="none" stroke="skyblue" cx="2983" cy="-234" rx="161.899" ry="18"/>
<text text-anchor="middle" x="2983" y="-231.5" font-family="Verdana" font-size="10.00">mxcfbi_fg&#45;&gt;ipu = ipu_get_soc(mxcfbi_bg&#45;&gt;ipu_id)</text>
</g>
<!-- mxcfb_setup_overlay&#45;&gt;mxcfbi_fg&#45;&gt;ipu = ipu_get_soc(mxcfbi_bg&#45;&gt;ipu_id) -->
<g id="edge47" class="edge"><title>mxcfb_setup_overlay&#45;&gt;mxcfbi_fg&#45;&gt;ipu = ipu_get_soc(mxcfbi_bg&#45;&gt;ipu_id)</title>
<path fill="none" stroke="crimson" d="M3099.34,-289.842C3078.54,-279.857 3051.56,-266.911 3028.83,-255.998"/>
<polygon fill="crimson" stroke="crimson" points="3030.23,-252.789 3019.7,-251.617 3027.2,-259.099 3030.23,-252.789"/>
</g>
<!-- mxcfbi_fg&#45;&gt;ipu_ch = MEM_FG_SYNC -->
<g id="node51" class="node"><title>mxcfbi_fg&#45;&gt;ipu_ch = MEM_FG_SYNC</title>
<ellipse fill="none" stroke="skyblue" cx="3284" cy="-234" rx="120.772" ry="18"/>
<text text-anchor="middle" x="3284" y="-231.5" font-family="Verdana" font-size="10.00">mxcfbi_fg&#45;&gt;ipu_ch = MEM_FG_SYNC</text>
</g>
<!-- mxcfb_setup_overlay&#45;&gt;mxcfbi_fg&#45;&gt;ipu_ch = MEM_FG_SYNC -->
<g id="edge49" class="edge"><title>mxcfb_setup_overlay&#45;&gt;mxcfbi_fg&#45;&gt;ipu_ch = MEM_FG_SYNC</title>
<path fill="none" stroke="crimson" d="M3166.89,-289.842C3188.06,-279.748 3215.57,-266.627 3238.61,-255.641"/>
<polygon fill="crimson" stroke="crimson" points="3240.33,-258.698 3247.85,-251.235 3237.32,-252.379 3240.33,-258.698"/>
</g>
<!-- mxcfbi_fg&#45;&gt;ipu_di = &#45;1 -->
<g id="node53" class="node"><title>mxcfbi_fg&#45;&gt;ipu_di = &#45;1</title>
<ellipse fill="none" stroke="skyblue" cx="3503" cy="-234" rx="80.0263" ry="18"/>
<text text-anchor="middle" x="3503" y="-231.5" font-family="Verdana" font-size="10.00">mxcfbi_fg&#45;&gt;ipu_di = &#45;1</text>
</g>
<!-- mxcfb_setup_overlay&#45;&gt;mxcfbi_fg&#45;&gt;ipu_di = &#45;1 -->
<g id="edge51" class="edge"><title>mxcfb_setup_overlay&#45;&gt;mxcfbi_fg&#45;&gt;ipu_di = &#45;1</title>
<path fill="none" stroke="crimson" d="M3191.97,-294.841C3248.85,-284.035 3337.36,-267.114 3414,-252 3420.29,-250.759 3426.83,-249.458 3433.38,-248.147"/>
<polygon fill="crimson" stroke="crimson" points="3434.54,-251.485 3443.65,-246.086 3433.16,-244.622 3434.54,-251.485"/>
</g>
<!-- ovfbi&#45;&gt;var.xres = 240;ovfbi&#45;&gt;var.yres = 320 -->
<g id="node55" class="node"><title>ovfbi&#45;&gt;var.xres = 240;ovfbi&#45;&gt;var.yres = 320</title>
<ellipse fill="none" stroke="skyblue" cx="3746" cy="-234" rx="144.779" ry="18"/>
<text text-anchor="middle" x="3746" y="-231.5" font-family="Verdana" font-size="10.00">ovfbi&#45;&gt;var.xres = 240;ovfbi&#45;&gt;var.yres = 320</text>
</g>
<!-- mxcfb_setup_overlay&#45;&gt;ovfbi&#45;&gt;var.xres = 240;ovfbi&#45;&gt;var.yres = 320 -->
<g id="edge53" class="edge"><title>mxcfb_setup_overlay&#45;&gt;ovfbi&#45;&gt;var.xres = 240;ovfbi&#45;&gt;var.yres = 320</title>
<path fill="none" stroke="crimson" d="M3200.65,-298.054C3304.25,-285.885 3503.52,-262.48 3630.36,-247.583"/>
<polygon fill="crimson" stroke="crimson" points="3630.98,-251.034 3640.5,-246.391 3630.16,-244.082 3630.98,-251.034"/>
</g>
<!-- mxcfb_register(ovfbi) -->
<g id="node57" class="node"><title>mxcfb_register(ovfbi)</title>
<ellipse fill="none" stroke="skyblue" cx="3984" cy="-234" rx="75.1016" ry="18"/>
<text text-anchor="middle" x="3984" y="-231.5" font-family="Verdana" font-size="10.00">mxcfb_register(ovfbi)</text>
</g>
<!-- mxcfb_setup_overlay&#45;&gt;mxcfb_register(ovfbi) -->
<g id="edge55" class="edge"><title>mxcfb_setup_overlay&#45;&gt;mxcfb_register(ovfbi)</title>
<path fill="none" stroke="crimson" d="M3207.68,-304.231C3345.25,-300.199 3647.72,-287.73 3900,-252 3906.65,-251.059 3913.55,-249.892 3920.42,-248.608"/>
<polygon fill="crimson" stroke="crimson" points="3921.28,-252.006 3930.43,-246.655 3919.94,-245.136 3921.28,-252.006"/>
</g>
<!-- mxcfb_set_par -->
<g id="node34" class="node"><title>mxcfb_set_par</title>
<ellipse fill="none" stroke="skyblue" cx="1845" cy="-162" rx="54.7872" ry="18"/>
<text text-anchor="middle" x="1845" y="-159.5" font-family="Verdana" font-size="10.00">mxcfb_set_par</text>
</g>
<!-- fb_set_var&#45;&gt;mxcfb_set_par -->
<g id="edge32" class="edge"><title>fb_set_var&#45;&gt;mxcfb_set_par</title>
<path fill="none" stroke="crimson" d="M1845,-215.831C1845,-208.131 1845,-198.974 1845,-190.417"/>
<polygon fill="crimson" stroke="crimson" points="1848.5,-190.413 1845,-180.413 1841.5,-190.413 1848.5,-190.413"/>
</g>
<!-- mxcfb_map_video_memory -->
<g id="node36" class="node"><title>mxcfb_map_video_memory</title>
<ellipse fill="none" stroke="skyblue" cx="1604" cy="-90" rx="91.2212" ry="18"/>
<text text-anchor="middle" x="1604" y="-87.5" font-family="Verdana" font-size="10.00">mxcfb_map_video_memory</text>
</g>
<!-- mxcfb_set_par&#45;&gt;mxcfb_map_video_memory -->
<g id="edge34" class="edge"><title>mxcfb_set_par&#45;&gt;mxcfb_map_video_memory</title>
<path fill="none" stroke="crimson" d="M1804.12,-149.786C1765.66,-138.298 1707.63,-120.96 1663.94,-107.908"/>
<polygon fill="crimson" stroke="crimson" points="1664.88,-104.534 1654.29,-105.025 1662.87,-111.241 1664.88,-104.534"/>
</g>
<!-- _setup_disp_channel1 -->
<g id="node39" class="node"><title>_setup_disp_channel1</title>
<ellipse fill="none" stroke="skyblue" cx="1845" cy="-90" rx="77.0636" ry="18"/>
<text text-anchor="middle" x="1845" y="-87.5" font-family="Verdana" font-size="10.00">_setup_disp_channel1</text>
</g>
<!-- mxcfb_set_par&#45;&gt;_setup_disp_channel1 -->
<g id="edge37" class="edge"><title>mxcfb_set_par&#45;&gt;_setup_disp_channel1</title>
<path fill="none" stroke="crimson" d="M1845,-143.831C1845,-136.131 1845,-126.974 1845,-118.417"/>
<polygon fill="crimson" stroke="crimson" points="1848.5,-118.413 1845,-108.413 1841.5,-118.413 1848.5,-118.413"/>
</g>
<!-- _setup_disp_channel2 -->
<g id="node42" class="node"><title>_setup_disp_channel2</title>
<ellipse fill="none" stroke="skyblue" cx="2017" cy="-90" rx="77.0636" ry="18"/>
<text text-anchor="middle" x="2017" y="-87.5" font-family="Verdana" font-size="10.00">_setup_disp_channel2</text>
</g>
<!-- mxcfb_set_par&#45;&gt;_setup_disp_channel2 -->
<g id="edge40" class="edge"><title>mxcfb_set_par&#45;&gt;_setup_disp_channel2</title>
<path fill="none" stroke="crimson" d="M1878.98,-147.775C1904.93,-136.913 1941,-121.815 1969.76,-109.777"/>
<polygon fill="crimson" stroke="crimson" points="1971.33,-112.912 1979.2,-105.822 1968.63,-106.455 1971.33,-112.912"/>
</g>
<!-- (fbi&#45;&gt;fix.smem_len=XX);fbi&#45;&gt;screen_base = dma_alloc_writecombine -->
<g id="node37" class="node"><title>(fbi&#45;&gt;fix.smem_len=XX);fbi&#45;&gt;screen_base = dma_alloc_writecombine</title>
<ellipse fill="none" stroke="skyblue" cx="1556" cy="-18" rx="219.88" ry="18"/>
<text text-anchor="middle" x="1556" y="-15.5" font-family="Verdana" font-size="10.00">(fbi&#45;&gt;fix.smem_len=XX);fbi&#45;&gt;screen_base = dma_alloc_writecombine</text>
</g>
<!-- mxcfb_map_video_memory&#45;&gt;(fbi&#45;&gt;fix.smem_len=XX);fbi&#45;&gt;screen_base = dma_alloc_writecombine -->
<g id="edge35" class="edge"><title>mxcfb_map_video_memory&#45;&gt;(fbi&#45;&gt;fix.smem_len=XX);fbi&#45;&gt;screen_base = dma_alloc_writecombine</title>
<path fill="none" stroke="crimson" d="M1591.89,-71.8314C1586.47,-63.7079 1579.98,-53.9637 1574.01,-45.0118"/>
<polygon fill="crimson" stroke="crimson" points="1576.73,-42.7923 1568.28,-36.4133 1570.91,-46.6753 1576.73,-42.7923"/>
</g>
<!-- ipu_init_channel -->
<g id="node40" class="node"><title>ipu_init_channel</title>
<ellipse fill="none" stroke="skyblue" cx="1853" cy="-18" rx="59.0964" ry="18"/>
<text text-anchor="middle" x="1853" y="-15.5" font-family="Verdana" font-size="10.00">ipu_init_channel</text>
</g>
<!-- _setup_disp_channel1&#45;&gt;ipu_init_channel -->
<g id="edge38" class="edge"><title>_setup_disp_channel1&#45;&gt;ipu_init_channel</title>
<path fill="none" stroke="crimson" d="M1847.02,-71.8314C1847.87,-64.131 1848.89,-54.9743 1849.84,-46.4166"/>
<polygon fill="crimson" stroke="crimson" points="1853.33,-46.7386 1850.95,-36.4133 1846.37,-45.9656 1853.33,-46.7386"/>
</g>
<!-- ipu_init_channel_buffer -->
<g id="node43" class="node"><title>ipu_init_channel_buffer</title>
<ellipse fill="none" stroke="skyblue" cx="2017" cy="-18" rx="80.141" ry="18"/>
<text text-anchor="middle" x="2017" y="-15.5" font-family="Verdana" font-size="10.00">ipu_init_channel_buffer</text>
</g>
<!-- _setup_disp_channel2&#45;&gt;ipu_init_channel_buffer -->
<g id="edge41" class="edge"><title>_setup_disp_channel2&#45;&gt;ipu_init_channel_buffer</title>
<path fill="none" stroke="crimson" d="M2017,-71.8314C2017,-64.131 2017,-54.9743 2017,-46.4166"/>
<polygon fill="crimson" stroke="crimson" points="2020.5,-46.4132 2017,-36.4133 2013.5,-46.4133 2020.5,-46.4132"/>
</g>
</g>
</svg>
