<?xml version="1.0" encoding="UTF-8" standalone="no"?>
<!DOCTYPE svg PUBLIC "-//W3C//DTD SVG 1.1//EN"
 "http://www.w3.org/Graphics/SVG/1.1/DTD/svg11.dtd">
<!-- Generated by graphviz version 2.26.3 (20100126.1600)
 -->
<!-- Title: ipu_dot Pages: 1 -->
<svg width="1284pt" height="188pt"
 viewBox="0.00 0.00 1284.00 188.00" xmlns="http://www.w3.org/2000/svg" xmlns:xlink="http://www.w3.org/1999/xlink">
<g id="graph1" class="graph" transform="scale(1 1) rotate(0) translate(4 184)">
<title>ipu_dot</title>
<polygon fill="white" stroke="white" points="-4,5 -4,-184 1281,-184 1281,5 -4,5"/>
<!-- platform_data_ipu -->
<g id="node1" class="node"><title>platform_data_ipu</title>
<ellipse fill="none" stroke="skyblue" cx="323" cy="-18" rx="261.124" ry="18"/>
<text text-anchor="middle" x="323" y="-15.5" font-family="Verdana" font-size="10.00">mx6_ipuv3_data_entry_single(MX6Q, 1, SZ_4M, mx6q_ipuv3_init, mx6q_ipuv3_pg)</text>
</g>
<!-- struct_ipu_soc_ipu -->
<g id="node2" class="node"><title>struct_ipu_soc_ipu</title>
<ellipse fill="none" stroke="skyblue" cx="139" cy="-90" rx="139.123" ry="18"/>
<text text-anchor="middle" x="139" y="-87.5" font-family="Verdana" font-size="10.00">struct ipu_soc *ipu = ipu_array[pdev&#45;&gt;id]</text>
</g>
<!-- ipu_probe -->
<g id="node3" class="node"><title>ipu_probe</title>
<ellipse fill="none" stroke="skyblue" cx="800" cy="-162" rx="40.0132" ry="18"/>
<text text-anchor="middle" x="800" y="-159.5" font-family="Verdana" font-size="10.00">ipu_probe</text>
</g>
<!-- ipu_probe&#45;&gt;struct_ipu_soc_ipu -->
<g id="edge2" class="edge"><title>ipu_probe&#45;&gt;struct_ipu_soc_ipu</title>
<path fill="none" stroke="crimson" d="M760.718,-158.083C674.778,-149.467 463.633,-128.036 287,-108 274.925,-106.63 262.302,-105.158 249.736,-103.666"/>
<polygon fill="crimson" stroke="crimson" points="250.028,-100.176 239.684,-102.467 249.199,-107.126 250.028,-100.176"/>
</g>
<!-- init -->
<g id="node6" class="node"><title>init</title>
<ellipse fill="none" stroke="skyblue" cx="323" cy="-90" rx="27" ry="18"/>
<text text-anchor="middle" x="323" y="-87.5" font-family="Verdana" font-size="10.00">init</text>
</g>
<!-- ipu_probe&#45;&gt;init -->
<g id="edge4" class="edge"><title>ipu_probe&#45;&gt;init</title>
<path fill="none" stroke="crimson" d="M760.413,-158.892C666.764,-151.259 433.868,-130.566 359,-108 357.093,-107.425 355.165,-106.755 353.243,-106.019"/>
<polygon fill="crimson" stroke="crimson" points="354.389,-102.7 343.824,-101.91 351.59,-109.116 354.389,-102.7"/>
</g>
<!-- request_irq(ipu_sync_irq_handler) -->
<g id="node8" class="node"><title>request_irq(ipu_sync_irq_handler)</title>
<ellipse fill="none" stroke="skyblue" cx="482" cy="-90" rx="113.884" ry="18"/>
<text text-anchor="middle" x="482" y="-87.5" font-family="Verdana" font-size="10.00">request_irq(ipu_sync_irq_handler)</text>
</g>
<!-- ipu_probe&#45;&gt;request_irq(ipu_sync_irq_handler) -->
<g id="edge7" class="edge"><title>ipu_probe&#45;&gt;request_irq(ipu_sync_irq_handler)</title>
<path fill="none" stroke="crimson" d="M764.14,-153.881C714.236,-142.582 622.633,-121.841 557.343,-107.059"/>
<polygon fill="crimson" stroke="crimson" points="558.032,-103.626 547.506,-104.831 556.486,-110.453 558.032,-103.626"/>
</g>
<!-- request_irq(ipu_err_irq_handler) -->
<g id="node10" class="node"><title>request_irq(ipu_err_irq_handler)</title>
<ellipse fill="none" stroke="skyblue" cx="721" cy="-90" rx="107.227" ry="18"/>
<text text-anchor="middle" x="721" y="-87.5" font-family="Verdana" font-size="10.00">request_irq(ipu_err_irq_handler)</text>
</g>
<!-- ipu_probe&#45;&gt;request_irq(ipu_err_irq_handler) -->
<g id="edge9" class="edge"><title>ipu_probe&#45;&gt;request_irq(ipu_err_irq_handler)</title>
<path fill="none" stroke="crimson" d="M782.074,-145.662C772.013,-136.493 759.259,-124.869 748.01,-114.617"/>
<polygon fill="crimson" stroke="crimson" points="750.264,-111.935 740.515,-107.786 745.549,-117.109 750.264,-111.935"/>
</g>
<!-- ioremap -->
<g id="node12" class="node"><title>ioremap</title>
<ellipse fill="none" stroke="skyblue" cx="880" cy="-90" rx="33.8573" ry="18"/>
<text text-anchor="middle" x="880" y="-87.5" font-family="Verdana" font-size="10.00">ioremap</text>
</g>
<!-- ipu_probe&#45;&gt;ioremap -->
<g id="edge11" class="edge"><title>ipu_probe&#45;&gt;ioremap</title>
<path fill="none" stroke="crimson" d="M818.153,-145.662C829.12,-135.792 843.247,-123.077 855.231,-112.292"/>
<polygon fill="crimson" stroke="crimson" points="857.65,-114.824 862.741,-105.533 852.967,-109.621 857.65,-114.824"/>
</g>
<!-- ipu_reset -->
<g id="node14" class="node"><title>ipu_reset</title>
<ellipse fill="none" stroke="skyblue" cx="970" cy="-90" rx="38.1664" ry="18"/>
<text text-anchor="middle" x="970" y="-87.5" font-family="Verdana" font-size="10.00">ipu_reset</text>
</g>
<!-- ipu_probe&#45;&gt;ipu_reset -->
<g id="edge13" class="edge"><title>ipu_probe&#45;&gt;ipu_reset</title>
<path fill="none" stroke="crimson" d="M829.224,-149.623C857.701,-137.562 901.131,-119.168 932.219,-106.001"/>
<polygon fill="crimson" stroke="crimson" points="933.597,-109.219 941.44,-102.096 930.867,-102.773 933.597,-109.219"/>
</g>
<!-- ipu_disp_init -->
<g id="node16" class="node"><title>ipu_disp_init</title>
<ellipse fill="none" stroke="skyblue" cx="1073" cy="-90" rx="46.9013" ry="18"/>
<text text-anchor="middle" x="1073" y="-87.5" font-family="Verdana" font-size="10.00">ipu_disp_init</text>
</g>
<!-- ipu_probe&#45;&gt;ipu_disp_init -->
<g id="edge15" class="edge"><title>ipu_probe&#45;&gt;ipu_disp_init</title>
<path fill="none" stroke="crimson" d="M835.906,-153.844C879.101,-143.853 953.712,-126.024 1017,-108 1020.39,-107.034 1023.89,-106 1027.4,-104.936"/>
<polygon fill="crimson" stroke="crimson" points="1028.74,-108.184 1037.26,-101.882 1026.67,-101.498 1028.74,-108.184"/>
</g>
<!-- register_ipu_device -->
<g id="node18" class="node"><title>register_ipu_device</title>
<ellipse fill="none" stroke="skyblue" cx="1207" cy="-90" rx="69.0609" ry="18"/>
<text text-anchor="middle" x="1207" y="-87.5" font-family="Verdana" font-size="10.00">register_ipu_device</text>
</g>
<!-- ipu_probe&#45;&gt;register_ipu_device -->
<g id="edge17" class="edge"><title>ipu_probe&#45;&gt;register_ipu_device</title>
<path fill="none" stroke="crimson" d="M838.137,-156.552C899.587,-147.592 1024.23,-128.666 1129,-108 1134.45,-106.924 1140.11,-105.745 1145.77,-104.521"/>
<polygon fill="crimson" stroke="crimson" points="1146.9,-107.855 1155.91,-102.283 1145.39,-101.019 1146.9,-107.855"/>
</g>
<!-- init&#45;&gt;platform_data_ipu -->
<g id="edge5" class="edge"><title>init&#45;&gt;platform_data_ipu</title>
<path fill="none" stroke="crimson" d="M323,-71.8314C323,-64.131 323,-54.9743 323,-46.4166"/>
<polygon fill="crimson" stroke="crimson" points="326.5,-46.4132 323,-36.4133 319.5,-46.4133 326.5,-46.4132"/>
</g>
</g>
</svg>
