<?xml version="1.0" encoding="UTF-8" standalone="no"?>
<!DOCTYPE svg PUBLIC "-//W3C//DTD SVG 1.1//EN"
 "http://www.w3.org/Graphics/SVG/1.1/DTD/svg11.dtd">
<!-- Generated by graphviz version 2.26.3 (20100126.1600)
 -->
<!-- Title: input_subsystem Pages: 1 -->
<svg width="211pt" height="472pt"
 viewBox="0.00 0.00 211.00 472.00" xmlns="http://www.w3.org/2000/svg" xmlns:xlink="http://www.w3.org/1999/xlink">
<g id="graph1" class="graph" transform="scale(1 1) rotate(0) translate(4 468)">
<title>input_subsystem</title>
<polygon fill="white" stroke="white" points="-4,5 -4,-468 208,-468 208,5 -4,5"/>
<!-- input_devA -->
<g id="node2" class="node"><title>input_devA</title>
<polygon fill="none" stroke="skyblue" points="8.5,-326.5 8.5,-389.5 73.5,-389.5 73.5,-326.5 8.5,-326.5"/>
<text text-anchor="middle" x="41" y="-376.5" font-family="Verdana" font-size="10.00">input_dev</text>
<polyline fill="none" stroke="skyblue" points="8.5,-368.5 73.5,-368.5 "/>
<text text-anchor="middle" x="41" y="-355.5" font-family="Verdana" font-size="10.00">node</text>
<polyline fill="none" stroke="skyblue" points="8.5,-347.5 73.5,-347.5 "/>
<text text-anchor="middle" x="41" y="-334.5" font-family="Verdana" font-size="10.00">h_list</text>
</g>
<!-- input_handle -->
<g id="node8" class="node"><title>input_handle</title>
<polygon fill="none" stroke="skyblue" points="1,-142.5 1,-289.5 81,-289.5 81,-142.5 1,-142.5"/>
<text text-anchor="middle" x="41" y="-276.5" font-family="Verdana" font-size="10.00">input_handle</text>
<polyline fill="none" stroke="skyblue" points="1,-268.5 81,-268.5 "/>
<text text-anchor="middle" x="41" y="-255.5" font-family="Verdana" font-size="10.00"> </text>
<polyline fill="none" stroke="skyblue" points="1,-247.5 81,-247.5 "/>
<text text-anchor="middle" x="41" y="-234.5" font-family="Verdana" font-size="10.00"> </text>
<polyline fill="none" stroke="skyblue" points="1,-226.5 81,-226.5 "/>
<text text-anchor="middle" x="41" y="-213.5" font-family="Verdana" font-size="10.00">d_node</text>
<polyline fill="none" stroke="skyblue" points="1,-205.5 81,-205.5 "/>
<text text-anchor="middle" x="41" y="-192.5" font-family="Verdana" font-size="10.00">dev</text>
<polyline fill="none" stroke="skyblue" points="1,-184.5 81,-184.5 "/>
<text text-anchor="middle" x="41" y="-171.5" font-family="Verdana" font-size="10.00">handler</text>
<polyline fill="none" stroke="skyblue" points="1,-163.5 81,-163.5 "/>
<text text-anchor="middle" x="41" y="-150.5" font-family="Verdana" font-size="10.00">h_node</text>
</g>
<!-- input_devA&#45;&gt;input_handle -->
<g id="edge8" class="edge"><title>input_devA:h_list&#45;&gt;input_handle:d_node</title>
<path fill="none" stroke="crimson" stroke-dasharray="5,2" d="M42.4832,-316.221C50.0355,-304.347 72.7176,-308.294 81,-290 83.5963,-284.265 87.0367,-243.934 84.8167,-225.344"/>
<polygon fill="crimson" stroke="crimson" points="39.0691,-315.446 40,-326 45.8537,-317.169 39.0691,-315.446"/>
<polygon fill="crimson" stroke="crimson" points="88.0215,-223.934 81,-216 81.5412,-226.581 88.0215,-223.934"/>
</g>
<!-- input_devB -->
<g id="node3" class="node"><title>input_devB</title>
<polygon fill="none" stroke="skyblue" points="90.5,-326.5 90.5,-389.5 155.5,-389.5 155.5,-326.5 90.5,-326.5"/>
<text text-anchor="middle" x="123" y="-376.5" font-family="Verdana" font-size="10.00">input_dev</text>
<polyline fill="none" stroke="skyblue" points="90.5,-368.5 155.5,-368.5 "/>
<text text-anchor="middle" x="123" y="-355.5" font-family="Verdana" font-size="10.00">node</text>
<polyline fill="none" stroke="skyblue" points="90.5,-347.5 155.5,-347.5 "/>
<text text-anchor="middle" x="123" y="-334.5" font-family="Verdana" font-size="10.00">h_list</text>
</g>
<!-- input_handlerA -->
<g id="node5" class="node"><title>input_handlerA</title>
<polygon fill="none" stroke="skyblue" points="-0.5,-0.5 -0.5,-105.5 82.5,-105.5 82.5,-0.5 -0.5,-0.5"/>
<text text-anchor="middle" x="41" y="-92.5" font-family="Verdana" font-size="10.00">input_handler</text>
<polyline fill="none" stroke="skyblue" points="-0.5,-84.5 82.5,-84.5 "/>
<text text-anchor="middle" x="41" y="-71.5" font-family="Verdana" font-size="10.00"> </text>
<polyline fill="none" stroke="skyblue" points="-0.5,-63.5 82.5,-63.5 "/>
<text text-anchor="middle" x="41" y="-50.5" font-family="Verdana" font-size="10.00"> </text>
<polyline fill="none" stroke="skyblue" points="-0.5,-42.5 82.5,-42.5 "/>
<text text-anchor="middle" x="41" y="-29.5" font-family="Verdana" font-size="10.00"> </text>
<polyline fill="none" stroke="skyblue" points="-0.5,-21.5 82.5,-21.5 "/>
<text text-anchor="middle" x="41" y="-8.5" font-family="Verdana" font-size="10.00">h_list</text>
</g>
<!-- input_handlerA&#45;&gt;input_handle -->
<g id="edge14" class="edge"><title>input_handlerA:h_list&#45;&gt;input_handle:h_node</title>
<path fill="none" stroke="crimson" stroke-dasharray="5,2" d="M91.1207,-17.0507C100.021,-35.4047 90.3973,-90.1595 83,-106 74.2665,-124.702 50.5088,-120.024 42.6001,-132.019"/>
<polygon fill="crimson" stroke="crimson" points="93.1101,-14.1682 83,-11 88.9277,-19.7814 93.1101,-14.1682"/>
<polygon fill="crimson" stroke="crimson" points="39.1341,-131.441 40,-142 45.908,-133.205 39.1341,-131.441"/>
</g>
<!-- input_handlerB -->
<g id="node6" class="node"><title>input_handlerB</title>
<polygon fill="none" stroke="skyblue" points="109.5,-0.5 109.5,-105.5 192.5,-105.5 192.5,-0.5 109.5,-0.5"/>
<text text-anchor="middle" x="151" y="-92.5" font-family="Verdana" font-size="10.00">input_handler</text>
<polyline fill="none" stroke="skyblue" points="109.5,-84.5 192.5,-84.5 "/>
<text text-anchor="middle" x="151" y="-71.5" font-family="Verdana" font-size="10.00"> </text>
<polyline fill="none" stroke="skyblue" points="109.5,-63.5 192.5,-63.5 "/>
<text text-anchor="middle" x="151" y="-50.5" font-family="Verdana" font-size="10.00"> </text>
<polyline fill="none" stroke="skyblue" points="109.5,-42.5 192.5,-42.5 "/>
<text text-anchor="middle" x="151" y="-29.5" font-family="Verdana" font-size="10.00"> </text>
<polyline fill="none" stroke="skyblue" points="109.5,-21.5 192.5,-21.5 "/>
<text text-anchor="middle" x="151" y="-8.5" font-family="Verdana" font-size="10.00">hlist</text>
</g>
<!-- input_dev_list -->
<g id="node7" class="node"><title>input_dev_list</title>
<polygon fill="none" stroke="skyblue" stroke-dasharray="5,2" points="39,-427 39,-463 125,-463 125,-427 39,-427"/>
<text text-anchor="middle" x="82" y="-442.5" font-family="Verdana" font-size="10.00">input_dev_list</text>
</g>
<!-- input_dev_list&#45;&gt;input_devA -->
<g id="edge4" class="edge"><title>input_dev_list&#45;&gt;input_devA:s_node</title>
<path fill="none" stroke="crimson" d="M81.3118,-416.434C81.2479,-399.533 80.6614,-378.965 78.4746,-367.286"/>
<polygon fill="crimson" stroke="crimson" points="77.8115,-416.59 81.292,-426.597 84.8115,-416.603 77.8115,-416.59"/>
<polygon fill="crimson" stroke="crimson" points="81.4939,-365.49 74,-358 75.1877,-368.528 81.4939,-365.49"/>
</g>
<!-- input_dev_list&#45;&gt;input_devB -->
<g id="edge6" class="edge"><title>input_dev_list&#45;&gt;input_devB:s_node</title>
<path fill="none" stroke="crimson" d="M81.3238,-416.434C81.7832,-399.337 82.8652,-378.486 85.3879,-366.883"/>
<polygon fill="crimson" stroke="crimson" points="77.8212,-416.525 81.1091,-426.597 84.8197,-416.673 77.8212,-416.525"/>
<polygon fill="crimson" stroke="crimson" points="88.4981,-368.488 90,-358 82.2856,-365.262 88.4981,-368.488"/>
</g>
<!-- input_handle&#45;&gt;input_devA -->
<g id="edge10" class="edge"><title>input_handle:s_dev&#45;&gt;input_devA:head</title>
<path fill="none" stroke="crimson" d="M81,-195C85.3955,-195 80.844,-330.889 76.2307,-369.107"/>
<polygon fill="crimson" stroke="crimson" points="72.7855,-368.475 74,-379 79.614,-370.015 72.7855,-368.475"/>
</g>
<!-- input_handle&#45;&gt;input_handlerA -->
<g id="edge12" class="edge"><title>input_handle:s_handler&#45;&gt;input_handlerA:head</title>
<path fill="none" stroke="crimson" d="M82,-174C96.2292,-174 86.9913,-154.906 81,-142 72.7389,-124.204 51.1147,-127.474 43.6102,-116.021"/>
<polygon fill="crimson" stroke="crimson" points="46.9076,-114.795 41,-106 40.1336,-116.559 46.9076,-114.795"/>
</g>
<!-- input_handler_list -->
<g id="node9" class="node"><title>input_handler_list</title>
<polygon fill="none" stroke="skyblue" stroke-dasharray="5,2" points="99,-198 99,-234 203,-234 203,-198 99,-198"/>
<text text-anchor="middle" x="151" y="-213.5" font-family="Verdana" font-size="10.00">input_handler_list</text>
</g>
<!-- input_handler_list&#45;&gt;input_handlerA -->
<g id="edge16" class="edge"><title>input_handler_list&#45;&gt;input_handlerA:head</title>
<path fill="none" stroke="crimson" d="M144.363,-197.807C134.476,-169.033 113.086,-112.852 92.4071,-98.4359"/>
<polygon fill="crimson" stroke="crimson" points="93.5939,-95.1433 83,-95 91.1923,-101.718 93.5939,-95.1433"/>
</g>
<!-- input_handler_list&#45;&gt;input_handlerB -->
<g id="edge18" class="edge"><title>input_handler_list&#45;&gt;input_handlerB</title>
<path fill="none" stroke="crimson" d="M151,-197.933C151,-178.136 151,-145.271 151,-115.837"/>
<polygon fill="crimson" stroke="crimson" points="154.5,-115.596 151,-105.596 147.5,-115.596 154.5,-115.596"/>
</g>
</g>
</svg>
