<?xml version="1.0" encoding="UTF-8" standalone="no"?>
<!DOCTYPE svg PUBLIC "-//W3C//DTD SVG 1.1//EN"
 "http://www.w3.org/Graphics/SVG/1.1/DTD/svg11.dtd">
<!-- Generated by graphviz version 2.26.3 (20100126.1600)
 -->
<!-- Title: task Pages: 1 -->
<svg width="580pt" height="256pt"
 viewBox="0.00 0.00 580.00 256.00" xmlns="http://www.w3.org/2000/svg" xmlns:xlink="http://www.w3.org/1999/xlink">
<g id="graph1" class="graph" transform="scale(1 1) rotate(0) translate(4 252)">
<title>task</title>
<polygon fill="white" stroke="white" points="-4,5 -4,-252 577,-252 577,5 -4,5"/>
<!-- rq -->
<g id="node1" class="node"><title>rq</title>
<polygon fill="none" stroke="skyblue" points="-0.5,-33.5 -0.5,-214.5 166.5,-214.5 166.5,-33.5 -0.5,-33.5"/>
<text text-anchor="middle" x="83" y="-201.5" font-family="Verdana" font-size="10.00">struct rq</text>
<polyline fill="none" stroke="skyblue" points="-0.5,-193.5 166.5,-193.5 "/>
<text text-anchor="start" x="7.5" y="-180.5" font-family="Verdana" font-size="10.00">spinlock_t lock</text>
<polyline fill="none" stroke="skyblue" points="-0.5,-172.5 166.5,-172.5 "/>
<text text-anchor="start" x="7.5" y="-159.5" font-family="Verdana" font-size="10.00">unsigned long nr_running</text>
<polyline fill="none" stroke="skyblue" points="-0.5,-151.5 166.5,-151.5 "/>
<text text-anchor="middle" x="83" y="-138.5" font-family="Verdana" font-size="10.00">..</text>
<polyline fill="none" stroke="skyblue" points="-0.5,-130.5 166.5,-130.5 "/>
<text text-anchor="start" x="7.5" y="-117.5" font-family="Verdana" font-size="10.00">struct cfs_rq cfs</text>
<text text-anchor="start" x="7.5" y="-104.5" font-family="Verdana" font-size="10.00">struct rt_rq rt</text>
<polyline fill="none" stroke="skyblue" points="-0.5,-96.5 166.5,-96.5 "/>
<text text-anchor="middle" x="83" y="-83.5" font-family="Verdana" font-size="10.00">..</text>
<polyline fill="none" stroke="skyblue" points="-0.5,-75.5 166.5,-75.5 "/>
<text text-anchor="start" x="7.5" y="-62.5" font-family="Verdana" font-size="10.00">struct task_struct *curr, *idle</text>
<polyline fill="none" stroke="skyblue" points="-0.5,-54.5 166.5,-54.5 "/>
<text text-anchor="middle" x="83" y="-41.5" font-family="Verdana" font-size="10.00">..</text>
</g>
<!-- cfs_rq -->
<g id="node2" class="node"><title>cfs_rq</title>
<polygon fill="none" stroke="skyblue" points="184,-24.5 184,-223.5 396,-223.5 396,-24.5 184,-24.5"/>
<text text-anchor="middle" x="290" y="-210.5" font-family="Verdana" font-size="10.00">struct cfs_rq</text>
<polyline fill="none" stroke="skyblue" points="184,-202.5 396,-202.5 "/>
<text text-anchor="start" x="192" y="-189.5" font-family="Verdana" font-size="10.00">struct load_weight load</text>
<text text-anchor="start" x="192" y="-176.5" font-family="Verdana" font-size="10.00">unsigned long nr_running</text>
<polyline fill="none" stroke="skyblue" points="184,-168.5 396,-168.5 "/>
<text text-anchor="start" x="192" y="-155.5" font-family="Verdana" font-size="10.00">u64 exec_clock</text>
<text text-anchor="start" x="192" y="-142.5" font-family="Verdana" font-size="10.00">u64 min_vruntime</text>
<polyline fill="none" stroke="skyblue" points="184,-134.5 396,-134.5 "/>
<text text-anchor="start" x="192" y="-121.5" font-family="Verdana" font-size="10.00">struct rb_root tasks_timeline</text>
<text text-anchor="start" x="192" y="-108.5" font-family="Verdana" font-size="10.00">struct rb_node *rb_leftmost</text>
<polyline fill="none" stroke="skyblue" points="184,-100.5 396,-100.5 "/>
<text text-anchor="start" x="192" y="-87.5" font-family="Verdana" font-size="10.00">struct list_head tasks</text>
<text text-anchor="start" x="192" y="-74.5" font-family="Verdana" font-size="10.00">struct list_head *balance_iterator</text>
<polyline fill="none" stroke="skyblue" points="184,-66.5 396,-66.5 "/>
<text text-anchor="start" x="192" y="-53.5" font-family="Verdana" font-size="10.00">struct sched_entity *curr, *next, *last</text>
<polyline fill="none" stroke="skyblue" points="184,-45.5 396,-45.5 "/>
<text text-anchor="middle" x="290" y="-32.5" font-family="Verdana" font-size="10.00">..</text>
</g>
<!-- sched_entity -->
<g id="node3" class="node"><title>sched_entity</title>
<polygon fill="none" stroke="skyblue" points="414,-1 414,-247 572,-247 572,-1 414,-1"/>
<text text-anchor="middle" x="493" y="-234" font-family="Verdana" font-size="10.00">struct sched_entity</text>
<polyline fill="none" stroke="skyblue" points="414,-226 572,-226 "/>
<text text-anchor="start" x="422" y="-213" font-family="Verdana" font-size="10.00">struct load_weight load</text>
<polyline fill="none" stroke="skyblue" points="414,-205 572,-205 "/>
<text text-anchor="start" x="422" y="-192" font-family="Verdana" font-size="10.00">struct rb_node run_node</text>
<text text-anchor="start" x="422" y="-179" font-family="Verdana" font-size="10.00">struct list_head group_node</text>
<polyline fill="none" stroke="skyblue" points="414,-171 572,-171 "/>
<text text-anchor="start" x="422" y="-158" font-family="Verdana" font-size="10.00">unsigned int on_rq</text>
<polyline fill="none" stroke="skyblue" points="414,-150 572,-150 "/>
<text text-anchor="start" x="422" y="-137" font-family="Verdana" font-size="10.00">u64 exec_start</text>
<text text-anchor="start" x="422" y="-124" font-family="Verdana" font-size="10.00">u64 sum_exec_runtim</text>
<text text-anchor="start" x="422" y="-111" font-family="Verdana" font-size="10.00">u64 vruntime</text>
<text text-anchor="start" x="422" y="-98" font-family="Verdana" font-size="10.00">u64 prev_sum_exec_runtime</text>
<polyline fill="none" stroke="skyblue" points="414,-90 572,-90 "/>
<text text-anchor="middle" x="493" y="-77" font-family="Verdana" font-size="10.00">..</text>
<polyline fill="none" stroke="skyblue" points="414,-69 572,-69 "/>
<text text-anchor="start" x="422" y="-56" font-family="Verdana" font-size="10.00">struct sched_entity *parent</text>
<text text-anchor="start" x="422" y="-43" font-family="Verdana" font-size="10.00">struct cfs_rq *cfs_rq</text>
<text text-anchor="start" x="422" y="-30" font-family="Verdana" font-size="10.00">struct cfs_rq *my_q</text>
<polyline fill="none" stroke="skyblue" points="414,-22 572,-22 "/>
<text text-anchor="middle" x="493" y="-9" font-family="Verdana" font-size="10.00">..</text>
</g>
</g>
</svg>
