<?xml version="1.0" encoding="UTF-8" standalone="no"?>
<!DOCTYPE svg PUBLIC "-//W3C//DTD SVG 1.1//EN"
 "http://www.w3.org/Graphics/SVG/1.1/DTD/svg11.dtd">
<!-- Generated by graphviz version 2.26.3 (20100126.1600)
 -->
<!-- Title: schecule_dot Pages: 1 -->
<svg width="2263pt" height="416pt"
 viewBox="0.00 0.00 2263.00 416.00" xmlns="http://www.w3.org/2000/svg" xmlns:xlink="http://www.w3.org/1999/xlink">
<g id="graph1" class="graph" transform="scale(1 1) rotate(0) translate(4 412)">
<title>schecule_dot</title>
<polygon fill="white" stroke="white" points="-4,5 -4,-412 2260,-412 2260,5 -4,5"/>
<!-- schedule -->
<g id="node1" class="node"><title>schedule</title>
<ellipse fill="none" stroke="skyblue" cx="1427" cy="-390" rx="36.9352" ry="18"/>
<text text-anchor="middle" x="1427" y="-387.5" font-family="Verdana" font-size="10.00">schedule</text>
</g>
<!-- rq = cpu_rq(cpu) -->
<g id="node3" class="node"><title>rq = cpu_rq(cpu)</title>
<ellipse fill="none" stroke="skyblue" cx="643" cy="-312" rx="62.1743" ry="18"/>
<text text-anchor="middle" x="643" y="-309.5" font-family="Verdana" font-size="10.00">rq = cpu_rq(cpu)</text>
</g>
<!-- schedule&#45;&gt;rq = cpu_rq(cpu) -->
<g id="edge2" class="edge"><title>schedule&#45;&gt;rq = cpu_rq(cpu)</title>
<path fill="none" stroke="crimson" d="M1389.84,-388.415C1262.65,-382.799 845.377,-362.738 714,-336 706.023,-334.377 697.705,-332.113 689.688,-329.62"/>
<polygon fill="crimson" stroke="crimson" points="690.695,-326.267 680.103,-326.492 688.523,-332.921 690.695,-326.267"/>
</g>
<!-- prev = rq&#45;&gt;curr -->
<g id="node5" class="node"><title>prev = rq&#45;&gt;curr</title>
<ellipse fill="none" stroke="skyblue" cx="781" cy="-312" rx="57.8652" ry="18"/>
<text text-anchor="middle" x="781" y="-309.5" font-family="Verdana" font-size="10.00">prev = rq&#45;&gt;curr</text>
</g>
<!-- schedule&#45;&gt;prev = rq&#45;&gt;curr -->
<g id="edge4" class="edge"><title>schedule&#45;&gt;prev = rq&#45;&gt;curr</title>
<path fill="none" stroke="crimson" d="M1390.04,-387.77C1279.44,-380.903 952.224,-359.14 848,-336 840.703,-334.38 833.112,-332.185 825.775,-329.778"/>
<polygon fill="crimson" stroke="crimson" points="826.573,-326.35 815.978,-326.397 824.289,-332.968 826.573,-326.35"/>
</g>
<!-- prev&#45;&gt;state = TASK_RUNNING OR \ndeactivate_task(rq, prev, 1) -->
<g id="node7" class="node"><title>prev&#45;&gt;state = TASK_RUNNING OR \ndeactivate_task(rq, prev, 1)</title>
<ellipse fill="none" stroke="skyblue" cx="990" cy="-312" rx="132.936" ry="24.0416"/>
<text text-anchor="middle" x="990" y="-316" font-family="Verdana" font-size="10.00">prev&#45;&gt;state = TASK_RUNNING OR </text>
<text text-anchor="middle" x="990" y="-303" font-family="Verdana" font-size="10.00">deactivate_task(rq, prev, 1)</text>
</g>
<!-- schedule&#45;&gt;prev&#45;&gt;state = TASK_RUNNING OR \ndeactivate_task(rq, prev, 1) -->
<g id="edge6" class="edge"><title>schedule&#45;&gt;prev&#45;&gt;state = TASK_RUNNING OR \ndeactivate_task(rq, prev, 1)</title>
<path fill="none" stroke="crimson" d="M1391.98,-383.749C1328.3,-372.384 1191.27,-347.925 1094.98,-330.737"/>
<polygon fill="crimson" stroke="crimson" points="1095.37,-327.252 1084.91,-328.94 1094.14,-334.143 1095.37,-327.252"/>
</g>
<!-- prev&#45;&gt;sched_class&#45;&gt;put_prev_task(rq, prev) -->
<g id="node9" class="node"><title>prev&#45;&gt;sched_class&#45;&gt;put_prev_task(rq, prev)</title>
<ellipse fill="none" stroke="skyblue" cx="1290" cy="-312" rx="148.972" ry="18"/>
<text text-anchor="middle" x="1290" y="-309.5" font-family="Verdana" font-size="10.00">prev&#45;&gt;sched_class&#45;&gt;put_prev_task(rq, prev)</text>
</g>
<!-- schedule&#45;&gt;prev&#45;&gt;sched_class&#45;&gt;put_prev_task(rq, prev) -->
<g id="edge8" class="edge"><title>schedule&#45;&gt;prev&#45;&gt;sched_class&#45;&gt;put_prev_task(rq, prev)</title>
<path fill="none" stroke="crimson" d="M1402.82,-376.235C1382.66,-364.756 1353.52,-348.165 1329.91,-334.721"/>
<polygon fill="crimson" stroke="crimson" points="1331.58,-331.645 1321.16,-329.739 1328.12,-337.728 1331.58,-331.645"/>
</g>
<!-- next = pick_next_task(rq, prev) -->
<g id="node14" class="node"><title>next = pick_next_task(rq, prev)</title>
<ellipse fill="none" stroke="skyblue" cx="1564" cy="-312" rx="107.227" ry="18"/>
<text text-anchor="middle" x="1564" y="-309.5" font-family="Verdana" font-size="10.00">next = pick_next_task(rq, prev)</text>
</g>
<!-- schedule&#45;&gt;next = pick_next_task(rq, prev) -->
<g id="edge13" class="edge"><title>schedule&#45;&gt;next = pick_next_task(rq, prev)</title>
<path fill="none" stroke="crimson" d="M1451.18,-376.235C1471.48,-364.678 1500.87,-347.941 1524.57,-334.448"/>
<polygon fill="crimson" stroke="crimson" points="1526.39,-337.443 1533.34,-329.454 1522.92,-331.36 1526.39,-337.443"/>
</g>
<!-- sched_info_switch(prev, next) -->
<g id="node17" class="node"><title>sched_info_switch(prev, next)</title>
<ellipse fill="none" stroke="skyblue" cx="1792" cy="-312" rx="102.803" ry="18"/>
<text text-anchor="middle" x="1792" y="-309.5" font-family="Verdana" font-size="10.00">sched_info_switch(prev, next)</text>
</g>
<!-- schedule&#45;&gt;sched_info_switch(prev, next) -->
<g id="edge16" class="edge"><title>schedule&#45;&gt;sched_info_switch(prev, next)</title>
<path fill="none" stroke="crimson" d="M1460.97,-382.759C1509.53,-372.405 1601.6,-352.766 1680,-336 1691.97,-333.44 1704.66,-330.724 1717.02,-328.075"/>
<polygon fill="crimson" stroke="crimson" points="1717.81,-331.486 1726.86,-325.969 1716.34,-324.641 1717.81,-331.486"/>
</g>
<!-- rq&#45;&gt;curr = next -->
<g id="node19" class="node"><title>rq&#45;&gt;curr = next</title>
<ellipse fill="none" stroke="skyblue" cx="1971" cy="-312" rx="57.8652" ry="18"/>
<text text-anchor="middle" x="1971" y="-309.5" font-family="Verdana" font-size="10.00">rq&#45;&gt;curr = next</text>
</g>
<!-- schedule&#45;&gt;rq&#45;&gt;curr = next -->
<g id="edge18" class="edge"><title>schedule&#45;&gt;rq&#45;&gt;curr = next</title>
<path fill="none" stroke="crimson" d="M1463.99,-388.719C1544.83,-385.289 1742.86,-373.449 1904,-336 1911.2,-334.327 1918.69,-332.126 1925.95,-329.734"/>
<polygon fill="crimson" stroke="crimson" points="1927.33,-332.958 1935.64,-326.387 1925.05,-326.341 1927.33,-332.958"/>
</g>
<!-- context_switch(rq, prev, next) -->
<g id="node21" class="node"><title>context_switch(rq, prev, next)</title>
<ellipse fill="none" stroke="skyblue" cx="2151" cy="-312" rx="104.149" ry="18"/>
<text text-anchor="middle" x="2151" y="-309.5" font-family="Verdana" font-size="10.00">context_switch(rq, prev, next)</text>
</g>
<!-- schedule&#45;&gt;context_switch(rq, prev, next) -->
<g id="edge20" class="edge"><title>schedule&#45;&gt;context_switch(rq, prev, next)</title>
<path fill="none" stroke="crimson" d="M1464.03,-388.293C1559.54,-383.552 1821.84,-368.385 2038,-336 2051.49,-333.979 2065.78,-331.339 2079.5,-328.551"/>
<polygon fill="crimson" stroke="crimson" points="2080.29,-331.961 2089.37,-326.501 2078.87,-325.107 2080.29,-331.961"/>
</g>
<!-- update_curr -->
<g id="node10" class="node"><title>update_curr</title>
<ellipse fill="none" stroke="skyblue" cx="796" cy="-234" rx="46.9013" ry="18"/>
<text text-anchor="middle" x="796" y="-231.5" font-family="Verdana" font-size="10.00">update_curr</text>
</g>
<!-- prev&#45;&gt;sched_class&#45;&gt;put_prev_task(rq, prev)&#45;&gt;update_curr -->
<g id="edge9" class="edge"><title>prev&#45;&gt;sched_class&#45;&gt;put_prev_task(rq, prev)&#45;&gt;update_curr</title>
<path fill="none" stroke="crimson" d="M1199.39,-297.694C1096.98,-281.524 933.639,-255.732 849.683,-242.476"/>
<polygon fill="crimson" stroke="crimson" points="850.026,-238.987 839.602,-240.885 848.934,-245.901 850.026,-238.987"/>
</g>
<!-- enqueue_entity -->
<g id="node12" class="node"><title>enqueue_entity</title>
<ellipse fill="none" stroke="skyblue" cx="1290" cy="-234" rx="57.8652" ry="18"/>
<text text-anchor="middle" x="1290" y="-231.5" font-family="Verdana" font-size="10.00">enqueue_entity</text>
</g>
<!-- prev&#45;&gt;sched_class&#45;&gt;put_prev_task(rq, prev)&#45;&gt;enqueue_entity -->
<g id="edge11" class="edge"><title>prev&#45;&gt;sched_class&#45;&gt;put_prev_task(rq, prev)&#45;&gt;enqueue_entity</title>
<path fill="none" stroke="limegreen" stroke-dasharray="5,2" d="M1290,-293.909C1290,-284.526 1290,-272.85 1290,-262.305"/>
<polygon fill="limegreen" stroke="limegreen" points="1293.5,-262.263 1290,-252.263 1286.5,-262.263 1293.5,-262.263"/>
</g>
<!-- u64 now = rq_of(cfs_rq)&#45;&gt;clock -->
<g id="node23" class="node"><title>u64 now = rq_of(cfs_rq)&#45;&gt;clock</title>
<ellipse fill="none" stroke="skyblue" cx="165" cy="-162" rx="107.844" ry="18"/>
<text text-anchor="middle" x="165" y="-159.5" font-family="Verdana" font-size="10.00">u64 now = rq_of(cfs_rq)&#45;&gt;clock</text>
</g>
<!-- update_curr&#45;&gt;u64 now = rq_of(cfs_rq)&#45;&gt;clock -->
<g id="edge22" class="edge"><title>update_curr&#45;&gt;u64 now = rq_of(cfs_rq)&#45;&gt;clock</title>
<path fill="none" stroke="crimson" d="M750.187,-229.931C660.267,-221.779 454.41,-202.306 282,-180 272.621,-178.787 262.834,-177.428 253.088,-176.015"/>
<polygon fill="crimson" stroke="crimson" points="253.368,-172.519 242.965,-174.527 252.35,-179.444 253.368,-172.519"/>
</g>
<!-- delta_exec = (unsigned long)(now &#45; curr&#45;&gt;exec_start) -->
<g id="node25" class="node"><title>delta_exec = (unsigned long)(now &#45; curr&#45;&gt;exec_start)</title>
<ellipse fill="none" stroke="skyblue" cx="468" cy="-162" rx="176.79" ry="18"/>
<text text-anchor="middle" x="468" y="-159.5" font-family="Verdana" font-size="10.00">delta_exec = (unsigned long)(now &#45; curr&#45;&gt;exec_start)</text>
</g>
<!-- update_curr&#45;&gt;delta_exec = (unsigned long)(now &#45; curr&#45;&gt;exec_start) -->
<g id="edge24" class="edge"><title>update_curr&#45;&gt;delta_exec = (unsigned long)(now &#45; curr&#45;&gt;exec_start)</title>
<path fill="none" stroke="crimson" d="M755.122,-225.027C704.648,-213.947 617.508,-194.819 552.43,-180.533"/>
<polygon fill="crimson" stroke="crimson" points="553.108,-177.099 542.59,-178.373 551.607,-183.936 553.108,-177.099"/>
</g>
<!-- __update_curr(cfs_rq, curr, delta_exec) -->
<g id="node27" class="node"><title>__update_curr(cfs_rq, curr, delta_exec)</title>
<ellipse fill="none" stroke="skyblue" cx="796" cy="-162" rx="132.967" ry="18"/>
<text text-anchor="middle" x="796" y="-159.5" font-family="Verdana" font-size="10.00">__update_curr(cfs_rq, curr, delta_exec)</text>
</g>
<!-- update_curr&#45;&gt;__update_curr(cfs_rq, curr, delta_exec) -->
<g id="edge26" class="edge"><title>update_curr&#45;&gt;__update_curr(cfs_rq, curr, delta_exec)</title>
<path fill="none" stroke="crimson" d="M796,-215.831C796,-208.131 796,-198.974 796,-190.417"/>
<polygon fill="crimson" stroke="crimson" points="799.5,-190.413 796,-180.413 792.5,-190.413 799.5,-190.413"/>
</g>
<!-- curr&#45;&gt;exec_start = now -->
<g id="node30" class="node"><title>curr&#45;&gt;exec_start = now</title>
<ellipse fill="none" stroke="skyblue" cx="1030" cy="-162" rx="83.2185" ry="18"/>
<text text-anchor="middle" x="1030" y="-159.5" font-family="Verdana" font-size="10.00">curr&#45;&gt;exec_start = now</text>
</g>
<!-- update_curr&#45;&gt;curr&#45;&gt;exec_start = now -->
<g id="edge29" class="edge"><title>update_curr&#45;&gt;curr&#45;&gt;exec_start = now</title>
<path fill="none" stroke="crimson" d="M832.82,-222.671C870.272,-211.147 928.845,-193.125 972.433,-179.713"/>
<polygon fill="crimson" stroke="crimson" points="973.522,-183.04 982.05,-176.754 971.463,-176.349 973.522,-183.04"/>
</g>
<!-- update_curr(cfs_rq) -->
<g id="node46" class="node"><title>update_curr(cfs_rq)</title>
<ellipse fill="none" stroke="skyblue" cx="1202" cy="-162" rx="70.9087" ry="18"/>
<text text-anchor="middle" x="1202" y="-159.5" font-family="Verdana" font-size="10.00">update_curr(cfs_rq)</text>
</g>
<!-- enqueue_entity&#45;&gt;update_curr(cfs_rq) -->
<g id="edge45" class="edge"><title>enqueue_entity&#45;&gt;update_curr(cfs_rq)</title>
<path fill="none" stroke="crimson" d="M1269.15,-216.937C1257.8,-207.658 1243.6,-196.034 1231.17,-185.87"/>
<polygon fill="crimson" stroke="crimson" points="1233.27,-183.064 1223.32,-179.441 1228.84,-188.482 1233.27,-183.064"/>
</g>
<!-- __enqueue_entity(cfs_rq, se) -->
<g id="node48" class="node"><title>__enqueue_entity(cfs_rq, se)</title>
<ellipse fill="none" stroke="skyblue" cx="1392" cy="-162" rx="100.956" ry="18"/>
<text text-anchor="middle" x="1392" y="-159.5" font-family="Verdana" font-size="10.00">__enqueue_entity(cfs_rq, se)</text>
</g>
<!-- enqueue_entity&#45;&gt;__enqueue_entity(cfs_rq, se) -->
<g id="edge47" class="edge"><title>enqueue_entity&#45;&gt;__enqueue_entity(cfs_rq, se)</title>
<path fill="none" stroke="crimson" d="M1313.4,-217.482C1326.77,-208.042 1343.77,-196.044 1358.53,-185.622"/>
<polygon fill="crimson" stroke="crimson" points="1360.77,-188.326 1366.93,-179.7 1356.74,-182.607 1360.77,-188.326"/>
</g>
<!-- __pick_next_entity -->
<g id="node15" class="node"><title>__pick_next_entity</title>
<ellipse fill="none" stroke="skyblue" cx="1652" cy="-234" rx="67.8314" ry="18"/>
<text text-anchor="middle" x="1652" y="-231.5" font-family="Verdana" font-size="10.00">__pick_next_entity</text>
</g>
<!-- next = pick_next_task(rq, prev)&#45;&gt;__pick_next_entity -->
<g id="edge14" class="edge"><title>next = pick_next_task(rq, prev)&#45;&gt;__pick_next_entity</title>
<path fill="none" stroke="crimson" d="M1583.97,-294.301C1595.98,-283.655 1611.44,-269.955 1624.58,-258.304"/>
<polygon fill="crimson" stroke="crimson" points="1627.25,-260.613 1632.41,-251.361 1622.61,-255.375 1627.25,-260.613"/>
</g>
<!-- struct rb_node *left = cfs_rq&#45;&gt;rb_leftmost -->
<g id="node42" class="node"><title>struct rb_node *left = cfs_rq&#45;&gt;rb_leftmost</title>
<ellipse fill="none" stroke="skyblue" cx="1652" cy="-162" rx="141.085" ry="18"/>
<text text-anchor="middle" x="1652" y="-159.5" font-family="Verdana" font-size="10.00">struct rb_node *left = cfs_rq&#45;&gt;rb_leftmost</text>
</g>
<!-- __pick_next_entity&#45;&gt;struct rb_node *left = cfs_rq&#45;&gt;rb_leftmost -->
<g id="edge41" class="edge"><title>__pick_next_entity&#45;&gt;struct rb_node *left = cfs_rq&#45;&gt;rb_leftmost</title>
<path fill="none" stroke="crimson" d="M1652,-215.831C1652,-208.131 1652,-198.974 1652,-190.417"/>
<polygon fill="crimson" stroke="crimson" points="1655.5,-190.413 1652,-180.413 1648.5,-190.413 1655.5,-190.413"/>
</g>
<!-- return rb_entry(left, struct sched_entity, run_node) -->
<g id="node44" class="node"><title>return rb_entry(left, struct sched_entity, run_node)</title>
<ellipse fill="none" stroke="skyblue" cx="1981" cy="-162" rx="169.902" ry="18"/>
<text text-anchor="middle" x="1981" y="-159.5" font-family="Verdana" font-size="10.00">return rb_entry(left, struct sched_entity, run_node)</text>
</g>
<!-- __pick_next_entity&#45;&gt;return rb_entry(left, struct sched_entity, run_node) -->
<g id="edge43" class="edge"><title>__pick_next_entity&#45;&gt;return rb_entry(left, struct sched_entity, run_node)</title>
<path fill="none" stroke="crimson" d="M1704.49,-222.512C1756.31,-211.173 1836.35,-193.655 1897.01,-180.38"/>
<polygon fill="crimson" stroke="crimson" points="1897.93,-183.762 1906.95,-178.205 1896.44,-176.923 1897.93,-183.762"/>
</g>
<!-- __update_curr -->
<g id="node28" class="node"><title>__update_curr</title>
<ellipse fill="none" stroke="skyblue" cx="796" cy="-90" rx="54.7872" ry="18"/>
<text text-anchor="middle" x="796" y="-87.5" font-family="Verdana" font-size="10.00">__update_curr</text>
</g>
<!-- __update_curr(cfs_rq, curr, delta_exec)&#45;&gt;__update_curr -->
<g id="edge27" class="edge"><title>__update_curr(cfs_rq, curr, delta_exec)&#45;&gt;__update_curr</title>
<path fill="none" stroke="crimson" d="M796,-143.831C796,-136.131 796,-126.974 796,-118.417"/>
<polygon fill="crimson" stroke="crimson" points="799.5,-118.413 796,-108.413 792.5,-118.413 799.5,-118.413"/>
</g>
<!-- curr&#45;&gt;sum_exec_runtime += delta_exec -->
<g id="node32" class="node"><title>curr&#45;&gt;sum_exec_runtime += delta_exec</title>
<ellipse fill="none" stroke="skyblue" cx="132" cy="-18" rx="131.852" ry="18"/>
<text text-anchor="middle" x="132" y="-15.5" font-family="Verdana" font-size="10.00">curr&#45;&gt;sum_exec_runtime += delta_exec</text>
</g>
<!-- __update_curr&#45;&gt;curr&#45;&gt;sum_exec_runtime += delta_exec -->
<g id="edge31" class="edge"><title>__update_curr&#45;&gt;curr&#45;&gt;sum_exec_runtime += delta_exec</title>
<path fill="none" stroke="crimson" d="M742.873,-84.9412C648.313,-75.8419 444.61,-55.8104 273,-36 261.509,-34.6735 249.498,-33.2292 237.544,-31.7548"/>
<polygon fill="crimson" stroke="crimson" points="237.883,-28.2702 227.528,-30.5112 237.021,-35.2168 237.883,-28.2702"/>
</g>
<!-- schedstat_add(cfs_rq, exec_clock, delta_exec) -->
<g id="node34" class="node"><title>schedstat_add(cfs_rq, exec_clock, delta_exec)</title>
<ellipse fill="none" stroke="skyblue" cx="438" cy="-18" rx="155.86" ry="18"/>
<text text-anchor="middle" x="438" y="-15.5" font-family="Verdana" font-size="10.00">schedstat_add(cfs_rq, exec_clock, delta_exec)</text>
</g>
<!-- __update_curr&#45;&gt;schedstat_add(cfs_rq, exec_clock, delta_exec) -->
<g id="edge33" class="edge"><title>__update_curr&#45;&gt;schedstat_add(cfs_rq, exec_clock, delta_exec)</title>
<path fill="none" stroke="crimson" d="M748.83,-80.5132C692.277,-69.1395 596.331,-49.843 525.963,-35.6909"/>
<polygon fill="crimson" stroke="crimson" points="526.268,-32.1822 515.774,-33.6417 524.888,-39.0448 526.268,-32.1822"/>
</g>
<!-- delta_exec_weighted = calc_delta_fair(delta_exec, curr) -->
<g id="node36" class="node"><title>delta_exec_weighted = calc_delta_fair(delta_exec, curr)</title>
<ellipse fill="none" stroke="skyblue" cx="796" cy="-18" rx="184.061" ry="18"/>
<text text-anchor="middle" x="796" y="-15.5" font-family="Verdana" font-size="10.00">delta_exec_weighted = calc_delta_fair(delta_exec, curr)</text>
</g>
<!-- __update_curr&#45;&gt;delta_exec_weighted = calc_delta_fair(delta_exec, curr) -->
<g id="edge35" class="edge"><title>__update_curr&#45;&gt;delta_exec_weighted = calc_delta_fair(delta_exec, curr)</title>
<path fill="none" stroke="crimson" d="M796,-71.8314C796,-64.131 796,-54.9743 796,-46.4166"/>
<polygon fill="crimson" stroke="crimson" points="799.5,-46.4132 796,-36.4133 792.5,-46.4133 799.5,-46.4132"/>
</g>
<!-- curr&#45;&gt;vruntime += delta_exec_weighted -->
<g id="node38" class="node"><title>curr&#45;&gt;vruntime += delta_exec_weighted</title>
<ellipse fill="none" stroke="skyblue" cx="1131" cy="-18" rx="133.082" ry="18"/>
<text text-anchor="middle" x="1131" y="-15.5" font-family="Verdana" font-size="10.00">curr&#45;&gt;vruntime += delta_exec_weighted</text>
</g>
<!-- __update_curr&#45;&gt;curr&#45;&gt;vruntime += delta_exec_weighted -->
<g id="edge37" class="edge"><title>__update_curr&#45;&gt;curr&#45;&gt;vruntime += delta_exec_weighted</title>
<path fill="none" stroke="crimson" d="M842.229,-80.0643C895.837,-68.5425 985.165,-49.3436 1050.3,-35.3449"/>
<polygon fill="crimson" stroke="crimson" points="1051.09,-38.7551 1060.13,-33.2319 1049.62,-31.9114 1051.09,-38.7551"/>
</g>
<!-- update_min_vruntime(cfs_rq) -->
<g id="node40" class="node"><title>update_min_vruntime(cfs_rq)</title>
<ellipse fill="none" stroke="skyblue" cx="1381" cy="-18" rx="99.224" ry="18"/>
<text text-anchor="middle" x="1381" y="-15.5" font-family="Verdana" font-size="10.00">update_min_vruntime(cfs_rq)</text>
</g>
<!-- __update_curr&#45;&gt;update_min_vruntime(cfs_rq) -->
<g id="edge39" class="edge"><title>__update_curr&#45;&gt;update_min_vruntime(cfs_rq)</title>
<path fill="none" stroke="crimson" d="M849.054,-84.911C937.238,-76.2467 1119.48,-57.4683 1273,-36 1281.55,-34.8046 1290.46,-33.4669 1299.34,-32.075"/>
<polygon fill="crimson" stroke="crimson" points="1300.01,-35.5132 1309.34,-30.4852 1298.91,-28.6001 1300.01,-35.5132"/>
</g>
</g>
</svg>
