<?xml version="1.0" encoding="UTF-8" standalone="no"?>
<!DOCTYPE svg PUBLIC "-//W3C//DTD SVG 1.1//EN"
 "http://www.w3.org/Graphics/SVG/1.1/DTD/svg11.dtd">
<!-- Generated by graphviz version 2.26.3 (20100126.1600)
 -->
<!-- Title: start_kernel_dot Pages: 1 -->
<svg width="562pt" height="506pt"
 viewBox="0.00 0.00 562.00 506.00" xmlns="http://www.w3.org/2000/svg" xmlns:xlink="http://www.w3.org/1999/xlink">
<g id="graph1" class="graph" transform="scale(1 1) rotate(0) translate(4 502)">
<title>start_kernel_dot</title>
<polygon fill="white" stroke="white" points="-4,5 -4,-502 559,-502 559,5 -4,5"/>
<!-- start_kernel -->
<g id="node1" class="node"><title>start_kernel</title>
<ellipse fill="none" stroke="skyblue" cx="225" cy="-480" rx="46.7846" ry="18"/>
<text text-anchor="middle" x="225" y="-477.5" font-family="Verdana" font-size="10.00">start_kernel</text>
</g>
<!-- setup_arch -->
<g id="node3" class="node"><title>setup_arch</title>
<ellipse fill="none" stroke="skyblue" cx="164" cy="-408" rx="43.8243" ry="18"/>
<text text-anchor="middle" x="164" y="-405.5" font-family="Verdana" font-size="10.00">setup_arch</text>
</g>
<!-- start_kernel&#45;&gt;setup_arch -->
<g id="edge2" class="edge"><title>start_kernel&#45;&gt;setup_arch</title>
<path fill="none" stroke="crimson" d="M210.234,-462.571C202.741,-453.727 193.504,-442.824 185.261,-433.094"/>
<polygon fill="crimson" stroke="crimson" points="187.765,-430.636 178.63,-425.269 182.424,-435.161 187.765,-430.636"/>
</g>
<!-- rest_init -->
<g id="node5" class="node"><title>rest_init</title>
<ellipse fill="none" stroke="skyblue" cx="287" cy="-408" rx="35.0885" ry="18"/>
<text text-anchor="middle" x="287" y="-405.5" font-family="Verdana" font-size="10.00">rest_init</text>
</g>
<!-- start_kernel&#45;&gt;rest_init -->
<g id="edge4" class="edge"><title>start_kernel&#45;&gt;rest_init</title>
<path fill="none" stroke="crimson" d="M240.008,-462.571C247.813,-453.507 257.481,-442.281 266.014,-432.371"/>
<polygon fill="crimson" stroke="crimson" points="268.684,-434.634 272.557,-424.773 263.379,-430.067 268.684,-434.634"/>
</g>
<!-- paging_init -->
<g id="node7" class="node"><title>paging_init</title>
<ellipse fill="none" stroke="skyblue" cx="43" cy="-336" rx="43.0911" ry="18"/>
<text text-anchor="middle" x="43" y="-333.5" font-family="Verdana" font-size="10.00">paging_init</text>
</g>
<!-- setup_arch&#45;&gt;paging_init -->
<g id="edge6" class="edge"><title>setup_arch&#45;&gt;paging_init</title>
<path fill="none" stroke="crimson" d="M138.929,-393.082C120.92,-382.366 96.4453,-367.802 76.725,-356.068"/>
<polygon fill="crimson" stroke="crimson" points="78.4226,-353.005 68.0392,-350.899 74.8431,-359.021 78.4226,-353.005"/>
</g>
<!-- kernel_thread_kernel_init -->
<g id="node9" class="node"><title>kernel_thread_kernel_init</title>
<ellipse fill="none" stroke="skyblue" cx="192" cy="-336" rx="88.0289" ry="18"/>
<text text-anchor="middle" x="192" y="-333.5" font-family="Verdana" font-size="10.00">kernel_thread(kernel_init)</text>
</g>
<!-- rest_init&#45;&gt;kernel_thread_kernel_init -->
<g id="edge8" class="edge"><title>rest_init&#45;&gt;kernel_thread_kernel_init</title>
<path fill="none" stroke="crimson" d="M267.316,-393.082C254.595,-383.441 237.765,-370.685 223.241,-359.677"/>
<polygon fill="crimson" stroke="crimson" points="225.088,-356.686 215.004,-353.435 220.86,-362.265 225.088,-356.686"/>
</g>
<!-- kernel_thread_kthreadd -->
<g id="node11" class="node"><title>kernel_thread_kthreadd</title>
<ellipse fill="none" stroke="skyblue" cx="382" cy="-336" rx="83.8364" ry="18"/>
<text text-anchor="middle" x="382" y="-333.5" font-family="Verdana" font-size="10.00">kernel_thread(kthreadd)</text>
</g>
<!-- rest_init&#45;&gt;kernel_thread_kthreadd -->
<g id="edge10" class="edge"><title>rest_init&#45;&gt;kernel_thread_kthreadd</title>
<path fill="none" stroke="crimson" d="M306.684,-393.082C319.405,-383.441 336.235,-370.685 350.759,-359.677"/>
<polygon fill="crimson" stroke="crimson" points="353.14,-362.265 358.996,-353.435 348.912,-356.686 353.14,-362.265"/>
</g>
<!-- cpu_idle -->
<g id="node13" class="node"><title>cpu_idle</title>
<ellipse fill="none" stroke="skyblue" cx="519" cy="-336" rx="35.0885" ry="18"/>
<text text-anchor="middle" x="519" y="-333.5" font-family="Verdana" font-size="10.00">cpu_idle</text>
</g>
<!-- rest_init&#45;&gt;cpu_idle -->
<g id="edge12" class="edge"><title>rest_init&#45;&gt;cpu_idle</title>
<path fill="none" stroke="crimson" d="M318.595,-400.048C356.217,-390.322 420.782,-372.814 475,-354 477.388,-353.171 479.834,-352.283 482.291,-351.362"/>
<polygon fill="crimson" stroke="crimson" points="483.662,-354.584 491.714,-347.699 481.125,-348.06 483.662,-354.584"/>
</g>
<!-- kernel_init -->
<g id="node15" class="node"><title>kernel_init</title>
<ellipse fill="none" stroke="skyblue" cx="192" cy="-264" rx="41.2443" ry="18"/>
<text text-anchor="middle" x="192" y="-261.5" font-family="Verdana" font-size="10.00">kernel_init</text>
</g>
<!-- kernel_thread_kernel_init&#45;&gt;kernel_init -->
<g id="edge14" class="edge"><title>kernel_thread_kernel_init&#45;&gt;kernel_init</title>
<path fill="none" stroke="limegreen" stroke-dasharray="5,2" d="M192,-317.831C192,-310.131 192,-300.974 192,-292.417"/>
<polygon fill="limegreen" stroke="limegreen" points="195.5,-292.413 192,-282.413 188.5,-292.413 195.5,-292.413"/>
</g>
<!-- kernel threads(kthread_create) -->
<g id="node17" class="node"><title>kernel threads(kthread_create)</title>
<ellipse fill="none" stroke="skyblue" cx="382" cy="-264" rx="105.881" ry="18"/>
<text text-anchor="middle" x="382" y="-261.5" font-family="Verdana" font-size="10.00">kernel threads(kthread_create)</text>
</g>
<!-- kernel_thread_kthreadd&#45;&gt;kernel threads(kthread_create) -->
<g id="edge16" class="edge"><title>kernel_thread_kthreadd&#45;&gt;kernel threads(kthread_create)</title>
<path fill="none" stroke="limegreen" stroke-dasharray="5,2" d="M382,-317.831C382,-310.131 382,-300.974 382,-292.417"/>
<polygon fill="limegreen" stroke="limegreen" points="385.5,-292.413 382,-282.413 378.5,-292.413 385.5,-292.413"/>
</g>
<!-- do_basic_setup -->
<g id="node19" class="node"><title>do_basic_setup</title>
<ellipse fill="none" stroke="skyblue" cx="136" cy="-192" rx="57.8652" ry="18"/>
<text text-anchor="middle" x="136" y="-189.5" font-family="Verdana" font-size="10.00">do_basic_setup</text>
</g>
<!-- kernel_init&#45;&gt;do_basic_setup -->
<g id="edge18" class="edge"><title>kernel_init&#45;&gt;do_basic_setup</title>
<path fill="none" stroke="crimson" d="M178.729,-246.937C171.975,-238.253 163.622,-227.514 156.098,-217.84"/>
<polygon fill="crimson" stroke="crimson" points="158.663,-215.437 149.761,-209.692 153.137,-219.735 158.663,-215.437"/>
</g>
<!-- init_post -->
<g id="node21" class="node"><title>init_post</title>
<ellipse fill="none" stroke="skyblue" cx="261" cy="-192" rx="35.8221" ry="18"/>
<text text-anchor="middle" x="261" y="-189.5" font-family="Verdana" font-size="10.00">init_post</text>
</g>
<!-- kernel_init&#45;&gt;init_post -->
<g id="edge20" class="edge"><title>kernel_init&#45;&gt;init_post</title>
<path fill="none" stroke="crimson" d="M208.003,-247.301C216.886,-238.032 228.092,-226.339 237.909,-216.095"/>
<polygon fill="crimson" stroke="crimson" points="240.691,-218.25 245.083,-208.609 235.637,-213.407 240.691,-218.25"/>
</g>
<!-- do_initcalls -->
<g id="node23" class="node"><title>do_initcalls</title>
<ellipse fill="none" stroke="skyblue" cx="130" cy="-120" rx="43.2043" ry="18"/>
<text text-anchor="middle" x="130" y="-117.5" font-family="Verdana" font-size="10.00">do_initcalls</text>
</g>
<!-- do_basic_setup&#45;&gt;do_initcalls -->
<g id="edge22" class="edge"><title>do_basic_setup&#45;&gt;do_initcalls</title>
<path fill="none" stroke="crimson" d="M134.486,-173.831C133.844,-166.131 133.081,-156.974 132.368,-148.417"/>
<polygon fill="crimson" stroke="crimson" points="135.853,-148.088 131.534,-138.413 128.877,-148.669 135.853,-148.088"/>
</g>
<!-- run_init_process(/init) -->
<g id="node25" class="node"><title>run_init_process(/init)</title>
<ellipse fill="none" stroke="skyblue" cx="268" cy="-120" rx="77.0636" ry="18"/>
<text text-anchor="middle" x="268" y="-117.5" font-family="Verdana" font-size="10.00">run_init_process(/init)</text>
</g>
<!-- init_post&#45;&gt;run_init_process(/init) -->
<g id="edge24" class="edge"><title>init_post&#45;&gt;run_init_process(/init)</title>
<path fill="none" stroke="crimson" d="M262.766,-173.831C263.515,-166.131 264.405,-156.974 265.237,-148.417"/>
<polygon fill="crimson" stroke="crimson" points="268.726,-148.705 266.21,-138.413 261.758,-148.028 268.726,-148.705"/>
</g>
<!-- do_one_initcall -->
<g id="node27" class="node"><title>do_one_initcall</title>
<ellipse fill="none" stroke="skyblue" cx="130" cy="-33" rx="115.966" ry="33.234"/>
<text text-anchor="middle" x="130" y="-43.5" font-family="Verdana" font-size="10.00">do_one_initcall(*fn)</text>
<text text-anchor="middle" x="130" y="-30.5" font-family="Verdana" font-size="10.00">for (fn = __early_initcall_end;</text>
<text text-anchor="middle" x="130" y="-17.5" font-family="Verdana" font-size="10.00"> fn &lt; __initcall_end; fn++)</text>
</g>
<!-- do_initcalls&#45;&gt;do_one_initcall -->
<g id="edge26" class="edge"><title>do_initcalls&#45;&gt;do_one_initcall</title>
<path fill="none" stroke="crimson" d="M130,-101.974C130,-94.4519 130,-85.3613 130,-76.2833"/>
<polygon fill="crimson" stroke="crimson" points="133.5,-76.1236 130,-66.1236 126.5,-76.1237 133.5,-76.1236"/>
</g>
</g>
</svg>
