<?xml version="1.0" encoding="UTF-8" standalone="no"?>
<!DOCTYPE svg PUBLIC "-//W3C//DTD SVG 1.1//EN"
 "http://www.w3.org/Graphics/SVG/1.1/DTD/svg11.dtd">
<!-- Generated by graphviz version 2.26.3 (20100126.1600)
 -->
<!-- Title: hibernation_dot Pages: 1 -->
<svg width="1229pt" height="476pt"
 viewBox="0.00 0.00 1229.00 476.00" xmlns="http://www.w3.org/2000/svg" xmlns:xlink="http://www.w3.org/1999/xlink">
<g id="graph1" class="graph" transform="scale(1 1) rotate(0) translate(4 472)">
<title>hibernation_dot</title>
<polygon fill="white" stroke="white" points="-4,5 -4,-472 1226,-472 1226,5 -4,5"/>
<!-- pm_suspend -->
<g id="node1" class="node"><title>pm_suspend</title>
<ellipse fill="none" stroke="skyblue" cx="574" cy="-450" rx="46.9013" ry="18"/>
<text text-anchor="middle" x="574" y="-447.5" font-family="Verdana" font-size="10.00">pm_suspend</text>
</g>
<!-- enter_state -->
<g id="node3" class="node"><title>enter_state</title>
<ellipse fill="none" stroke="skyblue" cx="574" cy="-378" rx="46.169" ry="18"/>
<text text-anchor="middle" x="574" y="-375.5" font-family="Verdana" font-size="10.00">enter_state</text>
</g>
<!-- pm_suspend&#45;&gt;enter_state -->
<g id="edge2" class="edge"><title>pm_suspend&#45;&gt;enter_state</title>
<path fill="none" stroke="crimson" d="M574,-431.831C574,-424.131 574,-414.974 574,-406.417"/>
<polygon fill="crimson" stroke="crimson" points="577.5,-406.413 574,-396.413 570.5,-406.413 577.5,-406.413"/>
</g>
<!-- sys_sync -->
<g id="node5" class="node"><title>sys_sync</title>
<ellipse fill="none" stroke="skyblue" cx="525" cy="-306" rx="38.1664" ry="18"/>
<text text-anchor="middle" x="525" y="-303.5" font-family="Verdana" font-size="10.00">sys_sync</text>
</g>
<!-- enter_state&#45;&gt;sys_sync -->
<g id="edge4" class="edge"><title>enter_state&#45;&gt;sys_sync</title>
<path fill="none" stroke="crimson" d="M562.138,-360.571C556.24,-351.904 548.996,-341.259 542.476,-331.68"/>
<polygon fill="crimson" stroke="crimson" points="545.272,-329.567 536.752,-323.269 539.485,-333.505 545.272,-329.567"/>
</g>
<!-- hibernation -->
<g id="node11" class="node"><title>hibernation</title>
<ellipse fill="none" stroke="skyblue" cx="624" cy="-306" rx="43.2043" ry="18"/>
<text text-anchor="middle" x="624" y="-303.5" font-family="Verdana" font-size="10.00">hibernation</text>
</g>
<!-- enter_state&#45;&gt;hibernation -->
<g id="edge6" class="edge"><title>enter_state&#45;&gt;hibernation</title>
<path fill="none" stroke="crimson" d="M586.104,-360.571C592.078,-351.968 599.406,-341.416 606.02,-331.891"/>
<polygon fill="crimson" stroke="crimson" points="609.005,-333.728 611.835,-323.518 603.256,-329.736 609.005,-333.728"/>
</g>
<!-- suspend_prepare -->
<g id="node6" class="node"><title>suspend_prepare</title>
<ellipse fill="none" stroke="skyblue" cx="701" cy="-450" rx="62.1743" ry="18"/>
<text text-anchor="middle" x="701" y="-447.5" font-family="Verdana" font-size="10.00">suspend_prepare</text>
</g>
<!-- suspend_test -->
<g id="node7" class="node"><title>suspend_test</title>
<ellipse fill="none" stroke="skyblue" cx="832" cy="-450" rx="51.0937" ry="18"/>
<text text-anchor="middle" x="832" y="-447.5" font-family="Verdana" font-size="10.00">suspend_test</text>
</g>
<!-- suspend_devices_and_enter -->
<g id="node8" class="node"><title>suspend_devices_and_enter</title>
<ellipse fill="none" stroke="skyblue" cx="997" cy="-450" rx="96.1464" ry="18"/>
<text text-anchor="middle" x="997" y="-447.5" font-family="Verdana" font-size="10.00">suspend_devices_and_enter</text>
</g>
<!-- suspend_finish -->
<g id="node9" class="node"><title>suspend_finish</title>
<ellipse fill="none" stroke="skyblue" cx="1166" cy="-450" rx="54.7872" ry="18"/>
<text text-anchor="middle" x="1166" y="-447.5" font-family="Verdana" font-size="10.00">suspend_finish</text>
</g>
<!-- prepare_processes -->
<g id="node13" class="node"><title>prepare_processes</title>
<ellipse fill="none" stroke="skyblue" cx="320" cy="-234" rx="67.213" ry="18"/>
<text text-anchor="middle" x="320" y="-231.5" font-family="Verdana" font-size="10.00">prepare_processes</text>
</g>
<!-- hibernation&#45;&gt;prepare_processes -->
<g id="edge8" class="edge"><title>hibernation&#45;&gt;prepare_processes</title>
<path fill="none" stroke="crimson" d="M591.473,-294.007C585.065,-291.853 578.357,-289.742 572,-288 494.998,-266.896 473.967,-269.202 396,-252 390.917,-250.878 385.649,-249.688 380.366,-248.476"/>
<polygon fill="crimson" stroke="crimson" points="380.765,-244.976 370.233,-246.128 379.185,-251.795 380.765,-244.976"/>
</g>
<!-- hibernation_snapshot -->
<g id="node15" class="node"><title>hibernation_snapshot</title>
<ellipse fill="none" stroke="skyblue" cx="480" cy="-234" rx="75.1016" ry="18"/>
<text text-anchor="middle" x="480" y="-231.5" font-family="Verdana" font-size="10.00">hibernation_snapshot</text>
</g>
<!-- hibernation&#45;&gt;hibernation_snapshot -->
<g id="edge10" class="edge"><title>hibernation&#45;&gt;hibernation_snapshot</title>
<path fill="none" stroke="crimson" d="M596.235,-292.118C575.095,-281.548 545.648,-266.824 521.684,-254.842"/>
<polygon fill="crimson" stroke="crimson" points="522.972,-251.573 512.462,-250.231 519.841,-257.834 522.972,-251.573"/>
</g>
<!-- swsusp_write -->
<g id="node17" class="node"><title>swsusp_write</title>
<ellipse fill="none" stroke="skyblue" cx="624" cy="-234" rx="51.0937" ry="18"/>
<text text-anchor="middle" x="624" y="-231.5" font-family="Verdana" font-size="10.00">swsusp_write</text>
</g>
<!-- hibernation&#45;&gt;swsusp_write -->
<g id="edge12" class="edge"><title>hibernation&#45;&gt;swsusp_write</title>
<path fill="none" stroke="crimson" d="M624,-287.831C624,-280.131 624,-270.974 624,-262.417"/>
<polygon fill="crimson" stroke="crimson" points="627.5,-262.413 624,-252.413 620.5,-262.413 627.5,-262.413"/>
</g>
<!-- power_down -->
<g id="node19" class="node"><title>power_down</title>
<ellipse fill="none" stroke="skyblue" cx="741" cy="-234" rx="48.13" ry="18"/>
<text text-anchor="middle" x="741" y="-231.5" font-family="Verdana" font-size="10.00">power_down</text>
</g>
<!-- hibernation&#45;&gt;power_down -->
<g id="edge14" class="edge"><title>hibernation&#45;&gt;power_down</title>
<path fill="none" stroke="crimson" d="M648.242,-291.082C665.346,-280.556 688.482,-266.319 707.369,-254.696"/>
<polygon fill="crimson" stroke="crimson" points="709.299,-257.618 715.981,-249.396 705.63,-251.656 709.299,-257.618"/>
</g>
<!-- in_suspend = 0 -->
<g id="node21" class="node"><title>in_suspend = 0</title>
<ellipse fill="none" stroke="skyblue" cx="863" cy="-234" rx="56.1328" ry="18"/>
<text text-anchor="middle" x="863" y="-231.5" font-family="Verdana" font-size="10.00">in_suspend = 0</text>
</g>
<!-- hibernation&#45;&gt;in_suspend = 0 -->
<g id="edge16" class="edge"><title>hibernation&#45;&gt;in_suspend = 0</title>
<path fill="none" stroke="crimson" d="M659.009,-295.453C699.354,-283.299 766.006,-263.22 812.087,-249.338"/>
<polygon fill="crimson" stroke="crimson" points="813.314,-252.624 821.879,-246.388 811.295,-245.921 813.314,-252.624"/>
</g>
<!-- dpm_prepare -->
<g id="node23" class="node"><title>dpm_prepare</title>
<ellipse fill="none" stroke="skyblue" cx="49" cy="-162" rx="49.247" ry="18"/>
<text text-anchor="middle" x="49" y="-159.5" font-family="Verdana" font-size="10.00">dpm_prepare</text>
</g>
<!-- hibernation_snapshot&#45;&gt;dpm_prepare -->
<g id="edge18" class="edge"><title>hibernation_snapshot&#45;&gt;dpm_prepare</title>
<path fill="none" stroke="crimson" d="M425.459,-221.591C415.679,-219.572 405.559,-217.616 396,-216 268.375,-194.419 233.528,-207.289 107,-180 103.111,-179.161 99.1083,-178.179 95.11,-177.113"/>
<polygon fill="crimson" stroke="crimson" points="95.8222,-173.677 85.2473,-174.327 93.9192,-180.414 95.8222,-173.677"/>
</g>
<!-- hibernate_preallocate_memory -->
<g id="node25" class="node"><title>hibernate_preallocate_memory</title>
<ellipse fill="none" stroke="skyblue" cx="219" cy="-162" rx="102.919" ry="18"/>
<text text-anchor="middle" x="219" y="-159.5" font-family="Verdana" font-size="10.00">hibernate_preallocate_memory</text>
</g>
<!-- hibernation_snapshot&#45;&gt;hibernate_preallocate_memory -->
<g id="edge20" class="edge"><title>hibernation_snapshot&#45;&gt;hibernate_preallocate_memory</title>
<path fill="none" stroke="crimson" d="M430.601,-220.373C389.158,-208.94 329.636,-192.52 284.271,-180.006"/>
<polygon fill="crimson" stroke="crimson" points="285.097,-176.603 274.527,-177.318 283.236,-183.351 285.097,-176.603"/>
</g>
<!-- suspend_console -->
<g id="node27" class="node"><title>suspend_console</title>
<ellipse fill="none" stroke="skyblue" cx="402" cy="-162" rx="62.1743" ry="18"/>
<text text-anchor="middle" x="402" y="-159.5" font-family="Verdana" font-size="10.00">suspend_console</text>
</g>
<!-- hibernation_snapshot&#45;&gt;suspend_console -->
<g id="edge22" class="edge"><title>hibernation_snapshot&#45;&gt;suspend_console</title>
<path fill="none" stroke="crimson" d="M461.118,-216.571C451.25,-207.462 439.015,-196.168 428.241,-186.222"/>
<polygon fill="crimson" stroke="crimson" points="430.43,-183.48 420.708,-179.269 425.682,-188.623 430.43,-183.48"/>
</g>
<!-- pm_restrict_gfp_mask -->
<g id="node29" class="node"><title>pm_restrict_gfp_mask</title>
<ellipse fill="none" stroke="skyblue" cx="559" cy="-162" rx="76.9484" ry="18"/>
<text text-anchor="middle" x="559" y="-159.5" font-family="Verdana" font-size="10.00">pm_restrict_gfp_mask</text>
</g>
<!-- hibernation_snapshot&#45;&gt;pm_restrict_gfp_mask -->
<g id="edge24" class="edge"><title>hibernation_snapshot&#45;&gt;pm_restrict_gfp_mask</title>
<path fill="none" stroke="crimson" d="M499.124,-216.571C509.045,-207.529 521.328,-196.334 532.182,-186.442"/>
<polygon fill="crimson" stroke="crimson" points="534.745,-188.841 539.779,-179.518 530.03,-183.667 534.745,-188.841"/>
</g>
<!-- dpm_suspend -->
<g id="node31" class="node"><title>dpm_suspend</title>
<ellipse fill="none" stroke="skyblue" cx="705" cy="-162" rx="51.0937" ry="18"/>
<text text-anchor="middle" x="705" y="-159.5" font-family="Verdana" font-size="10.00">dpm_suspend</text>
</g>
<!-- hibernation_snapshot&#45;&gt;dpm_suspend -->
<g id="edge26" class="edge"><title>hibernation_snapshot&#45;&gt;dpm_suspend</title>
<path fill="none" stroke="crimson" d="M525.261,-219.516C563.591,-207.251 618.369,-189.722 657.36,-177.245"/>
<polygon fill="crimson" stroke="crimson" points="658.456,-180.569 666.913,-174.188 656.322,-173.902 658.456,-180.569"/>
</g>
<!-- create_image -->
<g id="node33" class="node"><title>create_image</title>
<ellipse fill="none" stroke="skyblue" cx="825" cy="-162" rx="51.0937" ry="18"/>
<text text-anchor="middle" x="825" y="-159.5" font-family="Verdana" font-size="10.00">create_image</text>
</g>
<!-- hibernation_snapshot&#45;&gt;create_image -->
<g id="edge28" class="edge"><title>hibernation_snapshot&#45;&gt;create_image</title>
<path fill="none" stroke="crimson" d="M535.522,-221.825C545.011,-219.824 554.78,-217.813 564,-216 653.05,-198.49 676.726,-201.073 765,-180 769.046,-179.034 773.223,-177.955 777.4,-176.818"/>
<polygon fill="crimson" stroke="crimson" points="778.414,-180.169 787.089,-174.086 776.514,-173.431 778.414,-180.169"/>
</g>
<!-- dpm_suspend_noirq -->
<g id="node35" class="node"><title>dpm_suspend_noirq</title>
<ellipse fill="none" stroke="skyblue" cx="597" cy="-90" rx="69.0609" ry="18"/>
<text text-anchor="middle" x="597" y="-87.5" font-family="Verdana" font-size="10.00">dpm_suspend_noirq</text>
</g>
<!-- create_image&#45;&gt;dpm_suspend_noirq -->
<g id="edge30" class="edge"><title>create_image&#45;&gt;dpm_suspend_noirq</title>
<path fill="none" stroke="crimson" d="M786.838,-149.949C749.635,-138.2 692.71,-120.224 650.895,-107.019"/>
<polygon fill="crimson" stroke="crimson" points="651.737,-103.615 641.148,-103.941 649.629,-110.29 651.737,-103.615"/>
</g>
<!-- syscore_suspend -->
<g id="node37" class="node"><title>syscore_suspend</title>
<ellipse fill="none" stroke="skyblue" cx="746" cy="-90" rx="62.1743" ry="18"/>
<text text-anchor="middle" x="746" y="-87.5" font-family="Verdana" font-size="10.00">syscore_suspend</text>
</g>
<!-- create_image&#45;&gt;syscore_suspend -->
<g id="edge32" class="edge"><title>create_image&#45;&gt;syscore_suspend</title>
<path fill="none" stroke="crimson" d="M806.278,-144.937C796.12,-135.679 783.4,-124.086 772.265,-113.938"/>
<polygon fill="crimson" stroke="crimson" points="774.61,-111.339 764.861,-107.19 769.895,-116.513 774.61,-111.339"/>
</g>
<!-- save_processor_state -->
<g id="node39" class="node"><title>save_processor_state</title>
<ellipse fill="none" stroke="skyblue" cx="903" cy="-90" rx="77.0636" ry="18"/>
<text text-anchor="middle" x="903" y="-87.5" font-family="Verdana" font-size="10.00">save_processor_state</text>
</g>
<!-- create_image&#45;&gt;save_processor_state -->
<g id="edge34" class="edge"><title>create_image&#45;&gt;save_processor_state</title>
<path fill="none" stroke="crimson" d="M843.485,-144.937C853.273,-135.902 865.471,-124.643 876.271,-114.673"/>
<polygon fill="crimson" stroke="crimson" points="878.859,-117.047 883.833,-107.692 874.111,-111.903 878.859,-117.047"/>
</g>
<!-- swsusp_arch_suspend -->
<g id="node41" class="node"><title>swsusp_arch_suspend</title>
<ellipse fill="none" stroke="skyblue" cx="1076" cy="-90" rx="78.1796" ry="18"/>
<text text-anchor="middle" x="1076" y="-87.5" font-family="Verdana" font-size="10.00">swsusp_arch_suspend</text>
</g>
<!-- create_image&#45;&gt;swsusp_arch_suspend -->
<g id="edge36" class="edge"><title>create_image&#45;&gt;swsusp_arch_suspend</title>
<path fill="none" stroke="crimson" d="M864.772,-150.591C905.811,-138.819 970.277,-120.327 1017.2,-106.866"/>
<polygon fill="crimson" stroke="crimson" points="1018.29,-110.196 1026.94,-104.074 1016.36,-103.467 1018.29,-110.196"/>
</g>
<!-- image_hibernation -->
<g id="node43" class="node"><title>image_hibernation</title>
<ellipse fill="none" stroke="skyblue" cx="1076" cy="-18" rx="64.7541" ry="18"/>
<text text-anchor="middle" x="1076" y="-15.5" font-family="Verdana" font-size="10.00">image_hibernation</text>
</g>
<!-- swsusp_arch_suspend&#45;&gt;image_hibernation -->
<g id="edge38" class="edge"><title>swsusp_arch_suspend&#45;&gt;image_hibernation</title>
<path fill="none" stroke="limegreen" stroke-dasharray="5,2" d="M1076,-71.8314C1076,-64.131 1076,-54.9743 1076,-46.4166"/>
<polygon fill="limegreen" stroke="limegreen" points="1079.5,-46.4132 1076,-36.4133 1072.5,-46.4133 1079.5,-46.4132"/>
</g>
</g>
</svg>
