<?xml version="1.0" encoding="UTF-8" standalone="no"?>
<!DOCTYPE svg PUBLIC "-//W3C//DTD SVG 1.1//EN"
 "http://www.w3.org/Graphics/SVG/1.1/DTD/svg11.dtd">
<!-- Generated by graphviz version 2.26.3 (20100126.1600)
 -->
<!-- Title: task Pages: 1 -->
<svg width="640pt" height="788pt"
 viewBox="0.00 0.00 640.00 787.95" xmlns="http://www.w3.org/2000/svg" xmlns:xlink="http://www.w3.org/1999/xlink">
<g id="graph1" class="graph" transform="scale(1 1) rotate(0) translate(4 783.949)">
<title>task</title>
<polygon fill="white" stroke="white" points="-4,5 -4,-783.949 637,-783.949 637,5 -4,5"/>
<!-- thread_info -->
<g id="node1" class="node"><title>thread_info</title>
<polygon fill="none" stroke="skyblue" points="180,-556.5 180,-763.5 388,-763.5 388,-556.5 180,-556.5"/>
<text text-anchor="middle" x="284" y="-750.5" font-family="Verdana" font-size="10.00">struct thread_info</text>
<polyline fill="none" stroke="skyblue" points="180,-742.5 388,-742.5 "/>
<text text-anchor="start" x="188" y="-729.5" font-family="Verdana" font-size="10.00">unsigned long flags</text>
<polyline fill="none" stroke="skyblue" points="180,-721.5 388,-721.5 "/>
<text text-anchor="start" x="188" y="-708.5" font-family="Verdana" font-size="10.00">int preempt_count</text>
<text text-anchor="start" x="188" y="-695.5" font-family="Verdana" font-size="10.00">(0 preemptable, &lt;0 bug)</text>
<polyline fill="none" stroke="skyblue" points="180,-687.5 388,-687.5 "/>
<text text-anchor="start" x="188" y="-674.5" font-family="Verdana" font-size="10.00">mm_segment_t addr_limit</text>
<polyline fill="none" stroke="skyblue" points="180,-666.5 388,-666.5 "/>
<text text-anchor="start" x="188" y="-653.5" font-family="Verdana" font-size="10.00">struct task_struct* task</text>
<polyline fill="none" stroke="skyblue" points="180,-645.5 388,-645.5 "/>
<text text-anchor="start" x="188" y="-632.5" font-family="Verdana" font-size="10.00">struct exec_domain *exec_domain</text>
<text text-anchor="start" x="188" y="-619.5" font-family="Verdana" font-size="10.00">__u32 cpu</text>
<text text-anchor="start" x="188" y="-606.5" font-family="Verdana" font-size="10.00">__u32 cpu_domain</text>
<polyline fill="none" stroke="skyblue" points="180,-598.5 388,-598.5 "/>
<text text-anchor="start" x="188" y="-585.5" font-family="Verdana" font-size="10.00">struct cpu_context_save cpu_context</text>
<polyline fill="none" stroke="skyblue" points="180,-577.5 388,-577.5 "/>
<text text-anchor="middle" x="284" y="-564.5" font-family="Verdana" font-size="10.00">..</text>
</g>
<!-- task_struct -->
<g id="node2" class="node"><title>task_struct</title>
<polygon fill="none" stroke="skyblue" points="178,-74.5 178,-519.5 390,-519.5 390,-74.5 178,-74.5"/>
<text text-anchor="middle" x="284" y="-506.5" font-family="Verdana" font-size="10.00">struct task_struct</text>
<polyline fill="none" stroke="skyblue" points="178,-498.5 390,-498.5 "/>
<text text-anchor="start" x="186" y="-485.5" font-family="Verdana" font-size="10.00">volatile long state</text>
<polyline fill="none" stroke="skyblue" points="178,-477.5 390,-477.5 "/>
<text text-anchor="start" x="186" y="-464.5" font-family="Verdana" font-size="10.00">void *stack</text>
<polyline fill="none" stroke="skyblue" points="178,-456.5 390,-456.5 "/>
<text text-anchor="start" x="186" y="-443.5" font-family="Verdana" font-size="10.00">unsigned int flags</text>
<polyline fill="none" stroke="skyblue" points="178,-435.5 390,-435.5 "/>
<text text-anchor="middle" x="284" y="-422.5" font-family="Verdana" font-size="10.00">..</text>
<polyline fill="none" stroke="skyblue" points="178,-414.5 390,-414.5 "/>
<text text-anchor="start" x="186" y="-401.5" font-family="Verdana" font-size="10.00">int prio, static_prio, normal_prio</text>
<text text-anchor="start" x="186" y="-388.5" font-family="Verdana" font-size="10.00">unsigned int rt_priority</text>
<text text-anchor="start" x="186" y="-375.5" font-family="Verdana" font-size="10.00">const struct sched_class *sched_class</text>
<text text-anchor="start" x="186" y="-362.5" font-family="Verdana" font-size="10.00">struct sched_entity se</text>
<text text-anchor="start" x="186" y="-349.5" font-family="Verdana" font-size="10.00">struct sched_rt_entity rt</text>
<polyline fill="none" stroke="skyblue" points="178,-341.5 390,-341.5 "/>
<text text-anchor="middle" x="284" y="-328.5" font-family="Verdana" font-size="10.00">..</text>
<polyline fill="none" stroke="skyblue" points="178,-320.5 390,-320.5 "/>
<text text-anchor="start" x="186" y="-307.5" font-family="Verdana" font-size="10.00">struct list_head tasks</text>
<polyline fill="none" stroke="skyblue" points="178,-299.5 390,-299.5 "/>
<text text-anchor="start" x="186" y="-286.5" font-family="Verdana" font-size="10.00">struct mm_struct *mm, *active_mm</text>
<polyline fill="none" stroke="skyblue" points="178,-278.5 390,-278.5 "/>
<text text-anchor="middle" x="284" y="-265.5" font-family="Verdana" font-size="10.00">..</text>
<polyline fill="none" stroke="skyblue" points="178,-257.5 390,-257.5 "/>
<text text-anchor="start" x="186" y="-244.5" font-family="Verdana" font-size="10.00">pid_t pid</text>
<text text-anchor="start" x="186" y="-231.5" font-family="Verdana" font-size="10.00">pid_t tgid</text>
<polyline fill="none" stroke="skyblue" points="178,-223.5 390,-223.5 "/>
<text text-anchor="middle" x="284" y="-210.5" font-family="Verdana" font-size="10.00">..</text>
<polyline fill="none" stroke="skyblue" points="178,-202.5 390,-202.5 "/>
<text text-anchor="start" x="186" y="-189.5" font-family="Verdana" font-size="10.00">struct task_struct *real_parent</text>
<text text-anchor="start" x="186" y="-176.5" font-family="Verdana" font-size="10.00">struct task_struct *parent</text>
<text text-anchor="start" x="186" y="-163.5" font-family="Verdana" font-size="10.00">struct list_head children</text>
<text text-anchor="start" x="186" y="-150.5" font-family="Verdana" font-size="10.00">struct list_head sibling</text>
<text text-anchor="start" x="186" y="-137.5" font-family="Verdana" font-size="10.00">struct task_struct *group_leader</text>
<polyline fill="none" stroke="skyblue" points="178,-129.5 390,-129.5 "/>
<text text-anchor="start" x="186" y="-116.5" font-family="Verdana" font-size="10.00">struct pid_link pids[PIDTYPE_MAX]</text>
<text text-anchor="start" x="186" y="-103.5" font-family="Verdana" font-size="10.00">struct list_head thread_group</text>
<polyline fill="none" stroke="skyblue" points="178,-95.5 390,-95.5 "/>
<text text-anchor="middle" x="284" y="-82.5" font-family="Verdana" font-size="10.00">..</text>
</g>
<!-- thread_info&#45;&gt;task_struct -->
<g id="edge2" class="edge"><title>thread_info:s_task_struct&#45;&gt;task_struct:head</title>
<path fill="none" stroke="crimson" d="M389,-656C433.447,-656 413.961,-592.076 388,-556 361.773,-519.555 296.06,-560.902 285.455,-530.095"/>
<polygon fill="crimson" stroke="crimson" points="288.891,-529.398 284,-520 281.963,-530.397 288.891,-529.398"/>
</g>
<!-- task_struct&#45;&gt;thread_info -->
<g id="edge4" class="edge"><title>task_struct:s_stack&#45;&gt;thread_info:head</title>
<path fill="none" stroke="crimson" d="M390,-467C522.003,-467 481.278,-670.598 388,-764 374.023,-777.996 308.297,-785.749 288.595,-773.575"/>
<polygon fill="crimson" stroke="crimson" points="291.396,-771.462 283,-765 285.534,-775.287 291.396,-771.462"/>
</g>
<!-- list_add_tail_rcu(&amp;p&#45;&gt;tasks, &amp;init_task.tasks)\n(copy_process()) -->
<g id="node6" class="node"><title>list_add_tail_rcu(&amp;p&#45;&gt;tasks, &amp;init_task.tasks)\n(copy_process())</title>
<polygon fill="none" stroke="skyblue" points="0,-1 0,-37 244,-37 244,-1 0,-1"/>
<text text-anchor="middle" x="122" y="-23" font-family="Verdana" font-size="10.00">list_add_tail_rcu(&amp;p&#45;&gt;tasks, &amp;init_task.tasks)</text>
<text text-anchor="middle" x="122" y="-10" font-family="Verdana" font-size="10.00">(copy_process())</text>
</g>
<!-- task_struct&#45;&gt;list_add_tail_rcu(&amp;p&#45;&gt;tasks, &amp;init_task.tasks)\n(copy_process()) -->
<g id="edge6" class="edge"><title>task_struct:s_tasks&#45;&gt;list_add_tail_rcu(&amp;p&#45;&gt;tasks, &amp;init_task.tasks)\n(copy_process())</title>
<path fill="none" stroke="crimson" d="M166.973,-309.398C72.6274,-297.676 100.723,-117.827 115.517,-47.1822"/>
<polygon fill="crimson" stroke="crimson" points="166.808,-312.895 177,-310 167.228,-305.907 166.808,-312.895"/>
<polygon fill="crimson" stroke="crimson" points="118.983,-47.7168 117.672,-37.2034 112.14,-46.2392 118.983,-47.7168"/>
</g>
<!-- list_add_tail_rcu(&amp;p&#45;&gt;thread_group, &amp;p&#45;&gt;group_leader&#45;&gt;thread_group)\n(copy_process()) -->
<g id="node8" class="node"><title>list_add_tail_rcu(&amp;p&#45;&gt;thread_group, &amp;p&#45;&gt;group_leader&#45;&gt;thread_group)\n(copy_process())</title>
<polygon fill="none" stroke="skyblue" points="261.5,-1 261.5,-37 632.5,-37 632.5,-1 261.5,-1"/>
<text text-anchor="middle" x="447" y="-23" font-family="Verdana" font-size="10.00">list_add_tail_rcu(&amp;p&#45;&gt;thread_group, &amp;p&#45;&gt;group_leader&#45;&gt;thread_group)</text>
<text text-anchor="middle" x="447" y="-10" font-family="Verdana" font-size="10.00">(copy_process())</text>
</g>
<!-- task_struct&#45;&gt;list_add_tail_rcu(&amp;p&#45;&gt;thread_group, &amp;p&#45;&gt;group_leader&#45;&gt;thread_group)\n(copy_process()) -->
<g id="edge8" class="edge"><title>task_struct:s_thread_group&#45;&gt;list_add_tail_rcu(&amp;p&#45;&gt;thread_group, &amp;p&#45;&gt;group_leader&#45;&gt;thread_group)\n(copy_process())</title>
<path fill="none" stroke="crimson" d="M401.236,-110.494C424.814,-103.272 436.593,-71.5449 442.231,-47.46"/>
<polygon fill="crimson" stroke="crimson" points="400.384,-107.081 391,-112 401.403,-114.007 400.384,-107.081"/>
<polygon fill="crimson" stroke="crimson" points="445.72,-47.8797 444.35,-37.3738 438.869,-46.4409 445.72,-47.8797"/>
</g>
</g>
</svg>
