<?xml version="1.0" encoding="UTF-8" standalone="no"?>
<!DOCTYPE svg PUBLIC "-//W3C//DTD SVG 1.1//EN"
 "http://www.w3.org/Graphics/SVG/1.1/DTD/svg11.dtd">
<!-- Generated by graphviz version 2.26.3 (20100126.1600)
 -->
<!-- Title: v4l2_dot Pages: 1 -->
<svg width="1646pt" height="548pt"
 viewBox="0.00 0.00 1646.00 548.00" xmlns="http://www.w3.org/2000/svg" xmlns:xlink="http://www.w3.org/1999/xlink">
<g id="graph1" class="graph" transform="scale(1 1) rotate(0) translate(4 544)">
<title>v4l2_dot</title>
<polygon fill="white" stroke="white" points="-4,5 -4,-544 1643,-544 1643,5 -4,5"/>
<!-- videodev_init -->
<g id="node1" class="node"><title>videodev_init</title>
<ellipse fill="none" stroke="skyblue" cx="281" cy="-360" rx="57.9828" ry="24.0416"/>
<text text-anchor="middle" x="281" y="-364" font-family="Verdana" font-size="10.00">videodev_init</text>
<text text-anchor="middle" x="281" y="-351" font-family="Verdana" font-size="10.00">(v4l2&#45;dev.c)</text>
</g>
<!-- register_chrdev_region -->
<g id="node2" class="node"><title>register_chrdev_region</title>
<ellipse fill="none" stroke="skyblue" cx="149" cy="-276" rx="149.087" ry="18"/>
<text text-anchor="middle" x="149" y="-273.5" font-family="Verdana" font-size="10.00">register_chrdev_region(dev,256,&quot;video4linux&quot;)</text>
</g>
<!-- videodev_init&#45;&gt;register_chrdev_region -->
<g id="edge2" class="edge"><title>videodev_init&#45;&gt;register_chrdev_region</title>
<path fill="none" stroke="crimson" d="M249.046,-339.666C229.905,-327.485 205.501,-311.955 185.588,-299.283"/>
<polygon fill="crimson" stroke="crimson" points="187.39,-296.282 177.075,-293.866 183.632,-302.187 187.39,-296.282"/>
</g>
<!-- class_register -->
<g id="node3" class="node"><title>class_register</title>
<ellipse fill="none" stroke="skyblue" cx="413" cy="-276" rx="96.764" ry="18"/>
<text text-anchor="middle" x="413" y="-273.5" font-family="Verdana" font-size="10.00">class_register(&amp;video_class)</text>
</g>
<!-- videodev_init&#45;&gt;class_register -->
<g id="edge4" class="edge"><title>videodev_init&#45;&gt;class_register</title>
<path fill="none" stroke="crimson" d="M312.954,-339.666C332.361,-327.316 357.178,-311.523 377.239,-298.757"/>
<polygon fill="crimson" stroke="crimson" points="379.242,-301.631 385.8,-293.309 375.484,-295.725 379.242,-301.631"/>
</g>
<!-- cdev_add -->
<g id="node7" class="node"><title>cdev_add</title>
<ellipse fill="none" stroke="skyblue" cx="285" cy="-192" rx="123.951" ry="24.0416"/>
<text text-anchor="middle" x="285" y="-196" font-family="Verdana" font-size="10.00">cdev_add()</text>
<text text-anchor="middle" x="285" y="-183" font-family="Verdana" font-size="10.00">(vdev&#45;&gt;cdev&#45;&gt;ops=&amp;v4l2_fops)</text>
</g>
<!-- register_chrdev_region&#45;&gt;cdev_add -->
<g id="edge6" class="edge"><title>register_chrdev_region&#45;&gt;cdev_add</title>
<path fill="none" stroke="limegreen" stroke-dasharray="5,2" d="M177.842,-258.186C195.637,-247.195 218.86,-232.851 239.136,-220.328"/>
<polygon fill="limegreen" stroke="limegreen" points="241.247,-223.138 247.916,-214.905 237.569,-217.182 241.247,-223.138"/>
</g>
<!-- vdev_fops -->
<g id="node10" class="node"><title>vdev_fops</title>
<ellipse fill="none" stroke="skyblue" cx="285" cy="-108" rx="65.0538" ry="24.0416"/>
<text text-anchor="middle" x="285" y="-112" font-family="Verdana" font-size="10.00">vdev&#45;&gt;fops</text>
<text text-anchor="middle" x="285" y="-99" font-family="Verdana" font-size="10.00">(mxc_v4l_fops)</text>
</g>
<!-- cdev_add&#45;&gt;vdev_fops -->
<g id="edge12" class="edge"><title>cdev_add&#45;&gt;vdev_fops</title>
<path fill="none" stroke="limegreen" stroke-dasharray="5,2" d="M285,-167.704C285,-159.781 285,-150.829 285,-142.314"/>
<polygon fill="limegreen" stroke="limegreen" points="288.5,-142.242 285,-132.242 281.5,-142.242 288.5,-142.242"/>
</g>
<!-- video_register_device -->
<g id="node8" class="node"><title>video_register_device</title>
<ellipse fill="none" stroke="skyblue" cx="661" cy="-276" rx="132.967" ry="18"/>
<text text-anchor="middle" x="661" y="-273.5" font-family="Verdana" font-size="10.00">video_register_device(cam&#45;&gt;video_dev)</text>
</g>
<!-- video_register_device&#45;&gt;cdev_add -->
<g id="edge8" class="edge"><title>video_register_device&#45;&gt;cdev_add</title>
<path fill="none" stroke="crimson" d="M592.036,-260.593C531.438,-247.055 442.811,-227.256 376.335,-212.405"/>
<polygon fill="crimson" stroke="crimson" points="376.801,-208.923 366.279,-210.158 375.275,-215.754 376.801,-208.923"/>
</g>
<!-- device_register -->
<g id="node9" class="node"><title>device_register</title>
<ellipse fill="none" stroke="skyblue" cx="661" cy="-192" rx="99.224" ry="18"/>
<text text-anchor="middle" x="661" y="-189.5" font-family="Verdana" font-size="10.00">device_register(&amp;vdev&#45;&gt;dev)</text>
</g>
<!-- video_register_device&#45;&gt;device_register -->
<g id="edge10" class="edge"><title>video_register_device&#45;&gt;device_register</title>
<path fill="none" stroke="crimson" d="M661,-257.773C661,-246.876 661,-232.795 661,-220.459"/>
<polygon fill="crimson" stroke="crimson" points="664.5,-220.191 661,-210.191 657.5,-220.191 664.5,-220.191"/>
</g>
<!-- ipu_enc_select -->
<g id="node21" class="node"><title>ipu_enc_select</title>
<ellipse fill="none" stroke="skyblue" cx="940" cy="-192" rx="126.072" ry="24.0416"/>
<text text-anchor="middle" x="940" y="-196" font-family="Verdana" font-size="10.00">ipu_enc_select</text>
<text text-anchor="middle" x="940" y="-183" font-family="Verdana" font-size="10.00">(prp_enc_select/csi_enc_select)</text>
</g>
<!-- vdev_fops&#45;&gt;ipu_enc_select -->
<g id="edge38" class="edge"><title>vdev_fops&#45;&gt;ipu_enc_select</title>
<path fill="none" stroke="limegreen" stroke-dasharray="5,2" d="M346.927,-115.353C439.017,-126.362 617.486,-147.977 769,-168 788.45,-170.57 809.13,-173.395 829.141,-176.176"/>
<polygon fill="limegreen" stroke="limegreen" points="828.83,-179.666 839.218,-177.58 829.796,-172.733 828.83,-179.666"/>
</g>
<!-- adv7481_ioctl_desc -->
<g id="node29" class="node"><title>adv7481_ioctl_desc</title>
<ellipse fill="none" stroke="skyblue" cx="285" cy="-24" rx="90.0096" ry="24.0416"/>
<text text-anchor="middle" x="285" y="-28" font-family="Verdana" font-size="10.00">adv7481_ioctl_desc</text>
<text text-anchor="middle" x="285" y="-15" font-family="Verdana" font-size="10.00">(cam&#45;&gt;sonsor&#45;&gt;ioctls)</text>
</g>
<!-- vdev_fops&#45;&gt;adv7481_ioctl_desc -->
<g id="edge32" class="edge"><title>vdev_fops&#45;&gt;adv7481_ioctl_desc</title>
<path fill="none" stroke="limegreen" stroke-dasharray="5,2" d="M285,-83.7037C285,-75.7808 285,-66.829 285,-58.3136"/>
<polygon fill="limegreen" stroke="limegreen" points="288.5,-58.2416 285,-48.2417 281.5,-58.2417 288.5,-58.2416"/>
</g>
<!-- camera_init -->
<g id="node14" class="node"><title>camera_init</title>
<ellipse fill="none" stroke="skyblue" cx="940" cy="-516" rx="87.889" ry="24.0416"/>
<text text-anchor="middle" x="940" y="-520" font-family="Verdana" font-size="10.00">camera_init</text>
<text text-anchor="middle" x="940" y="-507" font-family="Verdana" font-size="10.00">(mxc_v4l2_capture.c)</text>
</g>
<!-- platform_driver_register -->
<g id="node15" class="node"><title>platform_driver_register</title>
<ellipse fill="none" stroke="skyblue" cx="940" cy="-438" rx="141.085" ry="18"/>
<text text-anchor="middle" x="940" y="-435.5" font-family="Verdana" font-size="10.00">platform_driver_register(&amp;mxc_v4l2_driver)</text>
</g>
<!-- camera_init&#45;&gt;platform_driver_register -->
<g id="edge14" class="edge"><title>camera_init&#45;&gt;platform_driver_register</title>
<path fill="none" stroke="crimson" d="M940,-491.748C940,-483.698 940,-474.665 940,-466.336"/>
<polygon fill="crimson" stroke="crimson" points="943.5,-466.287 940,-456.288 936.5,-466.288 943.5,-466.287"/>
</g>
<!-- mxc_v4l2_probe -->
<g id="node16" class="node"><title>mxc_v4l2_probe</title>
<ellipse fill="none" stroke="skyblue" cx="940" cy="-360" rx="74.2462" ry="24.0416"/>
<text text-anchor="middle" x="940" y="-364" font-family="Verdana" font-size="10.00">mxc_v4l2_probe</text>
<text text-anchor="middle" x="940" y="-351" font-family="Verdana" font-size="10.00">(cam_data *cam)</text>
</g>
<!-- platform_driver_register&#45;&gt;mxc_v4l2_probe -->
<g id="edge16" class="edge"><title>platform_driver_register&#45;&gt;mxc_v4l2_probe</title>
<path fill="none" stroke="crimson" d="M940,-419.909C940,-412.275 940,-403.124 940,-394.299"/>
<polygon fill="crimson" stroke="crimson" points="943.5,-394.199 940,-384.199 936.5,-394.199 943.5,-394.199"/>
</g>
<!-- mxc_v4l2_probe&#45;&gt;video_register_device -->
<g id="edge22" class="edge"><title>mxc_v4l2_probe&#45;&gt;video_register_device</title>
<path fill="none" stroke="crimson" d="M885.544,-343.605C839.7,-329.802 774.042,-310.034 725.559,-295.437"/>
<polygon fill="crimson" stroke="crimson" points="726.38,-292.029 715.795,-292.497 724.361,-298.732 726.38,-292.029"/>
</g>
<!-- init_camera_stuct -->
<g id="node17" class="node"><title>init_camera_stuct</title>
<ellipse fill="none" stroke="skyblue" cx="940" cy="-276" rx="128.193" ry="24.0416"/>
<text text-anchor="middle" x="940" y="-280" font-family="Verdana" font-size="10.00">init_camera_stuct</text>
<text text-anchor="middle" x="940" y="-267" font-family="Verdana" font-size="10.00">(self.u.master=mxc_v4l2_master)</text>
</g>
<!-- mxc_v4l2_probe&#45;&gt;init_camera_stuct -->
<g id="edge18" class="edge"><title>mxc_v4l2_probe&#45;&gt;init_camera_stuct</title>
<path fill="none" stroke="crimson" d="M940,-335.704C940,-327.781 940,-318.829 940,-310.314"/>
<polygon fill="crimson" stroke="crimson" points="943.5,-310.242 940,-300.242 936.5,-310.242 943.5,-310.242"/>
</g>
<!-- v4l2_int_device_register_cap -->
<g id="node18" class="node"><title>v4l2_int_device_register_cap</title>
<ellipse fill="none" stroke="skyblue" cx="1224" cy="-276" rx="138.093" ry="24.0416"/>
<text text-anchor="middle" x="1224" y="-280" font-family="Verdana" font-size="10.00">v4l2_int_device_register(cam&#45;&gt;self)</text>
<text text-anchor="middle" x="1224" y="-267" font-family="Verdana" font-size="10.00">(struct v4l2_int_device *self)</text>
</g>
<!-- mxc_v4l2_probe&#45;&gt;v4l2_int_device_register_cap -->
<g id="edge20" class="edge"><title>mxc_v4l2_probe&#45;&gt;v4l2_int_device_register_cap</title>
<path fill="none" stroke="crimson" d="M994.758,-343.804C1037.21,-331.249 1096.64,-313.67 1144.35,-299.558"/>
<polygon fill="crimson" stroke="crimson" points="1145.44,-302.886 1154.04,-296.693 1143.45,-296.173 1145.44,-302.886"/>
</g>
<!-- init_camera_stuct&#45;&gt;ipu_enc_select -->
<g id="edge36" class="edge"><title>init_camera_stuct&#45;&gt;ipu_enc_select</title>
<path fill="none" stroke="limegreen" stroke-dasharray="1,5" d="M940,-251.704C940,-243.781 940,-234.829 940,-226.314"/>
<polygon fill="limegreen" stroke="limegreen" points="943.5,-226.242 940,-216.242 936.5,-226.242 943.5,-226.242"/>
</g>
<!-- v4l2_int_device_try_attach_all -->
<g id="node19" class="node"><title>v4l2_int_device_try_attach_all</title>
<ellipse fill="none" stroke="skyblue" cx="1500" cy="-276" rx="120.208" ry="24.0416"/>
<text text-anchor="middle" x="1500" y="-280" font-family="Verdana" font-size="10.00">v4l2_int_device_try_attach_all</text>
<text text-anchor="middle" x="1500" y="-267" font-family="Verdana" font-size="10.00">(m&#45;&gt;u.master&#45;&gt;attach(s))</text>
</g>
<!-- mxc_v4l2_master_attach -->
<g id="node20" class="node"><title>mxc_v4l2_master_attach</title>
<ellipse fill="none" stroke="skyblue" cx="1500" cy="-192" rx="138.093" ry="24.0416"/>
<text text-anchor="middle" x="1500" y="-196" font-family="Verdana" font-size="10.00">mxc_v4l2_master_attach</text>
<text text-anchor="middle" x="1500" y="-183" font-family="Verdana" font-size="10.00">(cam&#45;&gt;sensor=adv7481_int_device)</text>
</g>
<!-- v4l2_int_device_try_attach_all&#45;&gt;mxc_v4l2_master_attach -->
<g id="edge28" class="edge"><title>v4l2_int_device_try_attach_all&#45;&gt;mxc_v4l2_master_attach</title>
<path fill="none" stroke="crimson" d="M1500,-251.704C1500,-243.781 1500,-234.829 1500,-226.314"/>
<polygon fill="crimson" stroke="crimson" points="1503.5,-226.242 1500,-216.242 1496.5,-226.242 1503.5,-226.242"/>
</g>
<!-- mxc_v4l2_master_attach&#45;&gt;adv7481_ioctl_desc -->
<g id="edge34" class="edge"><title>mxc_v4l2_master_attach&#45;&gt;adv7481_ioctl_desc</title>
<path fill="none" stroke="limegreen" stroke-dasharray="5,2" d="M1391.91,-177.054C1155.2,-144.323 594.646,-66.8153 375.259,-36.4803"/>
<polygon fill="limegreen" stroke="limegreen" points="375.458,-32.9745 365.073,-35.0718 374.499,-39.9086 375.458,-32.9745"/>
</g>
<!-- adv7481_probe -->
<g id="node27" class="node"><title>adv7481_probe</title>
<ellipse fill="none" stroke="skyblue" cx="1362" cy="-438" rx="56.1328" ry="18"/>
<text text-anchor="middle" x="1362" y="-435.5" font-family="Verdana" font-size="10.00">adv7481_probe</text>
</g>
<!-- v4l2_int_device_register -->
<g id="node28" class="node"><title>v4l2_int_device_register</title>
<ellipse fill="none" stroke="skyblue" cx="1362" cy="-360" rx="155.128" ry="18"/>
<text text-anchor="middle" x="1362" y="-357.5" font-family="Verdana" font-size="10.00">v4l2_int_device_register(&amp;adv7481_int_device)</text>
</g>
<!-- adv7481_probe&#45;&gt;v4l2_int_device_register -->
<g id="edge24" class="edge"><title>adv7481_probe&#45;&gt;v4l2_int_device_register</title>
<path fill="none" stroke="crimson" d="M1362,-419.909C1362,-410.526 1362,-398.85 1362,-388.305"/>
<polygon fill="crimson" stroke="crimson" points="1365.5,-388.263 1362,-378.263 1358.5,-388.263 1365.5,-388.263"/>
</g>
<!-- v4l2_int_device_register&#45;&gt;v4l2_int_device_register_cap -->
<g id="edge30" class="edge"><title>v4l2_int_device_register&#45;&gt;v4l2_int_device_register_cap</title>
<path fill="none" stroke="limegreen" stroke-dasharray="5,2" d="M1324.19,-336.984C1307.76,-326.984 1288.34,-315.165 1271,-304.607"/>
<polygon fill="limegreen" stroke="limegreen" points="1322.37,-339.976 1332.73,-342.186 1326.01,-333.997 1322.37,-339.976"/>
<polygon fill="limegreen" stroke="limegreen" points="1272.5,-301.427 1262.14,-299.217 1268.87,-307.407 1272.5,-301.427"/>
</g>
<!-- v4l2_int_device_register&#45;&gt;v4l2_int_device_try_attach_all -->
<g id="edge26" class="edge"><title>v4l2_int_device_register&#45;&gt;v4l2_int_device_try_attach_all</title>
<path fill="none" stroke="crimson" d="M1391.27,-342.186C1409.4,-331.145 1433.1,-316.722 1453.74,-304.16"/>
<polygon fill="crimson" stroke="crimson" points="1455.65,-307.094 1462.37,-298.905 1452.01,-301.115 1455.65,-307.094"/>
</g>
</g>
</svg>
